G04 #@! TF.GenerationSoftware,KiCad,Pcbnew,5.1.5-52549c5~84~ubuntu18.04.1*
G04 #@! TF.CreationDate,2020-03-03T16:32:57-05:00*
G04 #@! TF.ProjectId,midi_io,6d696469-5f69-46f2-9e6b-696361645f70,1*
G04 #@! TF.SameCoordinates,Original*
G04 #@! TF.FileFunction,Legend,Bot*
G04 #@! TF.FilePolarity,Positive*
%FSLAX46Y46*%
G04 Gerber Fmt 4.6, Leading zero omitted, Abs format (unit mm)*
G04 Created by KiCad (PCBNEW 5.1.5-52549c5~84~ubuntu18.04.1) date 2020-03-03 16:32:57*
%MOMM*%
%LPD*%
G04 APERTURE LIST*
%ADD10C,0.127000*%
G04 APERTURE END LIST*
D10*
X165568835Y-118371714D02*
X165568835Y-117609714D01*
X165133407Y-118371714D02*
X165459978Y-117936285D01*
X165133407Y-117609714D02*
X165568835Y-118045142D01*
X164806835Y-117609714D02*
X164806835Y-118226571D01*
X164770550Y-118299142D01*
X164734264Y-118335428D01*
X164661692Y-118371714D01*
X164516550Y-118371714D01*
X164443978Y-118335428D01*
X164407692Y-118299142D01*
X164371407Y-118226571D01*
X164371407Y-117609714D01*
X164044835Y-118335428D02*
X163935978Y-118371714D01*
X163754550Y-118371714D01*
X163681978Y-118335428D01*
X163645692Y-118299142D01*
X163609407Y-118226571D01*
X163609407Y-118154000D01*
X163645692Y-118081428D01*
X163681978Y-118045142D01*
X163754550Y-118008857D01*
X163899692Y-117972571D01*
X163972264Y-117936285D01*
X164008550Y-117900000D01*
X164044835Y-117827428D01*
X164044835Y-117754857D01*
X164008550Y-117682285D01*
X163972264Y-117646000D01*
X163899692Y-117609714D01*
X163718264Y-117609714D01*
X163609407Y-117646000D01*
X163282835Y-118371714D02*
X163282835Y-117609714D01*
X163282835Y-117972571D02*
X162847407Y-117972571D01*
X162847407Y-118371714D02*
X162847407Y-117609714D01*
X162593407Y-117609714D02*
X162339407Y-118371714D01*
X162085407Y-117609714D01*
X161831407Y-118371714D02*
X161831407Y-117609714D01*
X161468550Y-117972571D02*
X161214550Y-117972571D01*
X161105692Y-118371714D02*
X161468550Y-118371714D01*
X161468550Y-117609714D01*
X161105692Y-117609714D01*
X160851692Y-117609714D02*
X160670264Y-118371714D01*
X160525121Y-117827428D01*
X160379978Y-118371714D01*
X160198550Y-117609714D01*
X159871978Y-118335428D02*
X159871978Y-118371714D01*
X159908264Y-118444285D01*
X159944550Y-118480571D01*
X158601978Y-118371714D02*
X158964835Y-118371714D01*
X158964835Y-117609714D01*
X157985121Y-118371714D02*
X158347978Y-118371714D01*
X158347978Y-117609714D01*
X157295692Y-118299142D02*
X157331978Y-118335428D01*
X157440835Y-118371714D01*
X157513407Y-118371714D01*
X157622264Y-118335428D01*
X157694835Y-118262857D01*
X157731121Y-118190285D01*
X157767407Y-118045142D01*
X157767407Y-117936285D01*
X157731121Y-117791142D01*
X157694835Y-117718571D01*
X157622264Y-117646000D01*
X157513407Y-117609714D01*
X157440835Y-117609714D01*
X157331978Y-117646000D01*
X157295692Y-117682285D01*
X165554021Y-119621714D02*
X165554021Y-118859714D01*
X165300021Y-119404000D01*
X165046021Y-118859714D01*
X165046021Y-119621714D01*
X164683164Y-119621714D02*
X164683164Y-118859714D01*
X164320307Y-119621714D02*
X164320307Y-118859714D01*
X164138878Y-118859714D01*
X164030021Y-118896000D01*
X163957450Y-118968571D01*
X163921164Y-119041142D01*
X163884878Y-119186285D01*
X163884878Y-119295142D01*
X163921164Y-119440285D01*
X163957450Y-119512857D01*
X164030021Y-119585428D01*
X164138878Y-119621714D01*
X164320307Y-119621714D01*
X163558307Y-119621714D02*
X163558307Y-118859714D01*
X162614878Y-119621714D02*
X162614878Y-118859714D01*
X162106878Y-118859714D02*
X161961735Y-118859714D01*
X161889164Y-118896000D01*
X161816592Y-118968571D01*
X161780307Y-119113714D01*
X161780307Y-119367714D01*
X161816592Y-119512857D01*
X161889164Y-119585428D01*
X161961735Y-119621714D01*
X162106878Y-119621714D01*
X162179450Y-119585428D01*
X162252021Y-119512857D01*
X162288307Y-119367714D01*
X162288307Y-119113714D01*
X162252021Y-118968571D01*
X162179450Y-118896000D01*
X162106878Y-118859714D01*
X160619164Y-119222571D02*
X160510307Y-119258857D01*
X160474021Y-119295142D01*
X160437735Y-119367714D01*
X160437735Y-119476571D01*
X160474021Y-119549142D01*
X160510307Y-119585428D01*
X160582878Y-119621714D01*
X160873164Y-119621714D01*
X160873164Y-118859714D01*
X160619164Y-118859714D01*
X160546592Y-118896000D01*
X160510307Y-118932285D01*
X160474021Y-119004857D01*
X160474021Y-119077428D01*
X160510307Y-119150000D01*
X160546592Y-119186285D01*
X160619164Y-119222571D01*
X160873164Y-119222571D01*
X159675735Y-119621714D02*
X159929735Y-119258857D01*
X160111164Y-119621714D02*
X160111164Y-118859714D01*
X159820878Y-118859714D01*
X159748307Y-118896000D01*
X159712021Y-118932285D01*
X159675735Y-119004857D01*
X159675735Y-119113714D01*
X159712021Y-119186285D01*
X159748307Y-119222571D01*
X159820878Y-119258857D01*
X160111164Y-119258857D01*
X159349164Y-119222571D02*
X159095164Y-119222571D01*
X158986307Y-119621714D02*
X159349164Y-119621714D01*
X159349164Y-118859714D01*
X158986307Y-118859714D01*
X158696021Y-119404000D02*
X158333164Y-119404000D01*
X158768592Y-119621714D02*
X158514592Y-118859714D01*
X158260592Y-119621714D01*
X158006592Y-119621714D02*
X158006592Y-118859714D01*
X157571164Y-119621714D02*
X157897735Y-119186285D01*
X157571164Y-118859714D02*
X158006592Y-119295142D01*
X157099450Y-118859714D02*
X156954307Y-118859714D01*
X156881735Y-118896000D01*
X156809164Y-118968571D01*
X156772878Y-119113714D01*
X156772878Y-119367714D01*
X156809164Y-119512857D01*
X156881735Y-119585428D01*
X156954307Y-119621714D01*
X157099450Y-119621714D01*
X157172021Y-119585428D01*
X157244592Y-119512857D01*
X157280878Y-119367714D01*
X157280878Y-119113714D01*
X157244592Y-118968571D01*
X157172021Y-118896000D01*
X157099450Y-118859714D01*
X156446307Y-118859714D02*
X156446307Y-119476571D01*
X156410021Y-119549142D01*
X156373735Y-119585428D01*
X156301164Y-119621714D01*
X156156021Y-119621714D01*
X156083450Y-119585428D01*
X156047164Y-119549142D01*
X156010878Y-119476571D01*
X156010878Y-118859714D01*
X155756878Y-118859714D02*
X155321450Y-118859714D01*
X155539164Y-119621714D02*
X155539164Y-118859714D01*
X154051450Y-119621714D02*
X154305450Y-119258857D01*
X154486878Y-119621714D02*
X154486878Y-118859714D01*
X154196592Y-118859714D01*
X154124021Y-118896000D01*
X154087735Y-118932285D01*
X154051450Y-119004857D01*
X154051450Y-119113714D01*
X154087735Y-119186285D01*
X154124021Y-119222571D01*
X154196592Y-119258857D01*
X154486878Y-119258857D01*
X153724878Y-119222571D02*
X153470878Y-119222571D01*
X153362021Y-119621714D02*
X153724878Y-119621714D01*
X153724878Y-118859714D01*
X153362021Y-118859714D01*
X153144307Y-118859714D02*
X152890307Y-119621714D01*
X152636307Y-118859714D01*
X151402592Y-119621714D02*
X151838021Y-119621714D01*
X151620307Y-119621714D02*
X151620307Y-118859714D01*
X151692878Y-118968571D01*
X151765450Y-119041142D01*
X151838021Y-119077428D01*
M02*
