G04 #@! TF.GenerationSoftware,KiCad,Pcbnew,5.1.5-52549c5~84~ubuntu18.04.1*
G04 #@! TF.CreationDate,2020-03-04T13:04:20-05:00*
G04 #@! TF.ProjectId,midi_io,6d696469-5f69-46f2-9e6b-696361645f70,1*
G04 #@! TF.SameCoordinates,Original*
G04 #@! TF.FileFunction,Other,Fab,Top*
%FSLAX46Y46*%
G04 Gerber Fmt 4.6, Leading zero omitted, Abs format (unit mm)*
G04 Created by KiCad (PCBNEW 5.1.5-52549c5~84~ubuntu18.04.1) date 2020-03-04 13:04:20*
%MOMM*%
%LPD*%
G04 APERTURE LIST*
%ADD10C,0.100000*%
%ADD11C,0.152400*%
%ADD12C,0.150000*%
%ADD13C,0.080000*%
G04 APERTURE END LIST*
D10*
X163068000Y-115443000D02*
X163068000Y-105283000D01*
X165608000Y-115443000D02*
X163068000Y-115443000D01*
X165608000Y-105918000D02*
X165608000Y-115443000D01*
X164973000Y-105283000D02*
X165608000Y-105918000D01*
X163068000Y-105283000D02*
X164973000Y-105283000D01*
X150784000Y-96631000D02*
X150784000Y-94631000D01*
X151984000Y-96631000D02*
X150784000Y-96631000D01*
X151984000Y-94631000D02*
X151984000Y-96631000D01*
X150784000Y-94631000D02*
X151984000Y-94631000D01*
X150784000Y-91043000D02*
X150784000Y-89043000D01*
X151984000Y-91043000D02*
X150784000Y-91043000D01*
X151984000Y-89043000D02*
X151984000Y-91043000D01*
X150784000Y-89043000D02*
X151984000Y-89043000D01*
X159782000Y-99603000D02*
X161782000Y-99603000D01*
X159782000Y-100803000D02*
X159782000Y-99603000D01*
X161782000Y-100803000D02*
X159782000Y-100803000D01*
X161782000Y-99603000D02*
X161782000Y-100803000D01*
X150638000Y-104683000D02*
X152638000Y-104683000D01*
X150638000Y-105883000D02*
X150638000Y-104683000D01*
X152638000Y-105883000D02*
X150638000Y-105883000D01*
X152638000Y-104683000D02*
X152638000Y-105883000D01*
X150638000Y-114843000D02*
X152638000Y-114843000D01*
X150638000Y-116043000D02*
X150638000Y-114843000D01*
X152638000Y-116043000D02*
X150638000Y-116043000D01*
X152638000Y-114843000D02*
X152638000Y-116043000D01*
X157114000Y-84789000D02*
X157114000Y-82089000D01*
X156914000Y-84789000D02*
X156914000Y-82089000D01*
X157014000Y-84789000D02*
X157014000Y-82089000D01*
X151384000Y-83439000D02*
X152594000Y-83439000D01*
X159004000Y-83439000D02*
X157794000Y-83439000D01*
X152594000Y-84789000D02*
X157794000Y-84789000D01*
X152594000Y-82089000D02*
X152594000Y-84789000D01*
X157794000Y-82089000D02*
X152594000Y-82089000D01*
X157794000Y-84789000D02*
X157794000Y-82089000D01*
X163592000Y-89662000D02*
X164592000Y-90662000D01*
X154432000Y-89662000D02*
X163592000Y-89662000D01*
X154432000Y-96012000D02*
X154432000Y-89662000D01*
X164592000Y-96012000D02*
X154432000Y-96012000D01*
X164592000Y-90662000D02*
X164592000Y-96012000D01*
D11*
X138858433Y-105369997D02*
X138858433Y-106084783D01*
X138810780Y-106227740D01*
X138715476Y-106323045D01*
X138572519Y-106370697D01*
X138477214Y-106370697D01*
X139859133Y-106370697D02*
X139287304Y-106370697D01*
X139573219Y-106370697D02*
X139573219Y-105369997D01*
X139477914Y-105512954D01*
X139382609Y-105608259D01*
X139287304Y-105655911D01*
X138985433Y-84922997D02*
X138985433Y-85637783D01*
X138937780Y-85780740D01*
X138842476Y-85876045D01*
X138699519Y-85923697D01*
X138604214Y-85923697D01*
X139414304Y-85018302D02*
X139461957Y-84970650D01*
X139557261Y-84922997D01*
X139795523Y-84922997D01*
X139890828Y-84970650D01*
X139938480Y-85018302D01*
X139986133Y-85113607D01*
X139986133Y-85208911D01*
X139938480Y-85351869D01*
X139366652Y-85923697D01*
X139986133Y-85923697D01*
D12*
X160345904Y-111736142D02*
X160298285Y-111783761D01*
X160155428Y-111831380D01*
X160060190Y-111831380D01*
X159917333Y-111783761D01*
X159822095Y-111688523D01*
X159774476Y-111593285D01*
X159726857Y-111402809D01*
X159726857Y-111259952D01*
X159774476Y-111069476D01*
X159822095Y-110974238D01*
X159917333Y-110879000D01*
X160060190Y-110831380D01*
X160155428Y-110831380D01*
X160298285Y-110879000D01*
X160345904Y-110926619D01*
X160917333Y-111831380D02*
X160822095Y-111783761D01*
X160774476Y-111736142D01*
X160726857Y-111640904D01*
X160726857Y-111355190D01*
X160774476Y-111259952D01*
X160822095Y-111212333D01*
X160917333Y-111164714D01*
X161060190Y-111164714D01*
X161155428Y-111212333D01*
X161203047Y-111259952D01*
X161250666Y-111355190D01*
X161250666Y-111640904D01*
X161203047Y-111736142D01*
X161155428Y-111783761D01*
X161060190Y-111831380D01*
X160917333Y-111831380D01*
X161679238Y-111164714D02*
X161679238Y-111831380D01*
X161679238Y-111259952D02*
X161726857Y-111212333D01*
X161822095Y-111164714D01*
X161964952Y-111164714D01*
X162060190Y-111212333D01*
X162107809Y-111307571D01*
X162107809Y-111831380D01*
X162584000Y-111164714D02*
X162584000Y-111831380D01*
X162584000Y-111259952D02*
X162631619Y-111212333D01*
X162726857Y-111164714D01*
X162869714Y-111164714D01*
X162964952Y-111212333D01*
X163012571Y-111307571D01*
X163012571Y-111831380D01*
X163250666Y-111926619D02*
X164012571Y-111926619D01*
X164441142Y-110831380D02*
X164536380Y-110831380D01*
X164631619Y-110879000D01*
X164679238Y-110926619D01*
X164726857Y-111021857D01*
X164774476Y-111212333D01*
X164774476Y-111450428D01*
X164726857Y-111640904D01*
X164679238Y-111736142D01*
X164631619Y-111783761D01*
X164536380Y-111831380D01*
X164441142Y-111831380D01*
X164345904Y-111783761D01*
X164298285Y-111736142D01*
X164250666Y-111640904D01*
X164203047Y-111450428D01*
X164203047Y-111212333D01*
X164250666Y-111021857D01*
X164298285Y-110926619D01*
X164345904Y-110879000D01*
X164441142Y-110831380D01*
X165726857Y-111831380D02*
X165155428Y-111831380D01*
X165441142Y-111831380D02*
X165441142Y-110831380D01*
X165345904Y-110974238D01*
X165250666Y-111069476D01*
X165155428Y-111117095D01*
X166060190Y-111831380D02*
X166584000Y-111164714D01*
X166060190Y-111164714D02*
X166584000Y-111831380D01*
X167155428Y-110831380D02*
X167250666Y-110831380D01*
X167345904Y-110879000D01*
X167393523Y-110926619D01*
X167441142Y-111021857D01*
X167488761Y-111212333D01*
X167488761Y-111450428D01*
X167441142Y-111640904D01*
X167393523Y-111736142D01*
X167345904Y-111783761D01*
X167250666Y-111831380D01*
X167155428Y-111831380D01*
X167060190Y-111783761D01*
X167012571Y-111736142D01*
X166964952Y-111640904D01*
X166917333Y-111450428D01*
X166917333Y-111212333D01*
X166964952Y-111021857D01*
X167012571Y-110926619D01*
X167060190Y-110879000D01*
X167155428Y-110831380D01*
X168345904Y-111164714D02*
X168345904Y-111831380D01*
X168107809Y-110783761D02*
X167869714Y-111498047D01*
X168488761Y-111498047D01*
X164004666Y-109815380D02*
X164004666Y-110529666D01*
X163957047Y-110672523D01*
X163861809Y-110767761D01*
X163718952Y-110815380D01*
X163623714Y-110815380D01*
X164385619Y-109815380D02*
X165004666Y-109815380D01*
X164671333Y-110196333D01*
X164814190Y-110196333D01*
X164909428Y-110243952D01*
X164957047Y-110291571D01*
X165004666Y-110386809D01*
X165004666Y-110624904D01*
X164957047Y-110720142D01*
X164909428Y-110767761D01*
X164814190Y-110815380D01*
X164528476Y-110815380D01*
X164433238Y-110767761D01*
X164385619Y-110720142D01*
X150455428Y-96686714D02*
X150455428Y-97353380D01*
X150217333Y-96305761D02*
X149979238Y-97020047D01*
X150598285Y-97020047D01*
X150979238Y-97258142D02*
X151026857Y-97305761D01*
X150979238Y-97353380D01*
X150931619Y-97305761D01*
X150979238Y-97258142D01*
X150979238Y-97353380D01*
X151360190Y-96353380D02*
X152026857Y-96353380D01*
X151598285Y-97353380D01*
X152407809Y-97353380D02*
X152407809Y-96353380D01*
X152503047Y-96972428D02*
X152788761Y-97353380D01*
X152788761Y-96686714D02*
X152407809Y-97067666D01*
D13*
X151300666Y-95857190D02*
X151134000Y-95619095D01*
X151014952Y-95857190D02*
X151014952Y-95357190D01*
X151205428Y-95357190D01*
X151253047Y-95381000D01*
X151276857Y-95404809D01*
X151300666Y-95452428D01*
X151300666Y-95523857D01*
X151276857Y-95571476D01*
X151253047Y-95595285D01*
X151205428Y-95619095D01*
X151014952Y-95619095D01*
X151753047Y-95357190D02*
X151514952Y-95357190D01*
X151491142Y-95595285D01*
X151514952Y-95571476D01*
X151562571Y-95547666D01*
X151681619Y-95547666D01*
X151729238Y-95571476D01*
X151753047Y-95595285D01*
X151776857Y-95642904D01*
X151776857Y-95761952D01*
X151753047Y-95809571D01*
X151729238Y-95833380D01*
X151681619Y-95857190D01*
X151562571Y-95857190D01*
X151514952Y-95833380D01*
X151491142Y-95809571D01*
D12*
X150145904Y-90860619D02*
X150193523Y-90813000D01*
X150288761Y-90765380D01*
X150526857Y-90765380D01*
X150622095Y-90813000D01*
X150669714Y-90860619D01*
X150717333Y-90955857D01*
X150717333Y-91051095D01*
X150669714Y-91193952D01*
X150098285Y-91765380D01*
X150717333Y-91765380D01*
X151098285Y-90860619D02*
X151145904Y-90813000D01*
X151241142Y-90765380D01*
X151479238Y-90765380D01*
X151574476Y-90813000D01*
X151622095Y-90860619D01*
X151669714Y-90955857D01*
X151669714Y-91051095D01*
X151622095Y-91193952D01*
X151050666Y-91765380D01*
X151669714Y-91765380D01*
X152288761Y-90765380D02*
X152384000Y-90765380D01*
X152479238Y-90813000D01*
X152526857Y-90860619D01*
X152574476Y-90955857D01*
X152622095Y-91146333D01*
X152622095Y-91384428D01*
X152574476Y-91574904D01*
X152526857Y-91670142D01*
X152479238Y-91717761D01*
X152384000Y-91765380D01*
X152288761Y-91765380D01*
X152193523Y-91717761D01*
X152145904Y-91670142D01*
X152098285Y-91574904D01*
X152050666Y-91384428D01*
X152050666Y-91146333D01*
X152098285Y-90955857D01*
X152145904Y-90860619D01*
X152193523Y-90813000D01*
X152288761Y-90765380D01*
D13*
X151376866Y-90269190D02*
X151210200Y-90031095D01*
X151091152Y-90269190D02*
X151091152Y-89769190D01*
X151281628Y-89769190D01*
X151329247Y-89793000D01*
X151353057Y-89816809D01*
X151376866Y-89864428D01*
X151376866Y-89935857D01*
X151353057Y-89983476D01*
X151329247Y-90007285D01*
X151281628Y-90031095D01*
X151091152Y-90031095D01*
X151543533Y-89769190D02*
X151853057Y-89769190D01*
X151686390Y-89959666D01*
X151757819Y-89959666D01*
X151805438Y-89983476D01*
X151829247Y-90007285D01*
X151853057Y-90054904D01*
X151853057Y-90173952D01*
X151829247Y-90221571D01*
X151805438Y-90245380D01*
X151757819Y-90269190D01*
X151614961Y-90269190D01*
X151567342Y-90245380D01*
X151543533Y-90221571D01*
D12*
X159543904Y-100131619D02*
X159591523Y-100084000D01*
X159686761Y-100036380D01*
X159924857Y-100036380D01*
X160020095Y-100084000D01*
X160067714Y-100131619D01*
X160115333Y-100226857D01*
X160115333Y-100322095D01*
X160067714Y-100464952D01*
X159496285Y-101036380D01*
X160115333Y-101036380D01*
X160496285Y-100131619D02*
X160543904Y-100084000D01*
X160639142Y-100036380D01*
X160877238Y-100036380D01*
X160972476Y-100084000D01*
X161020095Y-100131619D01*
X161067714Y-100226857D01*
X161067714Y-100322095D01*
X161020095Y-100464952D01*
X160448666Y-101036380D01*
X161067714Y-101036380D01*
X161686761Y-100036380D02*
X161782000Y-100036380D01*
X161877238Y-100084000D01*
X161924857Y-100131619D01*
X161972476Y-100226857D01*
X162020095Y-100417333D01*
X162020095Y-100655428D01*
X161972476Y-100845904D01*
X161924857Y-100941142D01*
X161877238Y-100988761D01*
X161782000Y-101036380D01*
X161686761Y-101036380D01*
X161591523Y-100988761D01*
X161543904Y-100941142D01*
X161496285Y-100845904D01*
X161448666Y-100655428D01*
X161448666Y-100417333D01*
X161496285Y-100226857D01*
X161543904Y-100131619D01*
X161591523Y-100084000D01*
X161686761Y-100036380D01*
D13*
X160698666Y-99794190D02*
X160532000Y-99556095D01*
X160412952Y-99794190D02*
X160412952Y-99294190D01*
X160603428Y-99294190D01*
X160651047Y-99318000D01*
X160674857Y-99341809D01*
X160698666Y-99389428D01*
X160698666Y-99460857D01*
X160674857Y-99508476D01*
X160651047Y-99532285D01*
X160603428Y-99556095D01*
X160412952Y-99556095D01*
X161127238Y-99460857D02*
X161127238Y-99794190D01*
X161008190Y-99270380D02*
X160889142Y-99627523D01*
X161198666Y-99627523D01*
D12*
X150399904Y-104830619D02*
X150447523Y-104783000D01*
X150542761Y-104735380D01*
X150780857Y-104735380D01*
X150876095Y-104783000D01*
X150923714Y-104830619D01*
X150971333Y-104925857D01*
X150971333Y-105021095D01*
X150923714Y-105163952D01*
X150352285Y-105735380D01*
X150971333Y-105735380D01*
X151352285Y-104830619D02*
X151399904Y-104783000D01*
X151495142Y-104735380D01*
X151733238Y-104735380D01*
X151828476Y-104783000D01*
X151876095Y-104830619D01*
X151923714Y-104925857D01*
X151923714Y-105021095D01*
X151876095Y-105163952D01*
X151304666Y-105735380D01*
X151923714Y-105735380D01*
X152542761Y-104735380D02*
X152638000Y-104735380D01*
X152733238Y-104783000D01*
X152780857Y-104830619D01*
X152828476Y-104925857D01*
X152876095Y-105116333D01*
X152876095Y-105354428D01*
X152828476Y-105544904D01*
X152780857Y-105640142D01*
X152733238Y-105687761D01*
X152638000Y-105735380D01*
X152542761Y-105735380D01*
X152447523Y-105687761D01*
X152399904Y-105640142D01*
X152352285Y-105544904D01*
X152304666Y-105354428D01*
X152304666Y-105116333D01*
X152352285Y-104925857D01*
X152399904Y-104830619D01*
X152447523Y-104783000D01*
X152542761Y-104735380D01*
D13*
X151554666Y-105509190D02*
X151388000Y-105271095D01*
X151268952Y-105509190D02*
X151268952Y-105009190D01*
X151459428Y-105009190D01*
X151507047Y-105033000D01*
X151530857Y-105056809D01*
X151554666Y-105104428D01*
X151554666Y-105175857D01*
X151530857Y-105223476D01*
X151507047Y-105247285D01*
X151459428Y-105271095D01*
X151268952Y-105271095D01*
X151745142Y-105056809D02*
X151768952Y-105033000D01*
X151816571Y-105009190D01*
X151935619Y-105009190D01*
X151983238Y-105033000D01*
X152007047Y-105056809D01*
X152030857Y-105104428D01*
X152030857Y-105152047D01*
X152007047Y-105223476D01*
X151721333Y-105509190D01*
X152030857Y-105509190D01*
D12*
X150399904Y-114990619D02*
X150447523Y-114943000D01*
X150542761Y-114895380D01*
X150780857Y-114895380D01*
X150876095Y-114943000D01*
X150923714Y-114990619D01*
X150971333Y-115085857D01*
X150971333Y-115181095D01*
X150923714Y-115323952D01*
X150352285Y-115895380D01*
X150971333Y-115895380D01*
X151352285Y-114990619D02*
X151399904Y-114943000D01*
X151495142Y-114895380D01*
X151733238Y-114895380D01*
X151828476Y-114943000D01*
X151876095Y-114990619D01*
X151923714Y-115085857D01*
X151923714Y-115181095D01*
X151876095Y-115323952D01*
X151304666Y-115895380D01*
X151923714Y-115895380D01*
X152542761Y-114895380D02*
X152638000Y-114895380D01*
X152733238Y-114943000D01*
X152780857Y-114990619D01*
X152828476Y-115085857D01*
X152876095Y-115276333D01*
X152876095Y-115514428D01*
X152828476Y-115704904D01*
X152780857Y-115800142D01*
X152733238Y-115847761D01*
X152638000Y-115895380D01*
X152542761Y-115895380D01*
X152447523Y-115847761D01*
X152399904Y-115800142D01*
X152352285Y-115704904D01*
X152304666Y-115514428D01*
X152304666Y-115276333D01*
X152352285Y-115085857D01*
X152399904Y-114990619D01*
X152447523Y-114943000D01*
X152542761Y-114895380D01*
D13*
X151554666Y-115669190D02*
X151388000Y-115431095D01*
X151268952Y-115669190D02*
X151268952Y-115169190D01*
X151459428Y-115169190D01*
X151507047Y-115193000D01*
X151530857Y-115216809D01*
X151554666Y-115264428D01*
X151554666Y-115335857D01*
X151530857Y-115383476D01*
X151507047Y-115407285D01*
X151459428Y-115431095D01*
X151268952Y-115431095D01*
X152030857Y-115669190D02*
X151745142Y-115669190D01*
X151888000Y-115669190D02*
X151888000Y-115169190D01*
X151840380Y-115240619D01*
X151792761Y-115288238D01*
X151745142Y-115312047D01*
D12*
X151805095Y-84780380D02*
X151233666Y-84780380D01*
X151519380Y-84780380D02*
X151519380Y-83780380D01*
X151424142Y-83923238D01*
X151328904Y-84018476D01*
X151233666Y-84066095D01*
X152233666Y-84780380D02*
X152233666Y-83780380D01*
X152805095Y-84780380D01*
X152805095Y-83780380D01*
X153709857Y-84113714D02*
X153709857Y-84780380D01*
X153471761Y-83732761D02*
X153233666Y-84447047D01*
X153852714Y-84447047D01*
X154424142Y-83780380D02*
X154519380Y-83780380D01*
X154614619Y-83828000D01*
X154662238Y-83875619D01*
X154709857Y-83970857D01*
X154757476Y-84161333D01*
X154757476Y-84399428D01*
X154709857Y-84589904D01*
X154662238Y-84685142D01*
X154614619Y-84732761D01*
X154519380Y-84780380D01*
X154424142Y-84780380D01*
X154328904Y-84732761D01*
X154281285Y-84685142D01*
X154233666Y-84589904D01*
X154186047Y-84399428D01*
X154186047Y-84161333D01*
X154233666Y-83970857D01*
X154281285Y-83875619D01*
X154328904Y-83828000D01*
X154424142Y-83780380D01*
X155376523Y-83780380D02*
X155471761Y-83780380D01*
X155567000Y-83828000D01*
X155614619Y-83875619D01*
X155662238Y-83970857D01*
X155709857Y-84161333D01*
X155709857Y-84399428D01*
X155662238Y-84589904D01*
X155614619Y-84685142D01*
X155567000Y-84732761D01*
X155471761Y-84780380D01*
X155376523Y-84780380D01*
X155281285Y-84732761D01*
X155233666Y-84685142D01*
X155186047Y-84589904D01*
X155138428Y-84399428D01*
X155138428Y-84161333D01*
X155186047Y-83970857D01*
X155233666Y-83875619D01*
X155281285Y-83828000D01*
X155376523Y-83780380D01*
X156662238Y-84780380D02*
X156090809Y-84780380D01*
X156376523Y-84780380D02*
X156376523Y-83780380D01*
X156281285Y-83923238D01*
X156186047Y-84018476D01*
X156090809Y-84066095D01*
X157090809Y-84399428D02*
X157852714Y-84399428D01*
X158852714Y-83828000D02*
X158757476Y-83780380D01*
X158614619Y-83780380D01*
X158471761Y-83828000D01*
X158376523Y-83923238D01*
X158328904Y-84018476D01*
X158281285Y-84208952D01*
X158281285Y-84351809D01*
X158328904Y-84542285D01*
X158376523Y-84637523D01*
X158471761Y-84732761D01*
X158614619Y-84780380D01*
X158709857Y-84780380D01*
X158852714Y-84732761D01*
X158900333Y-84685142D01*
X158900333Y-84351809D01*
X158709857Y-84351809D01*
X160520095Y-83891380D02*
X160520095Y-82891380D01*
X161091523Y-83891380D02*
X160662952Y-83319952D01*
X161091523Y-82891380D02*
X160520095Y-83462809D01*
X154065904Y-83764380D02*
X154065904Y-82764380D01*
X154304000Y-82764380D01*
X154446857Y-82812000D01*
X154542095Y-82907238D01*
X154589714Y-83002476D01*
X154637333Y-83192952D01*
X154637333Y-83335809D01*
X154589714Y-83526285D01*
X154542095Y-83621523D01*
X154446857Y-83716761D01*
X154304000Y-83764380D01*
X154065904Y-83764380D01*
X155589714Y-83764380D02*
X155018285Y-83764380D01*
X155304000Y-83764380D02*
X155304000Y-82764380D01*
X155208761Y-82907238D01*
X155113523Y-83002476D01*
X155018285Y-83050095D01*
X157877095Y-91400380D02*
X157686619Y-91400380D01*
X157591380Y-91448000D01*
X157543761Y-91495619D01*
X157448523Y-91638476D01*
X157400904Y-91828952D01*
X157400904Y-92209904D01*
X157448523Y-92305142D01*
X157496142Y-92352761D01*
X157591380Y-92400380D01*
X157781857Y-92400380D01*
X157877095Y-92352761D01*
X157924714Y-92305142D01*
X157972333Y-92209904D01*
X157972333Y-91971809D01*
X157924714Y-91876571D01*
X157877095Y-91828952D01*
X157781857Y-91781333D01*
X157591380Y-91781333D01*
X157496142Y-91828952D01*
X157448523Y-91876571D01*
X157400904Y-91971809D01*
X158400904Y-92400380D02*
X158400904Y-91400380D01*
X158972333Y-92400380D01*
X158972333Y-91400380D01*
X159972333Y-92400380D02*
X159400904Y-92400380D01*
X159686619Y-92400380D02*
X159686619Y-91400380D01*
X159591380Y-91543238D01*
X159496142Y-91638476D01*
X159400904Y-91686095D01*
X160305666Y-91400380D02*
X160924714Y-91400380D01*
X160591380Y-91781333D01*
X160734238Y-91781333D01*
X160829476Y-91828952D01*
X160877095Y-91876571D01*
X160924714Y-91971809D01*
X160924714Y-92209904D01*
X160877095Y-92305142D01*
X160829476Y-92352761D01*
X160734238Y-92400380D01*
X160448523Y-92400380D01*
X160353285Y-92352761D01*
X160305666Y-92305142D01*
X161496142Y-91828952D02*
X161400904Y-91781333D01*
X161353285Y-91733714D01*
X161305666Y-91638476D01*
X161305666Y-91590857D01*
X161353285Y-91495619D01*
X161400904Y-91448000D01*
X161496142Y-91400380D01*
X161686619Y-91400380D01*
X161781857Y-91448000D01*
X161829476Y-91495619D01*
X161877095Y-91590857D01*
X161877095Y-91638476D01*
X161829476Y-91733714D01*
X161781857Y-91781333D01*
X161686619Y-91828952D01*
X161496142Y-91828952D01*
X161400904Y-91876571D01*
X161353285Y-91924190D01*
X161305666Y-92019428D01*
X161305666Y-92209904D01*
X161353285Y-92305142D01*
X161400904Y-92352761D01*
X161496142Y-92400380D01*
X161686619Y-92400380D01*
X161781857Y-92352761D01*
X161829476Y-92305142D01*
X161877095Y-92209904D01*
X161877095Y-92019428D01*
X161829476Y-91924190D01*
X161781857Y-91876571D01*
X161686619Y-91828952D01*
X159004095Y-92924380D02*
X159004095Y-93733904D01*
X159051714Y-93829142D01*
X159099333Y-93876761D01*
X159194571Y-93924380D01*
X159385047Y-93924380D01*
X159480285Y-93876761D01*
X159527904Y-93829142D01*
X159575523Y-93733904D01*
X159575523Y-92924380D01*
X160575523Y-93924380D02*
X160004095Y-93924380D01*
X160289809Y-93924380D02*
X160289809Y-92924380D01*
X160194571Y-93067238D01*
X160099333Y-93162476D01*
X160004095Y-93210095D01*
M02*
