G04 #@! TF.GenerationSoftware,KiCad,Pcbnew,5.1.5-52549c5~84~ubuntu18.04.1*
G04 #@! TF.CreationDate,2020-03-04T13:00:18-05:00*
G04 #@! TF.ProjectId,midi_io,6d696469-5f69-46f2-9e6b-696361645f70,1*
G04 #@! TF.SameCoordinates,Original*
G04 #@! TF.FileFunction,Soldermask,Top*
G04 #@! TF.FilePolarity,Negative*
%FSLAX46Y46*%
G04 Gerber Fmt 4.6, Leading zero omitted, Abs format (unit mm)*
G04 Created by KiCad (PCBNEW 5.1.5-52549c5~84~ubuntu18.04.1) date 2020-03-04 13:00:18*
%MOMM*%
%LPD*%
G04 APERTURE LIST*
%ADD10C,0.100000*%
G04 APERTURE END LIST*
D10*
G36*
X144571215Y-116876621D02*
G01*
X144757899Y-116953948D01*
X144925911Y-117066210D01*
X145068790Y-117209089D01*
X145181052Y-117377101D01*
X145258379Y-117563785D01*
X145297800Y-117761967D01*
X145297800Y-117964033D01*
X145258379Y-118162215D01*
X145181052Y-118348899D01*
X145068790Y-118516911D01*
X144925911Y-118659790D01*
X144757899Y-118772052D01*
X144571215Y-118849379D01*
X144373033Y-118888800D01*
X144170967Y-118888800D01*
X143972785Y-118849379D01*
X143786101Y-118772052D01*
X143618089Y-118659790D01*
X143475210Y-118516911D01*
X143362948Y-118348899D01*
X143285621Y-118162215D01*
X143246200Y-117964033D01*
X143246200Y-117761967D01*
X143285621Y-117563785D01*
X143362948Y-117377101D01*
X143475210Y-117209089D01*
X143618089Y-117066210D01*
X143786101Y-116953948D01*
X143972785Y-116876621D01*
X144170967Y-116837200D01*
X144373033Y-116837200D01*
X144571215Y-116876621D01*
G37*
G36*
X147071215Y-114376621D02*
G01*
X147257899Y-114453948D01*
X147425911Y-114566210D01*
X147568790Y-114709089D01*
X147681052Y-114877101D01*
X147758379Y-115063785D01*
X147797800Y-115261967D01*
X147797800Y-115464033D01*
X147758379Y-115662215D01*
X147681052Y-115848899D01*
X147568790Y-116016911D01*
X147425911Y-116159790D01*
X147257899Y-116272052D01*
X147071215Y-116349379D01*
X146873033Y-116388800D01*
X146670967Y-116388800D01*
X146472785Y-116349379D01*
X146286101Y-116272052D01*
X146118089Y-116159790D01*
X145975210Y-116016911D01*
X145862948Y-115848899D01*
X145785621Y-115662215D01*
X145746200Y-115464033D01*
X145746200Y-115261967D01*
X145785621Y-115063785D01*
X145862948Y-114877101D01*
X145975210Y-114709089D01*
X146118089Y-114566210D01*
X146286101Y-114453948D01*
X146472785Y-114376621D01*
X146670967Y-114337200D01*
X146873033Y-114337200D01*
X147071215Y-114376621D01*
G37*
G36*
X151042857Y-114697117D02*
G01*
X151088465Y-114710952D01*
X151130504Y-114733422D01*
X151167344Y-114763656D01*
X151197578Y-114800496D01*
X151220048Y-114842535D01*
X151233883Y-114888143D01*
X151238800Y-114938065D01*
X151238800Y-115947935D01*
X151233883Y-115997857D01*
X151220048Y-116043465D01*
X151197578Y-116085504D01*
X151167344Y-116122344D01*
X151130504Y-116152578D01*
X151088465Y-116175048D01*
X151042857Y-116188883D01*
X150992935Y-116193800D01*
X150233065Y-116193800D01*
X150183143Y-116188883D01*
X150137535Y-116175048D01*
X150095496Y-116152578D01*
X150058656Y-116122344D01*
X150028422Y-116085504D01*
X150005952Y-116043465D01*
X149992117Y-115997857D01*
X149987200Y-115947935D01*
X149987200Y-114938065D01*
X149992117Y-114888143D01*
X150005952Y-114842535D01*
X150028422Y-114800496D01*
X150058656Y-114763656D01*
X150095496Y-114733422D01*
X150137535Y-114710952D01*
X150183143Y-114697117D01*
X150233065Y-114692200D01*
X150992935Y-114692200D01*
X151042857Y-114697117D01*
G37*
G36*
X153092857Y-114697117D02*
G01*
X153138465Y-114710952D01*
X153180504Y-114733422D01*
X153217344Y-114763656D01*
X153247578Y-114800496D01*
X153270048Y-114842535D01*
X153283883Y-114888143D01*
X153288800Y-114938065D01*
X153288800Y-115947935D01*
X153283883Y-115997857D01*
X153270048Y-116043465D01*
X153247578Y-116085504D01*
X153217344Y-116122344D01*
X153180504Y-116152578D01*
X153138465Y-116175048D01*
X153092857Y-116188883D01*
X153042935Y-116193800D01*
X152283065Y-116193800D01*
X152233143Y-116188883D01*
X152187535Y-116175048D01*
X152145496Y-116152578D01*
X152108656Y-116122344D01*
X152078422Y-116085504D01*
X152055952Y-116043465D01*
X152042117Y-115997857D01*
X152037200Y-115947935D01*
X152037200Y-114938065D01*
X152042117Y-114888143D01*
X152055952Y-114842535D01*
X152078422Y-114800496D01*
X152108656Y-114763656D01*
X152145496Y-114733422D01*
X152187535Y-114710952D01*
X152233143Y-114697117D01*
X152283065Y-114692200D01*
X153042935Y-114692200D01*
X153092857Y-114697117D01*
G37*
G36*
X164600754Y-113306817D02*
G01*
X164764689Y-113374721D01*
X164912227Y-113473303D01*
X165037697Y-113598773D01*
X165136279Y-113746311D01*
X165204183Y-113910246D01*
X165238800Y-114084279D01*
X165238800Y-114261721D01*
X165204183Y-114435754D01*
X165136279Y-114599689D01*
X165037697Y-114747227D01*
X164912227Y-114872697D01*
X164764689Y-114971279D01*
X164600754Y-115039183D01*
X164426721Y-115073800D01*
X164249279Y-115073800D01*
X164075246Y-115039183D01*
X163911311Y-114971279D01*
X163763773Y-114872697D01*
X163638303Y-114747227D01*
X163539721Y-114599689D01*
X163471817Y-114435754D01*
X163437200Y-114261721D01*
X163437200Y-114084279D01*
X163471817Y-113910246D01*
X163539721Y-113746311D01*
X163638303Y-113598773D01*
X163763773Y-113473303D01*
X163911311Y-113374721D01*
X164075246Y-113306817D01*
X164249279Y-113272200D01*
X164426721Y-113272200D01*
X164600754Y-113306817D01*
G37*
G36*
X134571215Y-111876621D02*
G01*
X134757899Y-111953948D01*
X134925911Y-112066210D01*
X135068790Y-112209089D01*
X135181052Y-112377101D01*
X135258379Y-112563785D01*
X135297800Y-112761967D01*
X135297800Y-112964033D01*
X135258379Y-113162215D01*
X135181052Y-113348899D01*
X135068790Y-113516911D01*
X134925911Y-113659790D01*
X134757899Y-113772052D01*
X134571215Y-113849379D01*
X134373033Y-113888800D01*
X134170967Y-113888800D01*
X133972785Y-113849379D01*
X133786101Y-113772052D01*
X133618089Y-113659790D01*
X133475210Y-113516911D01*
X133362948Y-113348899D01*
X133285621Y-113162215D01*
X133246200Y-112964033D01*
X133246200Y-112761967D01*
X133285621Y-112563785D01*
X133362948Y-112377101D01*
X133475210Y-112209089D01*
X133618089Y-112066210D01*
X133786101Y-111953948D01*
X133972785Y-111876621D01*
X134170967Y-111837200D01*
X134373033Y-111837200D01*
X134571215Y-111876621D01*
G37*
G36*
X164600754Y-110766817D02*
G01*
X164764689Y-110834721D01*
X164912227Y-110933303D01*
X165037697Y-111058773D01*
X165136279Y-111206311D01*
X165204183Y-111370246D01*
X165238800Y-111544279D01*
X165238800Y-111721721D01*
X165204183Y-111895754D01*
X165136279Y-112059689D01*
X165037697Y-112207227D01*
X164912227Y-112332697D01*
X164764689Y-112431279D01*
X164600754Y-112499183D01*
X164426721Y-112533800D01*
X164249279Y-112533800D01*
X164075246Y-112499183D01*
X163911311Y-112431279D01*
X163763773Y-112332697D01*
X163638303Y-112207227D01*
X163539721Y-112059689D01*
X163471817Y-111895754D01*
X163437200Y-111721721D01*
X163437200Y-111544279D01*
X163471817Y-111370246D01*
X163539721Y-111206311D01*
X163638303Y-111058773D01*
X163763773Y-110933303D01*
X163911311Y-110834721D01*
X164075246Y-110766817D01*
X164249279Y-110732200D01*
X164426721Y-110732200D01*
X164600754Y-110766817D01*
G37*
G36*
X144571215Y-109376621D02*
G01*
X144757899Y-109453948D01*
X144925911Y-109566210D01*
X145068790Y-109709089D01*
X145181052Y-109877101D01*
X145258379Y-110063785D01*
X145297800Y-110261967D01*
X145297800Y-110464033D01*
X145258379Y-110662215D01*
X145181052Y-110848899D01*
X145068790Y-111016911D01*
X144925911Y-111159790D01*
X144757899Y-111272052D01*
X144571215Y-111349379D01*
X144373033Y-111388800D01*
X144170967Y-111388800D01*
X143972785Y-111349379D01*
X143786101Y-111272052D01*
X143618089Y-111159790D01*
X143475210Y-111016911D01*
X143362948Y-110848899D01*
X143285621Y-110662215D01*
X143246200Y-110464033D01*
X143246200Y-110261967D01*
X143285621Y-110063785D01*
X143362948Y-109877101D01*
X143475210Y-109709089D01*
X143618089Y-109566210D01*
X143786101Y-109453948D01*
X143972785Y-109376621D01*
X144170967Y-109337200D01*
X144373033Y-109337200D01*
X144571215Y-109376621D01*
G37*
G36*
X164600754Y-108226817D02*
G01*
X164764689Y-108294721D01*
X164912227Y-108393303D01*
X165037697Y-108518773D01*
X165136279Y-108666311D01*
X165204183Y-108830246D01*
X165238800Y-109004279D01*
X165238800Y-109181721D01*
X165204183Y-109355754D01*
X165136279Y-109519689D01*
X165037697Y-109667227D01*
X164912227Y-109792697D01*
X164764689Y-109891279D01*
X164600754Y-109959183D01*
X164426721Y-109993800D01*
X164249279Y-109993800D01*
X164075246Y-109959183D01*
X163911311Y-109891279D01*
X163763773Y-109792697D01*
X163638303Y-109667227D01*
X163539721Y-109519689D01*
X163471817Y-109355754D01*
X163437200Y-109181721D01*
X163437200Y-109004279D01*
X163471817Y-108830246D01*
X163539721Y-108666311D01*
X163638303Y-108518773D01*
X163763773Y-108393303D01*
X163911311Y-108294721D01*
X164075246Y-108226817D01*
X164249279Y-108192200D01*
X164426721Y-108192200D01*
X164600754Y-108226817D01*
G37*
G36*
X134571215Y-106876621D02*
G01*
X134757899Y-106953948D01*
X134925911Y-107066210D01*
X135068790Y-107209089D01*
X135181052Y-107377101D01*
X135258379Y-107563785D01*
X135297800Y-107761967D01*
X135297800Y-107964033D01*
X135258379Y-108162215D01*
X135181052Y-108348899D01*
X135068790Y-108516911D01*
X134925911Y-108659790D01*
X134757899Y-108772052D01*
X134571215Y-108849379D01*
X134373033Y-108888800D01*
X134170967Y-108888800D01*
X133972785Y-108849379D01*
X133786101Y-108772052D01*
X133618089Y-108659790D01*
X133475210Y-108516911D01*
X133362948Y-108348899D01*
X133285621Y-108162215D01*
X133246200Y-107964033D01*
X133246200Y-107761967D01*
X133285621Y-107563785D01*
X133362948Y-107377101D01*
X133475210Y-107209089D01*
X133618089Y-107066210D01*
X133786101Y-106953948D01*
X133972785Y-106876621D01*
X134170967Y-106837200D01*
X134373033Y-106837200D01*
X134571215Y-106876621D01*
G37*
G36*
X164600754Y-105686817D02*
G01*
X164764689Y-105754721D01*
X164912227Y-105853303D01*
X165037697Y-105978773D01*
X165136279Y-106126311D01*
X165204183Y-106290246D01*
X165238800Y-106464279D01*
X165238800Y-106641721D01*
X165204183Y-106815754D01*
X165136279Y-106979689D01*
X165037697Y-107127227D01*
X164912227Y-107252697D01*
X164764689Y-107351279D01*
X164600754Y-107419183D01*
X164426721Y-107453800D01*
X164249279Y-107453800D01*
X164075246Y-107419183D01*
X163911311Y-107351279D01*
X163763773Y-107252697D01*
X163638303Y-107127227D01*
X163539721Y-106979689D01*
X163471817Y-106815754D01*
X163437200Y-106641721D01*
X163437200Y-106464279D01*
X163471817Y-106290246D01*
X163539721Y-106126311D01*
X163638303Y-105978773D01*
X163763773Y-105853303D01*
X163911311Y-105754721D01*
X164075246Y-105686817D01*
X164249279Y-105652200D01*
X164426721Y-105652200D01*
X164600754Y-105686817D01*
G37*
G36*
X147071215Y-104376621D02*
G01*
X147257899Y-104453948D01*
X147425911Y-104566210D01*
X147568790Y-104709089D01*
X147681052Y-104877101D01*
X147758379Y-105063785D01*
X147797800Y-105261967D01*
X147797800Y-105464033D01*
X147758379Y-105662215D01*
X147681052Y-105848899D01*
X147568790Y-106016911D01*
X147425911Y-106159790D01*
X147257899Y-106272052D01*
X147071215Y-106349379D01*
X146873033Y-106388800D01*
X146670967Y-106388800D01*
X146472785Y-106349379D01*
X146286101Y-106272052D01*
X146118089Y-106159790D01*
X145975210Y-106016911D01*
X145862948Y-105848899D01*
X145785621Y-105662215D01*
X145746200Y-105464033D01*
X145746200Y-105261967D01*
X145785621Y-105063785D01*
X145862948Y-104877101D01*
X145975210Y-104709089D01*
X146118089Y-104566210D01*
X146286101Y-104453948D01*
X146472785Y-104376621D01*
X146670967Y-104337200D01*
X146873033Y-104337200D01*
X147071215Y-104376621D01*
G37*
G36*
X153092857Y-104537117D02*
G01*
X153138465Y-104550952D01*
X153180504Y-104573422D01*
X153217344Y-104603656D01*
X153247578Y-104640496D01*
X153270048Y-104682535D01*
X153283883Y-104728143D01*
X153288800Y-104778065D01*
X153288800Y-105787935D01*
X153283883Y-105837857D01*
X153270048Y-105883465D01*
X153247578Y-105925504D01*
X153217344Y-105962344D01*
X153180504Y-105992578D01*
X153138465Y-106015048D01*
X153092857Y-106028883D01*
X153042935Y-106033800D01*
X152283065Y-106033800D01*
X152233143Y-106028883D01*
X152187535Y-106015048D01*
X152145496Y-105992578D01*
X152108656Y-105962344D01*
X152078422Y-105925504D01*
X152055952Y-105883465D01*
X152042117Y-105837857D01*
X152037200Y-105787935D01*
X152037200Y-104778065D01*
X152042117Y-104728143D01*
X152055952Y-104682535D01*
X152078422Y-104640496D01*
X152108656Y-104603656D01*
X152145496Y-104573422D01*
X152187535Y-104550952D01*
X152233143Y-104537117D01*
X152283065Y-104532200D01*
X153042935Y-104532200D01*
X153092857Y-104537117D01*
G37*
G36*
X151042857Y-104537117D02*
G01*
X151088465Y-104550952D01*
X151130504Y-104573422D01*
X151167344Y-104603656D01*
X151197578Y-104640496D01*
X151220048Y-104682535D01*
X151233883Y-104728143D01*
X151238800Y-104778065D01*
X151238800Y-105787935D01*
X151233883Y-105837857D01*
X151220048Y-105883465D01*
X151197578Y-105925504D01*
X151167344Y-105962344D01*
X151130504Y-105992578D01*
X151088465Y-106015048D01*
X151042857Y-106028883D01*
X150992935Y-106033800D01*
X150233065Y-106033800D01*
X150183143Y-106028883D01*
X150137535Y-106015048D01*
X150095496Y-105992578D01*
X150058656Y-105962344D01*
X150028422Y-105925504D01*
X150005952Y-105883465D01*
X149992117Y-105837857D01*
X149987200Y-105787935D01*
X149987200Y-104778065D01*
X149992117Y-104728143D01*
X150005952Y-104682535D01*
X150028422Y-104640496D01*
X150058656Y-104603656D01*
X150095496Y-104573422D01*
X150137535Y-104550952D01*
X150183143Y-104537117D01*
X150233065Y-104532200D01*
X150992935Y-104532200D01*
X151042857Y-104537117D01*
G37*
G36*
X144571215Y-101876621D02*
G01*
X144757899Y-101953948D01*
X144925911Y-102066210D01*
X145068790Y-102209089D01*
X145181052Y-102377101D01*
X145258379Y-102563785D01*
X145297800Y-102761967D01*
X145297800Y-102964033D01*
X145258379Y-103162215D01*
X145181052Y-103348899D01*
X145068790Y-103516911D01*
X144925911Y-103659790D01*
X144757899Y-103772052D01*
X144571215Y-103849379D01*
X144373033Y-103888800D01*
X144170967Y-103888800D01*
X143972785Y-103849379D01*
X143786101Y-103772052D01*
X143618089Y-103659790D01*
X143475210Y-103516911D01*
X143362948Y-103348899D01*
X143285621Y-103162215D01*
X143246200Y-102964033D01*
X143246200Y-102761967D01*
X143285621Y-102563785D01*
X143362948Y-102377101D01*
X143475210Y-102209089D01*
X143618089Y-102066210D01*
X143786101Y-101953948D01*
X143972785Y-101876621D01*
X144170967Y-101837200D01*
X144373033Y-101837200D01*
X144571215Y-101876621D01*
G37*
G36*
X162236857Y-99457117D02*
G01*
X162282465Y-99470952D01*
X162324504Y-99493422D01*
X162361344Y-99523656D01*
X162391578Y-99560496D01*
X162414048Y-99602535D01*
X162427883Y-99648143D01*
X162432800Y-99698065D01*
X162432800Y-100707935D01*
X162427883Y-100757857D01*
X162414048Y-100803465D01*
X162391578Y-100845504D01*
X162361344Y-100882344D01*
X162324504Y-100912578D01*
X162282465Y-100935048D01*
X162236857Y-100948883D01*
X162186935Y-100953800D01*
X161427065Y-100953800D01*
X161377143Y-100948883D01*
X161331535Y-100935048D01*
X161289496Y-100912578D01*
X161252656Y-100882344D01*
X161222422Y-100845504D01*
X161199952Y-100803465D01*
X161186117Y-100757857D01*
X161181200Y-100707935D01*
X161181200Y-99698065D01*
X161186117Y-99648143D01*
X161199952Y-99602535D01*
X161222422Y-99560496D01*
X161252656Y-99523656D01*
X161289496Y-99493422D01*
X161331535Y-99470952D01*
X161377143Y-99457117D01*
X161427065Y-99452200D01*
X162186935Y-99452200D01*
X162236857Y-99457117D01*
G37*
G36*
X160186857Y-99457117D02*
G01*
X160232465Y-99470952D01*
X160274504Y-99493422D01*
X160311344Y-99523656D01*
X160341578Y-99560496D01*
X160364048Y-99602535D01*
X160377883Y-99648143D01*
X160382800Y-99698065D01*
X160382800Y-100707935D01*
X160377883Y-100757857D01*
X160364048Y-100803465D01*
X160341578Y-100845504D01*
X160311344Y-100882344D01*
X160274504Y-100912578D01*
X160232465Y-100935048D01*
X160186857Y-100948883D01*
X160136935Y-100953800D01*
X159377065Y-100953800D01*
X159327143Y-100948883D01*
X159281535Y-100935048D01*
X159239496Y-100912578D01*
X159202656Y-100882344D01*
X159172422Y-100845504D01*
X159149952Y-100803465D01*
X159136117Y-100757857D01*
X159131200Y-100707935D01*
X159131200Y-99698065D01*
X159136117Y-99648143D01*
X159149952Y-99602535D01*
X159172422Y-99560496D01*
X159202656Y-99523656D01*
X159239496Y-99493422D01*
X159281535Y-99470952D01*
X159327143Y-99457117D01*
X159377065Y-99452200D01*
X160136935Y-99452200D01*
X160186857Y-99457117D01*
G37*
G36*
X144571215Y-96302621D02*
G01*
X144757899Y-96379948D01*
X144925911Y-96492210D01*
X145068790Y-96635089D01*
X145181052Y-96803101D01*
X145258379Y-96989785D01*
X145297800Y-97187967D01*
X145297800Y-97390033D01*
X145258379Y-97588215D01*
X145181052Y-97774899D01*
X145068790Y-97942911D01*
X144925911Y-98085790D01*
X144757899Y-98198052D01*
X144571215Y-98275379D01*
X144373033Y-98314800D01*
X144170967Y-98314800D01*
X143972785Y-98275379D01*
X143786101Y-98198052D01*
X143618089Y-98085790D01*
X143475210Y-97942911D01*
X143362948Y-97774899D01*
X143285621Y-97588215D01*
X143246200Y-97390033D01*
X143246200Y-97187967D01*
X143285621Y-96989785D01*
X143362948Y-96803101D01*
X143475210Y-96635089D01*
X143618089Y-96492210D01*
X143786101Y-96379948D01*
X143972785Y-96302621D01*
X144170967Y-96263200D01*
X144373033Y-96263200D01*
X144571215Y-96302621D01*
G37*
G36*
X155950169Y-95828895D02*
G01*
X156105005Y-95893031D01*
X156244354Y-95986140D01*
X156362860Y-96104646D01*
X156455969Y-96243995D01*
X156520105Y-96398831D01*
X156552800Y-96563203D01*
X156552800Y-96730797D01*
X156520105Y-96895169D01*
X156455969Y-97050005D01*
X156362860Y-97189354D01*
X156244354Y-97307860D01*
X156105005Y-97400969D01*
X155950169Y-97465105D01*
X155785797Y-97497800D01*
X155618203Y-97497800D01*
X155453831Y-97465105D01*
X155298995Y-97400969D01*
X155159646Y-97307860D01*
X155041140Y-97189354D01*
X154948031Y-97050005D01*
X154883895Y-96895169D01*
X154851200Y-96730797D01*
X154851200Y-96563203D01*
X154883895Y-96398831D01*
X154948031Y-96243995D01*
X155041140Y-96104646D01*
X155159646Y-95986140D01*
X155298995Y-95893031D01*
X155453831Y-95828895D01*
X155618203Y-95796200D01*
X155785797Y-95796200D01*
X155950169Y-95828895D01*
G37*
G36*
X163570169Y-95828895D02*
G01*
X163725005Y-95893031D01*
X163864354Y-95986140D01*
X163982860Y-96104646D01*
X164075969Y-96243995D01*
X164140105Y-96398831D01*
X164172800Y-96563203D01*
X164172800Y-96730797D01*
X164140105Y-96895169D01*
X164075969Y-97050005D01*
X163982860Y-97189354D01*
X163864354Y-97307860D01*
X163725005Y-97400969D01*
X163570169Y-97465105D01*
X163405797Y-97497800D01*
X163238203Y-97497800D01*
X163073831Y-97465105D01*
X162918995Y-97400969D01*
X162779646Y-97307860D01*
X162661140Y-97189354D01*
X162568031Y-97050005D01*
X162503895Y-96895169D01*
X162471200Y-96730797D01*
X162471200Y-96563203D01*
X162503895Y-96398831D01*
X162568031Y-96243995D01*
X162661140Y-96104646D01*
X162779646Y-95986140D01*
X162918995Y-95893031D01*
X163073831Y-95828895D01*
X163238203Y-95796200D01*
X163405797Y-95796200D01*
X163570169Y-95828895D01*
G37*
G36*
X161030169Y-95828895D02*
G01*
X161185005Y-95893031D01*
X161324354Y-95986140D01*
X161442860Y-96104646D01*
X161535969Y-96243995D01*
X161600105Y-96398831D01*
X161632800Y-96563203D01*
X161632800Y-96730797D01*
X161600105Y-96895169D01*
X161535969Y-97050005D01*
X161442860Y-97189354D01*
X161324354Y-97307860D01*
X161185005Y-97400969D01*
X161030169Y-97465105D01*
X160865797Y-97497800D01*
X160698203Y-97497800D01*
X160533831Y-97465105D01*
X160378995Y-97400969D01*
X160239646Y-97307860D01*
X160121140Y-97189354D01*
X160028031Y-97050005D01*
X159963895Y-96895169D01*
X159931200Y-96730797D01*
X159931200Y-96563203D01*
X159963895Y-96398831D01*
X160028031Y-96243995D01*
X160121140Y-96104646D01*
X160239646Y-95986140D01*
X160378995Y-95893031D01*
X160533831Y-95828895D01*
X160698203Y-95796200D01*
X160865797Y-95796200D01*
X161030169Y-95828895D01*
G37*
G36*
X158490169Y-95828895D02*
G01*
X158645005Y-95893031D01*
X158784354Y-95986140D01*
X158902860Y-96104646D01*
X158995969Y-96243995D01*
X159060105Y-96398831D01*
X159092800Y-96563203D01*
X159092800Y-96730797D01*
X159060105Y-96895169D01*
X158995969Y-97050005D01*
X158902860Y-97189354D01*
X158784354Y-97307860D01*
X158645005Y-97400969D01*
X158490169Y-97465105D01*
X158325797Y-97497800D01*
X158158203Y-97497800D01*
X157993831Y-97465105D01*
X157838995Y-97400969D01*
X157699646Y-97307860D01*
X157581140Y-97189354D01*
X157488031Y-97050005D01*
X157423895Y-96895169D01*
X157391200Y-96730797D01*
X157391200Y-96563203D01*
X157423895Y-96398831D01*
X157488031Y-96243995D01*
X157581140Y-96104646D01*
X157699646Y-95986140D01*
X157838995Y-95893031D01*
X157993831Y-95828895D01*
X158158203Y-95796200D01*
X158325797Y-95796200D01*
X158490169Y-95828895D01*
G37*
G36*
X151938857Y-96035117D02*
G01*
X151984465Y-96048952D01*
X152026504Y-96071422D01*
X152063344Y-96101656D01*
X152093578Y-96138496D01*
X152116048Y-96180535D01*
X152129883Y-96226143D01*
X152134800Y-96276065D01*
X152134800Y-97035935D01*
X152129883Y-97085857D01*
X152116048Y-97131465D01*
X152093578Y-97173504D01*
X152063344Y-97210344D01*
X152026504Y-97240578D01*
X151984465Y-97263048D01*
X151938857Y-97276883D01*
X151888935Y-97281800D01*
X150879065Y-97281800D01*
X150829143Y-97276883D01*
X150783535Y-97263048D01*
X150741496Y-97240578D01*
X150704656Y-97210344D01*
X150674422Y-97173504D01*
X150651952Y-97131465D01*
X150638117Y-97085857D01*
X150633200Y-97035935D01*
X150633200Y-96276065D01*
X150638117Y-96226143D01*
X150651952Y-96180535D01*
X150674422Y-96138496D01*
X150704656Y-96101656D01*
X150741496Y-96071422D01*
X150783535Y-96048952D01*
X150829143Y-96035117D01*
X150879065Y-96030200D01*
X151888935Y-96030200D01*
X151938857Y-96035117D01*
G37*
G36*
X147071215Y-93802621D02*
G01*
X147257899Y-93879948D01*
X147425911Y-93992210D01*
X147568790Y-94135089D01*
X147681052Y-94303101D01*
X147758379Y-94489785D01*
X147797800Y-94687967D01*
X147797800Y-94890033D01*
X147758379Y-95088215D01*
X147681052Y-95274899D01*
X147568790Y-95442911D01*
X147425911Y-95585790D01*
X147257899Y-95698052D01*
X147071215Y-95775379D01*
X146873033Y-95814800D01*
X146670967Y-95814800D01*
X146472785Y-95775379D01*
X146286101Y-95698052D01*
X146118089Y-95585790D01*
X145975210Y-95442911D01*
X145862948Y-95274899D01*
X145785621Y-95088215D01*
X145746200Y-94890033D01*
X145746200Y-94687967D01*
X145785621Y-94489785D01*
X145862948Y-94303101D01*
X145975210Y-94135089D01*
X146118089Y-93992210D01*
X146286101Y-93879948D01*
X146472785Y-93802621D01*
X146670967Y-93763200D01*
X146873033Y-93763200D01*
X147071215Y-93802621D01*
G37*
G36*
X151938857Y-93985117D02*
G01*
X151984465Y-93998952D01*
X152026504Y-94021422D01*
X152063344Y-94051656D01*
X152093578Y-94088496D01*
X152116048Y-94130535D01*
X152129883Y-94176143D01*
X152134800Y-94226065D01*
X152134800Y-94985935D01*
X152129883Y-95035857D01*
X152116048Y-95081465D01*
X152093578Y-95123504D01*
X152063344Y-95160344D01*
X152026504Y-95190578D01*
X151984465Y-95213048D01*
X151938857Y-95226883D01*
X151888935Y-95231800D01*
X150879065Y-95231800D01*
X150829143Y-95226883D01*
X150783535Y-95213048D01*
X150741496Y-95190578D01*
X150704656Y-95160344D01*
X150674422Y-95123504D01*
X150651952Y-95081465D01*
X150638117Y-95035857D01*
X150633200Y-94985935D01*
X150633200Y-94226065D01*
X150638117Y-94176143D01*
X150651952Y-94130535D01*
X150674422Y-94088496D01*
X150704656Y-94051656D01*
X150741496Y-94021422D01*
X150783535Y-93998952D01*
X150829143Y-93985117D01*
X150879065Y-93980200D01*
X151888935Y-93980200D01*
X151938857Y-93985117D01*
G37*
G36*
X134571215Y-91302621D02*
G01*
X134757899Y-91379948D01*
X134925911Y-91492210D01*
X135068790Y-91635089D01*
X135181052Y-91803101D01*
X135258379Y-91989785D01*
X135297800Y-92187967D01*
X135297800Y-92390033D01*
X135258379Y-92588215D01*
X135181052Y-92774899D01*
X135068790Y-92942911D01*
X134925911Y-93085790D01*
X134757899Y-93198052D01*
X134571215Y-93275379D01*
X134373033Y-93314800D01*
X134170967Y-93314800D01*
X133972785Y-93275379D01*
X133786101Y-93198052D01*
X133618089Y-93085790D01*
X133475210Y-92942911D01*
X133362948Y-92774899D01*
X133285621Y-92588215D01*
X133246200Y-92390033D01*
X133246200Y-92187967D01*
X133285621Y-91989785D01*
X133362948Y-91803101D01*
X133475210Y-91635089D01*
X133618089Y-91492210D01*
X133786101Y-91379948D01*
X133972785Y-91302621D01*
X134170967Y-91263200D01*
X134373033Y-91263200D01*
X134571215Y-91302621D01*
G37*
G36*
X151938857Y-90447117D02*
G01*
X151984465Y-90460952D01*
X152026504Y-90483422D01*
X152063344Y-90513656D01*
X152093578Y-90550496D01*
X152116048Y-90592535D01*
X152129883Y-90638143D01*
X152134800Y-90688065D01*
X152134800Y-91447935D01*
X152129883Y-91497857D01*
X152116048Y-91543465D01*
X152093578Y-91585504D01*
X152063344Y-91622344D01*
X152026504Y-91652578D01*
X151984465Y-91675048D01*
X151938857Y-91688883D01*
X151888935Y-91693800D01*
X150879065Y-91693800D01*
X150829143Y-91688883D01*
X150783535Y-91675048D01*
X150741496Y-91652578D01*
X150704656Y-91622344D01*
X150674422Y-91585504D01*
X150651952Y-91543465D01*
X150638117Y-91497857D01*
X150633200Y-91447935D01*
X150633200Y-90688065D01*
X150638117Y-90638143D01*
X150651952Y-90592535D01*
X150674422Y-90550496D01*
X150704656Y-90513656D01*
X150741496Y-90483422D01*
X150783535Y-90460952D01*
X150829143Y-90447117D01*
X150879065Y-90442200D01*
X151888935Y-90442200D01*
X151938857Y-90447117D01*
G37*
G36*
X144571215Y-88802621D02*
G01*
X144757899Y-88879948D01*
X144925911Y-88992210D01*
X145068790Y-89135089D01*
X145181052Y-89303101D01*
X145258379Y-89489785D01*
X145297800Y-89687967D01*
X145297800Y-89890033D01*
X145258379Y-90088215D01*
X145181052Y-90274899D01*
X145068790Y-90442911D01*
X144925911Y-90585790D01*
X144757899Y-90698052D01*
X144571215Y-90775379D01*
X144373033Y-90814800D01*
X144170967Y-90814800D01*
X143972785Y-90775379D01*
X143786101Y-90698052D01*
X143618089Y-90585790D01*
X143475210Y-90442911D01*
X143362948Y-90274899D01*
X143285621Y-90088215D01*
X143246200Y-89890033D01*
X143246200Y-89687967D01*
X143285621Y-89489785D01*
X143362948Y-89303101D01*
X143475210Y-89135089D01*
X143618089Y-88992210D01*
X143786101Y-88879948D01*
X143972785Y-88802621D01*
X144170967Y-88763200D01*
X144373033Y-88763200D01*
X144571215Y-88802621D01*
G37*
G36*
X155950169Y-88208895D02*
G01*
X156105005Y-88273031D01*
X156244354Y-88366140D01*
X156362860Y-88484646D01*
X156455969Y-88623995D01*
X156520105Y-88778831D01*
X156552800Y-88943203D01*
X156552800Y-89110797D01*
X156520105Y-89275169D01*
X156455969Y-89430005D01*
X156362860Y-89569354D01*
X156244354Y-89687860D01*
X156105005Y-89780969D01*
X155950169Y-89845105D01*
X155785797Y-89877800D01*
X155618203Y-89877800D01*
X155453831Y-89845105D01*
X155298995Y-89780969D01*
X155159646Y-89687860D01*
X155041140Y-89569354D01*
X154948031Y-89430005D01*
X154883895Y-89275169D01*
X154851200Y-89110797D01*
X154851200Y-88943203D01*
X154883895Y-88778831D01*
X154948031Y-88623995D01*
X155041140Y-88484646D01*
X155159646Y-88366140D01*
X155298995Y-88273031D01*
X155453831Y-88208895D01*
X155618203Y-88176200D01*
X155785797Y-88176200D01*
X155950169Y-88208895D01*
G37*
G36*
X161030169Y-88208895D02*
G01*
X161185005Y-88273031D01*
X161324354Y-88366140D01*
X161442860Y-88484646D01*
X161535969Y-88623995D01*
X161600105Y-88778831D01*
X161632800Y-88943203D01*
X161632800Y-89110797D01*
X161600105Y-89275169D01*
X161535969Y-89430005D01*
X161442860Y-89569354D01*
X161324354Y-89687860D01*
X161185005Y-89780969D01*
X161030169Y-89845105D01*
X160865797Y-89877800D01*
X160698203Y-89877800D01*
X160533831Y-89845105D01*
X160378995Y-89780969D01*
X160239646Y-89687860D01*
X160121140Y-89569354D01*
X160028031Y-89430005D01*
X159963895Y-89275169D01*
X159931200Y-89110797D01*
X159931200Y-88943203D01*
X159963895Y-88778831D01*
X160028031Y-88623995D01*
X160121140Y-88484646D01*
X160239646Y-88366140D01*
X160378995Y-88273031D01*
X160533831Y-88208895D01*
X160698203Y-88176200D01*
X160865797Y-88176200D01*
X161030169Y-88208895D01*
G37*
G36*
X158490169Y-88208895D02*
G01*
X158645005Y-88273031D01*
X158784354Y-88366140D01*
X158902860Y-88484646D01*
X158995969Y-88623995D01*
X159060105Y-88778831D01*
X159092800Y-88943203D01*
X159092800Y-89110797D01*
X159060105Y-89275169D01*
X158995969Y-89430005D01*
X158902860Y-89569354D01*
X158784354Y-89687860D01*
X158645005Y-89780969D01*
X158490169Y-89845105D01*
X158325797Y-89877800D01*
X158158203Y-89877800D01*
X157993831Y-89845105D01*
X157838995Y-89780969D01*
X157699646Y-89687860D01*
X157581140Y-89569354D01*
X157488031Y-89430005D01*
X157423895Y-89275169D01*
X157391200Y-89110797D01*
X157391200Y-88943203D01*
X157423895Y-88778831D01*
X157488031Y-88623995D01*
X157581140Y-88484646D01*
X157699646Y-88366140D01*
X157838995Y-88273031D01*
X157993831Y-88208895D01*
X158158203Y-88176200D01*
X158325797Y-88176200D01*
X158490169Y-88208895D01*
G37*
G36*
X164172800Y-89877800D02*
G01*
X162471200Y-89877800D01*
X162471200Y-88176200D01*
X164172800Y-88176200D01*
X164172800Y-89877800D01*
G37*
G36*
X151938857Y-88397117D02*
G01*
X151984465Y-88410952D01*
X152026504Y-88433422D01*
X152063344Y-88463656D01*
X152093578Y-88500496D01*
X152116048Y-88542535D01*
X152129883Y-88588143D01*
X152134800Y-88638065D01*
X152134800Y-89397935D01*
X152129883Y-89447857D01*
X152116048Y-89493465D01*
X152093578Y-89535504D01*
X152063344Y-89572344D01*
X152026504Y-89602578D01*
X151984465Y-89625048D01*
X151938857Y-89638883D01*
X151888935Y-89643800D01*
X150879065Y-89643800D01*
X150829143Y-89638883D01*
X150783535Y-89625048D01*
X150741496Y-89602578D01*
X150704656Y-89572344D01*
X150674422Y-89535504D01*
X150651952Y-89493465D01*
X150638117Y-89447857D01*
X150633200Y-89397935D01*
X150633200Y-88638065D01*
X150638117Y-88588143D01*
X150651952Y-88542535D01*
X150674422Y-88500496D01*
X150704656Y-88463656D01*
X150741496Y-88433422D01*
X150783535Y-88410952D01*
X150829143Y-88397117D01*
X150879065Y-88392200D01*
X151888935Y-88392200D01*
X151938857Y-88397117D01*
G37*
G36*
X134571215Y-86302621D02*
G01*
X134757899Y-86379948D01*
X134925911Y-86492210D01*
X135068790Y-86635089D01*
X135181052Y-86803101D01*
X135258379Y-86989785D01*
X135297800Y-87187967D01*
X135297800Y-87390033D01*
X135258379Y-87588215D01*
X135181052Y-87774899D01*
X135068790Y-87942911D01*
X134925911Y-88085790D01*
X134757899Y-88198052D01*
X134571215Y-88275379D01*
X134373033Y-88314800D01*
X134170967Y-88314800D01*
X133972785Y-88275379D01*
X133786101Y-88198052D01*
X133618089Y-88085790D01*
X133475210Y-87942911D01*
X133362948Y-87774899D01*
X133285621Y-87588215D01*
X133246200Y-87390033D01*
X133246200Y-87187967D01*
X133285621Y-86989785D01*
X133362948Y-86803101D01*
X133475210Y-86635089D01*
X133618089Y-86492210D01*
X133786101Y-86379948D01*
X133972785Y-86302621D01*
X134170967Y-86263200D01*
X134373033Y-86263200D01*
X134571215Y-86302621D01*
G37*
G36*
X147071215Y-83802621D02*
G01*
X147257899Y-83879948D01*
X147425911Y-83992210D01*
X147568790Y-84135089D01*
X147681052Y-84303101D01*
X147758379Y-84489785D01*
X147797800Y-84687967D01*
X147797800Y-84890033D01*
X147758379Y-85088215D01*
X147681052Y-85274899D01*
X147568790Y-85442911D01*
X147425911Y-85585790D01*
X147257899Y-85698052D01*
X147071215Y-85775379D01*
X146873033Y-85814800D01*
X146670967Y-85814800D01*
X146472785Y-85775379D01*
X146286101Y-85698052D01*
X146118089Y-85585790D01*
X145975210Y-85442911D01*
X145862948Y-85274899D01*
X145785621Y-85088215D01*
X145746200Y-84890033D01*
X145746200Y-84687967D01*
X145785621Y-84489785D01*
X145862948Y-84303101D01*
X145975210Y-84135089D01*
X146118089Y-83992210D01*
X146286101Y-83879948D01*
X146472785Y-83802621D01*
X146670967Y-83763200D01*
X146873033Y-83763200D01*
X147071215Y-83802621D01*
G37*
G36*
X151719676Y-82332425D02*
G01*
X151929109Y-82419174D01*
X152117594Y-82545116D01*
X152277884Y-82705406D01*
X152403826Y-82893891D01*
X152490575Y-83103324D01*
X152534800Y-83325656D01*
X152534800Y-83552344D01*
X152490575Y-83774676D01*
X152403826Y-83984109D01*
X152277884Y-84172594D01*
X152117594Y-84332884D01*
X151929109Y-84458826D01*
X151719676Y-84545575D01*
X151497344Y-84589800D01*
X151270656Y-84589800D01*
X151048324Y-84545575D01*
X150838891Y-84458826D01*
X150650406Y-84332884D01*
X150490116Y-84172594D01*
X150364174Y-83984109D01*
X150277425Y-83774676D01*
X150233200Y-83552344D01*
X150233200Y-83325656D01*
X150277425Y-83103324D01*
X150364174Y-82893891D01*
X150490116Y-82705406D01*
X150650406Y-82545116D01*
X150838891Y-82419174D01*
X151048324Y-82332425D01*
X151270656Y-82288200D01*
X151497344Y-82288200D01*
X151719676Y-82332425D01*
G37*
G36*
X160154800Y-84589800D02*
G01*
X157853200Y-84589800D01*
X157853200Y-82288200D01*
X160154800Y-82288200D01*
X160154800Y-84589800D01*
G37*
G36*
X144571215Y-81302621D02*
G01*
X144757899Y-81379948D01*
X144925911Y-81492210D01*
X145068790Y-81635089D01*
X145181052Y-81803101D01*
X145258379Y-81989785D01*
X145297800Y-82187967D01*
X145297800Y-82390033D01*
X145258379Y-82588215D01*
X145181052Y-82774899D01*
X145068790Y-82942911D01*
X144925911Y-83085790D01*
X144757899Y-83198052D01*
X144571215Y-83275379D01*
X144373033Y-83314800D01*
X144170967Y-83314800D01*
X143972785Y-83275379D01*
X143786101Y-83198052D01*
X143618089Y-83085790D01*
X143475210Y-82942911D01*
X143362948Y-82774899D01*
X143285621Y-82588215D01*
X143246200Y-82390033D01*
X143246200Y-82187967D01*
X143285621Y-81989785D01*
X143362948Y-81803101D01*
X143475210Y-81635089D01*
X143618089Y-81492210D01*
X143786101Y-81379948D01*
X143972785Y-81302621D01*
X144170967Y-81263200D01*
X144373033Y-81263200D01*
X144571215Y-81302621D01*
G37*
M02*
