G04 #@! TF.GenerationSoftware,KiCad,Pcbnew,5.1.5-52549c5~84~ubuntu18.04.1*
G04 #@! TF.CreationDate,2020-03-03T16:32:57-05:00*
G04 #@! TF.ProjectId,midi_io,6d696469-5f69-46f2-9e6b-696361645f70,1*
G04 #@! TF.SameCoordinates,Original*
G04 #@! TF.FileFunction,Copper,L2,Bot*
G04 #@! TF.FilePolarity,Positive*
%FSLAX46Y46*%
G04 Gerber Fmt 4.6, Leading zero omitted, Abs format (unit mm)*
G04 Created by KiCad (PCBNEW 5.1.5-52549c5~84~ubuntu18.04.1) date 2020-03-03 16:32:57*
%MOMM*%
%LPD*%
G04 APERTURE LIST*
%ADD10O,1.700000X1.700000*%
%ADD11C,1.700000*%
%ADD12C,1.950000*%
%ADD13O,2.200000X2.200000*%
%ADD14R,2.200000X2.200000*%
%ADD15O,1.600000X1.600000*%
%ADD16R,1.600000X1.600000*%
%ADD17C,0.660400*%
%ADD18C,0.254000*%
%ADD19C,0.508000*%
G04 APERTURE END LIST*
D10*
X164338000Y-114173000D03*
X164338000Y-111633000D03*
X164338000Y-109093000D03*
D11*
X164338000Y-106553000D03*
D12*
X134272000Y-92289000D03*
X134272000Y-87289000D03*
X144272000Y-82289000D03*
X146772000Y-84789000D03*
X144272000Y-97289000D03*
X146772000Y-94789000D03*
X144272000Y-89789000D03*
X134272000Y-112863000D03*
X134272000Y-107863000D03*
X144272000Y-102863000D03*
X146772000Y-105363000D03*
X144272000Y-117863000D03*
X146772000Y-115363000D03*
X144272000Y-110363000D03*
D13*
X151384000Y-83439000D03*
D14*
X159004000Y-83439000D03*
D15*
X163322000Y-96647000D03*
X155702000Y-89027000D03*
X160782000Y-96647000D03*
X158242000Y-89027000D03*
X158242000Y-96647000D03*
X160782000Y-89027000D03*
X155702000Y-96647000D03*
D16*
X163322000Y-89027000D03*
D17*
X161798000Y-102743000D03*
X156210000Y-113919000D03*
D18*
X152368366Y-85979000D02*
X156718000Y-85979000D01*
X158242000Y-87503000D02*
X158242000Y-89027000D01*
X156718000Y-85979000D02*
X158242000Y-87503000D01*
X151384000Y-83439000D02*
X151384000Y-84994634D01*
X151384000Y-84994634D02*
X152368366Y-85979000D01*
D19*
X164338000Y-106553000D02*
X161798000Y-106553000D01*
D18*
X161798000Y-106553000D02*
X161797994Y-106552994D01*
X161798000Y-106553000D02*
X161798000Y-102743000D01*
D19*
X156210000Y-109093000D02*
X156210000Y-113919000D01*
X161798000Y-106553000D02*
X158750000Y-106553000D01*
X158750000Y-106553000D02*
X156210000Y-109093000D01*
D18*
G36*
X166168000Y-120067000D02*
G01*
X132028000Y-120067000D01*
X132028000Y-117704429D01*
X142662000Y-117704429D01*
X142662000Y-118021571D01*
X142723871Y-118332620D01*
X142845237Y-118625621D01*
X143021431Y-118889315D01*
X143245685Y-119113569D01*
X143509379Y-119289763D01*
X143802380Y-119411129D01*
X144113429Y-119473000D01*
X144430571Y-119473000D01*
X144741620Y-119411129D01*
X145034621Y-119289763D01*
X145298315Y-119113569D01*
X145522569Y-118889315D01*
X145698763Y-118625621D01*
X145820129Y-118332620D01*
X145882000Y-118021571D01*
X145882000Y-117704429D01*
X145820129Y-117393380D01*
X145698763Y-117100379D01*
X145522569Y-116836685D01*
X145298315Y-116612431D01*
X145034621Y-116436237D01*
X144741620Y-116314871D01*
X144430571Y-116253000D01*
X144113429Y-116253000D01*
X143802380Y-116314871D01*
X143509379Y-116436237D01*
X143245685Y-116612431D01*
X143021431Y-116836685D01*
X142845237Y-117100379D01*
X142723871Y-117393380D01*
X142662000Y-117704429D01*
X132028000Y-117704429D01*
X132028000Y-115204429D01*
X145162000Y-115204429D01*
X145162000Y-115521571D01*
X145223871Y-115832620D01*
X145345237Y-116125621D01*
X145521431Y-116389315D01*
X145745685Y-116613569D01*
X146009379Y-116789763D01*
X146302380Y-116911129D01*
X146613429Y-116973000D01*
X146930571Y-116973000D01*
X147241620Y-116911129D01*
X147534621Y-116789763D01*
X147798315Y-116613569D01*
X148022569Y-116389315D01*
X148198763Y-116125621D01*
X148320129Y-115832620D01*
X148382000Y-115521571D01*
X148382000Y-115204429D01*
X148320129Y-114893380D01*
X148198763Y-114600379D01*
X148022569Y-114336685D01*
X147798315Y-114112431D01*
X147534621Y-113936237D01*
X147263505Y-113823936D01*
X155244800Y-113823936D01*
X155244800Y-114014064D01*
X155281892Y-114200538D01*
X155354651Y-114376194D01*
X155460280Y-114534279D01*
X155594721Y-114668720D01*
X155752806Y-114774349D01*
X155928462Y-114847108D01*
X156114936Y-114884200D01*
X156305064Y-114884200D01*
X156491538Y-114847108D01*
X156667194Y-114774349D01*
X156825279Y-114668720D01*
X156959720Y-114534279D01*
X157065349Y-114376194D01*
X157138108Y-114200538D01*
X157175200Y-114014064D01*
X157175200Y-113823936D01*
X157138108Y-113637462D01*
X157099000Y-113543047D01*
X157099000Y-111486740D01*
X162853000Y-111486740D01*
X162853000Y-111779260D01*
X162910068Y-112066158D01*
X163022010Y-112336411D01*
X163184525Y-112579632D01*
X163391368Y-112786475D01*
X163565760Y-112903000D01*
X163391368Y-113019525D01*
X163184525Y-113226368D01*
X163022010Y-113469589D01*
X162910068Y-113739842D01*
X162853000Y-114026740D01*
X162853000Y-114319260D01*
X162910068Y-114606158D01*
X163022010Y-114876411D01*
X163184525Y-115119632D01*
X163391368Y-115326475D01*
X163634589Y-115488990D01*
X163904842Y-115600932D01*
X164191740Y-115658000D01*
X164484260Y-115658000D01*
X164771158Y-115600932D01*
X165041411Y-115488990D01*
X165284632Y-115326475D01*
X165491475Y-115119632D01*
X165653990Y-114876411D01*
X165765932Y-114606158D01*
X165823000Y-114319260D01*
X165823000Y-114026740D01*
X165765932Y-113739842D01*
X165653990Y-113469589D01*
X165491475Y-113226368D01*
X165284632Y-113019525D01*
X165110240Y-112903000D01*
X165284632Y-112786475D01*
X165491475Y-112579632D01*
X165653990Y-112336411D01*
X165765932Y-112066158D01*
X165823000Y-111779260D01*
X165823000Y-111486740D01*
X165765932Y-111199842D01*
X165653990Y-110929589D01*
X165491475Y-110686368D01*
X165284632Y-110479525D01*
X165102466Y-110357805D01*
X165219355Y-110288178D01*
X165435588Y-110093269D01*
X165609641Y-109859920D01*
X165734825Y-109597099D01*
X165779476Y-109449890D01*
X165658155Y-109220000D01*
X164465000Y-109220000D01*
X164465000Y-109240000D01*
X164211000Y-109240000D01*
X164211000Y-109220000D01*
X163017845Y-109220000D01*
X162896524Y-109449890D01*
X162941175Y-109597099D01*
X163066359Y-109859920D01*
X163240412Y-110093269D01*
X163456645Y-110288178D01*
X163573534Y-110357805D01*
X163391368Y-110479525D01*
X163184525Y-110686368D01*
X163022010Y-110929589D01*
X162910068Y-111199842D01*
X162853000Y-111486740D01*
X157099000Y-111486740D01*
X157099000Y-109461235D01*
X159118236Y-107442000D01*
X163146017Y-107442000D01*
X163184525Y-107499632D01*
X163391368Y-107706475D01*
X163573534Y-107828195D01*
X163456645Y-107897822D01*
X163240412Y-108092731D01*
X163066359Y-108326080D01*
X162941175Y-108588901D01*
X162896524Y-108736110D01*
X163017845Y-108966000D01*
X164211000Y-108966000D01*
X164211000Y-108946000D01*
X164465000Y-108946000D01*
X164465000Y-108966000D01*
X165658155Y-108966000D01*
X165779476Y-108736110D01*
X165734825Y-108588901D01*
X165609641Y-108326080D01*
X165435588Y-108092731D01*
X165219355Y-107897822D01*
X165102466Y-107828195D01*
X165284632Y-107706475D01*
X165491475Y-107499632D01*
X165653990Y-107256411D01*
X165765932Y-106986158D01*
X165823000Y-106699260D01*
X165823000Y-106406740D01*
X165765932Y-106119842D01*
X165653990Y-105849589D01*
X165491475Y-105606368D01*
X165284632Y-105399525D01*
X165041411Y-105237010D01*
X164771158Y-105125068D01*
X164484260Y-105068000D01*
X164191740Y-105068000D01*
X163904842Y-105125068D01*
X163634589Y-105237010D01*
X163391368Y-105399525D01*
X163184525Y-105606368D01*
X163146017Y-105664000D01*
X162560000Y-105664000D01*
X162560000Y-103339901D01*
X162653349Y-103200194D01*
X162726108Y-103024538D01*
X162763200Y-102838064D01*
X162763200Y-102647936D01*
X162726108Y-102461462D01*
X162653349Y-102285806D01*
X162547720Y-102127721D01*
X162413279Y-101993280D01*
X162255194Y-101887651D01*
X162079538Y-101814892D01*
X161893064Y-101777800D01*
X161702936Y-101777800D01*
X161516462Y-101814892D01*
X161340806Y-101887651D01*
X161182721Y-101993280D01*
X161048280Y-102127721D01*
X160942651Y-102285806D01*
X160869892Y-102461462D01*
X160832800Y-102647936D01*
X160832800Y-102838064D01*
X160869892Y-103024538D01*
X160942651Y-103200194D01*
X161036001Y-103339902D01*
X161036000Y-105664000D01*
X158793659Y-105664000D01*
X158749999Y-105659700D01*
X158706339Y-105664000D01*
X158706333Y-105664000D01*
X158608924Y-105673594D01*
X158575724Y-105676864D01*
X158474058Y-105707704D01*
X158408149Y-105727697D01*
X158253709Y-105810247D01*
X158118341Y-105921341D01*
X158090506Y-105955258D01*
X155612264Y-108433501D01*
X155578341Y-108461341D01*
X155467247Y-108596710D01*
X155384697Y-108751150D01*
X155333864Y-108918727D01*
X155321000Y-109049334D01*
X155321000Y-109049340D01*
X155316700Y-109093000D01*
X155321000Y-109136660D01*
X155321001Y-113543045D01*
X155281892Y-113637462D01*
X155244800Y-113823936D01*
X147263505Y-113823936D01*
X147241620Y-113814871D01*
X146930571Y-113753000D01*
X146613429Y-113753000D01*
X146302380Y-113814871D01*
X146009379Y-113936237D01*
X145745685Y-114112431D01*
X145521431Y-114336685D01*
X145345237Y-114600379D01*
X145223871Y-114893380D01*
X145162000Y-115204429D01*
X132028000Y-115204429D01*
X132028000Y-112704429D01*
X132662000Y-112704429D01*
X132662000Y-113021571D01*
X132723871Y-113332620D01*
X132845237Y-113625621D01*
X133021431Y-113889315D01*
X133245685Y-114113569D01*
X133509379Y-114289763D01*
X133802380Y-114411129D01*
X134113429Y-114473000D01*
X134430571Y-114473000D01*
X134741620Y-114411129D01*
X135034621Y-114289763D01*
X135298315Y-114113569D01*
X135522569Y-113889315D01*
X135698763Y-113625621D01*
X135820129Y-113332620D01*
X135882000Y-113021571D01*
X135882000Y-112704429D01*
X135820129Y-112393380D01*
X135698763Y-112100379D01*
X135522569Y-111836685D01*
X135298315Y-111612431D01*
X135100992Y-111480584D01*
X143334021Y-111480584D01*
X143426766Y-111742429D01*
X143712120Y-111880820D01*
X144018990Y-111960883D01*
X144335584Y-111979540D01*
X144649733Y-111936074D01*
X144949367Y-111832156D01*
X145117234Y-111742429D01*
X145209979Y-111480584D01*
X144272000Y-110542605D01*
X143334021Y-111480584D01*
X135100992Y-111480584D01*
X135034621Y-111436237D01*
X134741620Y-111314871D01*
X134430571Y-111253000D01*
X134113429Y-111253000D01*
X133802380Y-111314871D01*
X133509379Y-111436237D01*
X133245685Y-111612431D01*
X133021431Y-111836685D01*
X132845237Y-112100379D01*
X132723871Y-112393380D01*
X132662000Y-112704429D01*
X132028000Y-112704429D01*
X132028000Y-110426584D01*
X142655460Y-110426584D01*
X142698926Y-110740733D01*
X142802844Y-111040367D01*
X142892571Y-111208234D01*
X143154416Y-111300979D01*
X144092395Y-110363000D01*
X144451605Y-110363000D01*
X145389584Y-111300979D01*
X145651429Y-111208234D01*
X145789820Y-110922880D01*
X145869883Y-110616010D01*
X145888540Y-110299416D01*
X145845074Y-109985267D01*
X145741156Y-109685633D01*
X145651429Y-109517766D01*
X145389584Y-109425021D01*
X144451605Y-110363000D01*
X144092395Y-110363000D01*
X143154416Y-109425021D01*
X142892571Y-109517766D01*
X142754180Y-109803120D01*
X142674117Y-110109990D01*
X142655460Y-110426584D01*
X132028000Y-110426584D01*
X132028000Y-107704429D01*
X132662000Y-107704429D01*
X132662000Y-108021571D01*
X132723871Y-108332620D01*
X132845237Y-108625621D01*
X133021431Y-108889315D01*
X133245685Y-109113569D01*
X133509379Y-109289763D01*
X133802380Y-109411129D01*
X134113429Y-109473000D01*
X134430571Y-109473000D01*
X134741620Y-109411129D01*
X135034621Y-109289763D01*
X135100991Y-109245416D01*
X143334021Y-109245416D01*
X144272000Y-110183395D01*
X145209979Y-109245416D01*
X145117234Y-108983571D01*
X144831880Y-108845180D01*
X144525010Y-108765117D01*
X144208416Y-108746460D01*
X143894267Y-108789926D01*
X143594633Y-108893844D01*
X143426766Y-108983571D01*
X143334021Y-109245416D01*
X135100991Y-109245416D01*
X135298315Y-109113569D01*
X135522569Y-108889315D01*
X135698763Y-108625621D01*
X135820129Y-108332620D01*
X135882000Y-108021571D01*
X135882000Y-107704429D01*
X135820129Y-107393380D01*
X135698763Y-107100379D01*
X135522569Y-106836685D01*
X135298315Y-106612431D01*
X135034621Y-106436237D01*
X134741620Y-106314871D01*
X134430571Y-106253000D01*
X134113429Y-106253000D01*
X133802380Y-106314871D01*
X133509379Y-106436237D01*
X133245685Y-106612431D01*
X133021431Y-106836685D01*
X132845237Y-107100379D01*
X132723871Y-107393380D01*
X132662000Y-107704429D01*
X132028000Y-107704429D01*
X132028000Y-105204429D01*
X145162000Y-105204429D01*
X145162000Y-105521571D01*
X145223871Y-105832620D01*
X145345237Y-106125621D01*
X145521431Y-106389315D01*
X145745685Y-106613569D01*
X146009379Y-106789763D01*
X146302380Y-106911129D01*
X146613429Y-106973000D01*
X146930571Y-106973000D01*
X147241620Y-106911129D01*
X147534621Y-106789763D01*
X147798315Y-106613569D01*
X148022569Y-106389315D01*
X148198763Y-106125621D01*
X148320129Y-105832620D01*
X148382000Y-105521571D01*
X148382000Y-105204429D01*
X148320129Y-104893380D01*
X148198763Y-104600379D01*
X148022569Y-104336685D01*
X147798315Y-104112431D01*
X147534621Y-103936237D01*
X147241620Y-103814871D01*
X146930571Y-103753000D01*
X146613429Y-103753000D01*
X146302380Y-103814871D01*
X146009379Y-103936237D01*
X145745685Y-104112431D01*
X145521431Y-104336685D01*
X145345237Y-104600379D01*
X145223871Y-104893380D01*
X145162000Y-105204429D01*
X132028000Y-105204429D01*
X132028000Y-102704429D01*
X142662000Y-102704429D01*
X142662000Y-103021571D01*
X142723871Y-103332620D01*
X142845237Y-103625621D01*
X143021431Y-103889315D01*
X143245685Y-104113569D01*
X143509379Y-104289763D01*
X143802380Y-104411129D01*
X144113429Y-104473000D01*
X144430571Y-104473000D01*
X144741620Y-104411129D01*
X145034621Y-104289763D01*
X145298315Y-104113569D01*
X145522569Y-103889315D01*
X145698763Y-103625621D01*
X145820129Y-103332620D01*
X145882000Y-103021571D01*
X145882000Y-102704429D01*
X145820129Y-102393380D01*
X145698763Y-102100379D01*
X145522569Y-101836685D01*
X145298315Y-101612431D01*
X145034621Y-101436237D01*
X144741620Y-101314871D01*
X144430571Y-101253000D01*
X144113429Y-101253000D01*
X143802380Y-101314871D01*
X143509379Y-101436237D01*
X143245685Y-101612431D01*
X143021431Y-101836685D01*
X142845237Y-102100379D01*
X142723871Y-102393380D01*
X142662000Y-102704429D01*
X132028000Y-102704429D01*
X132028000Y-97130429D01*
X142662000Y-97130429D01*
X142662000Y-97447571D01*
X142723871Y-97758620D01*
X142845237Y-98051621D01*
X143021431Y-98315315D01*
X143245685Y-98539569D01*
X143509379Y-98715763D01*
X143802380Y-98837129D01*
X144113429Y-98899000D01*
X144430571Y-98899000D01*
X144741620Y-98837129D01*
X145034621Y-98715763D01*
X145298315Y-98539569D01*
X145522569Y-98315315D01*
X145698763Y-98051621D01*
X145820129Y-97758620D01*
X145882000Y-97447571D01*
X145882000Y-97130429D01*
X145855269Y-96996040D01*
X154310091Y-96996040D01*
X154404930Y-97260881D01*
X154549615Y-97502131D01*
X154738586Y-97710519D01*
X154964580Y-97878037D01*
X155218913Y-97998246D01*
X155352961Y-98038904D01*
X155575000Y-97916915D01*
X155575000Y-96774000D01*
X154431376Y-96774000D01*
X154310091Y-96996040D01*
X145855269Y-96996040D01*
X145820129Y-96819380D01*
X145698763Y-96526379D01*
X145522569Y-96262685D01*
X145298315Y-96038431D01*
X145034621Y-95862237D01*
X144741620Y-95740871D01*
X144430571Y-95679000D01*
X144113429Y-95679000D01*
X143802380Y-95740871D01*
X143509379Y-95862237D01*
X143245685Y-96038431D01*
X143021431Y-96262685D01*
X142845237Y-96526379D01*
X142723871Y-96819380D01*
X142662000Y-97130429D01*
X132028000Y-97130429D01*
X132028000Y-94630429D01*
X145162000Y-94630429D01*
X145162000Y-94947571D01*
X145223871Y-95258620D01*
X145345237Y-95551621D01*
X145521431Y-95815315D01*
X145745685Y-96039569D01*
X146009379Y-96215763D01*
X146302380Y-96337129D01*
X146613429Y-96399000D01*
X146930571Y-96399000D01*
X147241620Y-96337129D01*
X147336181Y-96297960D01*
X154310091Y-96297960D01*
X154431376Y-96520000D01*
X155575000Y-96520000D01*
X155575000Y-95377085D01*
X155829000Y-95377085D01*
X155829000Y-96520000D01*
X155849000Y-96520000D01*
X155849000Y-96774000D01*
X155829000Y-96774000D01*
X155829000Y-97916915D01*
X156051039Y-98038904D01*
X156185087Y-97998246D01*
X156439420Y-97878037D01*
X156665414Y-97710519D01*
X156854385Y-97502131D01*
X156965933Y-97316135D01*
X156970320Y-97326727D01*
X157127363Y-97561759D01*
X157327241Y-97761637D01*
X157562273Y-97918680D01*
X157823426Y-98026853D01*
X158100665Y-98082000D01*
X158383335Y-98082000D01*
X158660574Y-98026853D01*
X158921727Y-97918680D01*
X159156759Y-97761637D01*
X159356637Y-97561759D01*
X159512000Y-97329241D01*
X159667363Y-97561759D01*
X159867241Y-97761637D01*
X160102273Y-97918680D01*
X160363426Y-98026853D01*
X160640665Y-98082000D01*
X160923335Y-98082000D01*
X161200574Y-98026853D01*
X161461727Y-97918680D01*
X161696759Y-97761637D01*
X161896637Y-97561759D01*
X162052000Y-97329241D01*
X162207363Y-97561759D01*
X162407241Y-97761637D01*
X162642273Y-97918680D01*
X162903426Y-98026853D01*
X163180665Y-98082000D01*
X163463335Y-98082000D01*
X163740574Y-98026853D01*
X164001727Y-97918680D01*
X164236759Y-97761637D01*
X164436637Y-97561759D01*
X164593680Y-97326727D01*
X164701853Y-97065574D01*
X164757000Y-96788335D01*
X164757000Y-96505665D01*
X164701853Y-96228426D01*
X164593680Y-95967273D01*
X164436637Y-95732241D01*
X164236759Y-95532363D01*
X164001727Y-95375320D01*
X163740574Y-95267147D01*
X163463335Y-95212000D01*
X163180665Y-95212000D01*
X162903426Y-95267147D01*
X162642273Y-95375320D01*
X162407241Y-95532363D01*
X162207363Y-95732241D01*
X162052000Y-95964759D01*
X161896637Y-95732241D01*
X161696759Y-95532363D01*
X161461727Y-95375320D01*
X161200574Y-95267147D01*
X160923335Y-95212000D01*
X160640665Y-95212000D01*
X160363426Y-95267147D01*
X160102273Y-95375320D01*
X159867241Y-95532363D01*
X159667363Y-95732241D01*
X159512000Y-95964759D01*
X159356637Y-95732241D01*
X159156759Y-95532363D01*
X158921727Y-95375320D01*
X158660574Y-95267147D01*
X158383335Y-95212000D01*
X158100665Y-95212000D01*
X157823426Y-95267147D01*
X157562273Y-95375320D01*
X157327241Y-95532363D01*
X157127363Y-95732241D01*
X156970320Y-95967273D01*
X156965933Y-95977865D01*
X156854385Y-95791869D01*
X156665414Y-95583481D01*
X156439420Y-95415963D01*
X156185087Y-95295754D01*
X156051039Y-95255096D01*
X155829000Y-95377085D01*
X155575000Y-95377085D01*
X155352961Y-95255096D01*
X155218913Y-95295754D01*
X154964580Y-95415963D01*
X154738586Y-95583481D01*
X154549615Y-95791869D01*
X154404930Y-96033119D01*
X154310091Y-96297960D01*
X147336181Y-96297960D01*
X147534621Y-96215763D01*
X147798315Y-96039569D01*
X148022569Y-95815315D01*
X148198763Y-95551621D01*
X148320129Y-95258620D01*
X148382000Y-94947571D01*
X148382000Y-94630429D01*
X148320129Y-94319380D01*
X148198763Y-94026379D01*
X148022569Y-93762685D01*
X147798315Y-93538431D01*
X147534621Y-93362237D01*
X147241620Y-93240871D01*
X146930571Y-93179000D01*
X146613429Y-93179000D01*
X146302380Y-93240871D01*
X146009379Y-93362237D01*
X145745685Y-93538431D01*
X145521431Y-93762685D01*
X145345237Y-94026379D01*
X145223871Y-94319380D01*
X145162000Y-94630429D01*
X132028000Y-94630429D01*
X132028000Y-92130429D01*
X132662000Y-92130429D01*
X132662000Y-92447571D01*
X132723871Y-92758620D01*
X132845237Y-93051621D01*
X133021431Y-93315315D01*
X133245685Y-93539569D01*
X133509379Y-93715763D01*
X133802380Y-93837129D01*
X134113429Y-93899000D01*
X134430571Y-93899000D01*
X134741620Y-93837129D01*
X135034621Y-93715763D01*
X135298315Y-93539569D01*
X135522569Y-93315315D01*
X135698763Y-93051621D01*
X135820129Y-92758620D01*
X135882000Y-92447571D01*
X135882000Y-92130429D01*
X135820129Y-91819380D01*
X135698763Y-91526379D01*
X135522569Y-91262685D01*
X135298315Y-91038431D01*
X135034621Y-90862237D01*
X134741620Y-90740871D01*
X134430571Y-90679000D01*
X134113429Y-90679000D01*
X133802380Y-90740871D01*
X133509379Y-90862237D01*
X133245685Y-91038431D01*
X133021431Y-91262685D01*
X132845237Y-91526379D01*
X132723871Y-91819380D01*
X132662000Y-92130429D01*
X132028000Y-92130429D01*
X132028000Y-89630429D01*
X142662000Y-89630429D01*
X142662000Y-89947571D01*
X142723871Y-90258620D01*
X142845237Y-90551621D01*
X143021431Y-90815315D01*
X143245685Y-91039569D01*
X143509379Y-91215763D01*
X143802380Y-91337129D01*
X144113429Y-91399000D01*
X144430571Y-91399000D01*
X144741620Y-91337129D01*
X145034621Y-91215763D01*
X145298315Y-91039569D01*
X145522569Y-90815315D01*
X145698763Y-90551621D01*
X145820129Y-90258620D01*
X145882000Y-89947571D01*
X145882000Y-89630429D01*
X145820129Y-89319380D01*
X145698763Y-89026379D01*
X145522569Y-88762685D01*
X145298315Y-88538431D01*
X145034621Y-88362237D01*
X144741620Y-88240871D01*
X144430571Y-88179000D01*
X144113429Y-88179000D01*
X143802380Y-88240871D01*
X143509379Y-88362237D01*
X143245685Y-88538431D01*
X143021431Y-88762685D01*
X142845237Y-89026379D01*
X142723871Y-89319380D01*
X142662000Y-89630429D01*
X132028000Y-89630429D01*
X132028000Y-87130429D01*
X132662000Y-87130429D01*
X132662000Y-87447571D01*
X132723871Y-87758620D01*
X132845237Y-88051621D01*
X133021431Y-88315315D01*
X133245685Y-88539569D01*
X133509379Y-88715763D01*
X133802380Y-88837129D01*
X134113429Y-88899000D01*
X134430571Y-88899000D01*
X134741620Y-88837129D01*
X135034621Y-88715763D01*
X135298315Y-88539569D01*
X135522569Y-88315315D01*
X135698763Y-88051621D01*
X135820129Y-87758620D01*
X135882000Y-87447571D01*
X135882000Y-87130429D01*
X135820129Y-86819380D01*
X135698763Y-86526379D01*
X135522569Y-86262685D01*
X135298315Y-86038431D01*
X135034621Y-85862237D01*
X134741620Y-85740871D01*
X134430571Y-85679000D01*
X134113429Y-85679000D01*
X133802380Y-85740871D01*
X133509379Y-85862237D01*
X133245685Y-86038431D01*
X133021431Y-86262685D01*
X132845237Y-86526379D01*
X132723871Y-86819380D01*
X132662000Y-87130429D01*
X132028000Y-87130429D01*
X132028000Y-84630429D01*
X145162000Y-84630429D01*
X145162000Y-84947571D01*
X145223871Y-85258620D01*
X145345237Y-85551621D01*
X145521431Y-85815315D01*
X145745685Y-86039569D01*
X146009379Y-86215763D01*
X146302380Y-86337129D01*
X146613429Y-86399000D01*
X146930571Y-86399000D01*
X147241620Y-86337129D01*
X147534621Y-86215763D01*
X147798315Y-86039569D01*
X148022569Y-85815315D01*
X148198763Y-85551621D01*
X148320129Y-85258620D01*
X148382000Y-84947571D01*
X148382000Y-84630429D01*
X148320129Y-84319380D01*
X148198763Y-84026379D01*
X148022569Y-83762685D01*
X147798315Y-83538431D01*
X147534621Y-83362237D01*
X147307398Y-83268117D01*
X149649000Y-83268117D01*
X149649000Y-83609883D01*
X149715675Y-83945081D01*
X149846463Y-84260831D01*
X150036337Y-84544998D01*
X150278002Y-84786663D01*
X150562169Y-84976537D01*
X150618844Y-85000012D01*
X150633027Y-85144012D01*
X150676599Y-85287649D01*
X150747355Y-85420026D01*
X150818721Y-85506985D01*
X150842579Y-85536056D01*
X150871649Y-85559913D01*
X151803087Y-86491351D01*
X151826944Y-86520422D01*
X151856014Y-86544279D01*
X151942973Y-86615645D01*
X152013730Y-86653465D01*
X152075351Y-86686402D01*
X152218988Y-86729974D01*
X152330940Y-86741000D01*
X152330943Y-86741000D01*
X152368366Y-86744686D01*
X152405789Y-86741000D01*
X156402370Y-86741000D01*
X157475002Y-87813633D01*
X157327241Y-87912363D01*
X157127363Y-88112241D01*
X156972000Y-88344759D01*
X156816637Y-88112241D01*
X156616759Y-87912363D01*
X156381727Y-87755320D01*
X156120574Y-87647147D01*
X155843335Y-87592000D01*
X155560665Y-87592000D01*
X155283426Y-87647147D01*
X155022273Y-87755320D01*
X154787241Y-87912363D01*
X154587363Y-88112241D01*
X154430320Y-88347273D01*
X154322147Y-88608426D01*
X154267000Y-88885665D01*
X154267000Y-89168335D01*
X154322147Y-89445574D01*
X154430320Y-89706727D01*
X154587363Y-89941759D01*
X154787241Y-90141637D01*
X155022273Y-90298680D01*
X155283426Y-90406853D01*
X155560665Y-90462000D01*
X155843335Y-90462000D01*
X156120574Y-90406853D01*
X156381727Y-90298680D01*
X156616759Y-90141637D01*
X156816637Y-89941759D01*
X156972000Y-89709241D01*
X157127363Y-89941759D01*
X157327241Y-90141637D01*
X157562273Y-90298680D01*
X157823426Y-90406853D01*
X158100665Y-90462000D01*
X158383335Y-90462000D01*
X158660574Y-90406853D01*
X158921727Y-90298680D01*
X159156759Y-90141637D01*
X159356637Y-89941759D01*
X159512000Y-89709241D01*
X159667363Y-89941759D01*
X159867241Y-90141637D01*
X160102273Y-90298680D01*
X160363426Y-90406853D01*
X160640665Y-90462000D01*
X160923335Y-90462000D01*
X161200574Y-90406853D01*
X161461727Y-90298680D01*
X161696759Y-90141637D01*
X161895357Y-89943039D01*
X161896188Y-89951482D01*
X161932498Y-90071180D01*
X161991463Y-90181494D01*
X162070815Y-90278185D01*
X162167506Y-90357537D01*
X162277820Y-90416502D01*
X162397518Y-90452812D01*
X162522000Y-90465072D01*
X164122000Y-90465072D01*
X164246482Y-90452812D01*
X164366180Y-90416502D01*
X164476494Y-90357537D01*
X164573185Y-90278185D01*
X164652537Y-90181494D01*
X164711502Y-90071180D01*
X164747812Y-89951482D01*
X164760072Y-89827000D01*
X164760072Y-88227000D01*
X164747812Y-88102518D01*
X164711502Y-87982820D01*
X164652537Y-87872506D01*
X164573185Y-87775815D01*
X164476494Y-87696463D01*
X164366180Y-87637498D01*
X164246482Y-87601188D01*
X164122000Y-87588928D01*
X162522000Y-87588928D01*
X162397518Y-87601188D01*
X162277820Y-87637498D01*
X162167506Y-87696463D01*
X162070815Y-87775815D01*
X161991463Y-87872506D01*
X161932498Y-87982820D01*
X161896188Y-88102518D01*
X161895357Y-88110961D01*
X161696759Y-87912363D01*
X161461727Y-87755320D01*
X161200574Y-87647147D01*
X160923335Y-87592000D01*
X160640665Y-87592000D01*
X160363426Y-87647147D01*
X160102273Y-87755320D01*
X159867241Y-87912363D01*
X159667363Y-88112241D01*
X159512000Y-88344759D01*
X159356637Y-88112241D01*
X159156759Y-87912363D01*
X159004000Y-87810293D01*
X159004000Y-87540422D01*
X159007686Y-87502999D01*
X159002227Y-87447571D01*
X158992974Y-87353622D01*
X158949402Y-87209985D01*
X158878645Y-87077608D01*
X158783422Y-86961578D01*
X158754353Y-86937722D01*
X157283284Y-85466654D01*
X157259422Y-85437578D01*
X157143392Y-85342355D01*
X157011015Y-85271598D01*
X156867378Y-85228026D01*
X156755426Y-85217000D01*
X156755423Y-85217000D01*
X156718000Y-85213314D01*
X156680577Y-85217000D01*
X152683997Y-85217000D01*
X152348323Y-84881327D01*
X152489998Y-84786663D01*
X152731663Y-84544998D01*
X152921537Y-84260831D01*
X153052325Y-83945081D01*
X153119000Y-83609883D01*
X153119000Y-83268117D01*
X153052325Y-82932919D01*
X152921537Y-82617169D01*
X152735671Y-82339000D01*
X157265928Y-82339000D01*
X157265928Y-84539000D01*
X157278188Y-84663482D01*
X157314498Y-84783180D01*
X157373463Y-84893494D01*
X157452815Y-84990185D01*
X157549506Y-85069537D01*
X157659820Y-85128502D01*
X157779518Y-85164812D01*
X157904000Y-85177072D01*
X160104000Y-85177072D01*
X160228482Y-85164812D01*
X160348180Y-85128502D01*
X160458494Y-85069537D01*
X160555185Y-84990185D01*
X160634537Y-84893494D01*
X160693502Y-84783180D01*
X160729812Y-84663482D01*
X160742072Y-84539000D01*
X160742072Y-82339000D01*
X160729812Y-82214518D01*
X160693502Y-82094820D01*
X160634537Y-81984506D01*
X160555185Y-81887815D01*
X160458494Y-81808463D01*
X160348180Y-81749498D01*
X160228482Y-81713188D01*
X160104000Y-81700928D01*
X157904000Y-81700928D01*
X157779518Y-81713188D01*
X157659820Y-81749498D01*
X157549506Y-81808463D01*
X157452815Y-81887815D01*
X157373463Y-81984506D01*
X157314498Y-82094820D01*
X157278188Y-82214518D01*
X157265928Y-82339000D01*
X152735671Y-82339000D01*
X152731663Y-82333002D01*
X152489998Y-82091337D01*
X152205831Y-81901463D01*
X151890081Y-81770675D01*
X151554883Y-81704000D01*
X151213117Y-81704000D01*
X150877919Y-81770675D01*
X150562169Y-81901463D01*
X150278002Y-82091337D01*
X150036337Y-82333002D01*
X149846463Y-82617169D01*
X149715675Y-82932919D01*
X149649000Y-83268117D01*
X147307398Y-83268117D01*
X147241620Y-83240871D01*
X146930571Y-83179000D01*
X146613429Y-83179000D01*
X146302380Y-83240871D01*
X146009379Y-83362237D01*
X145745685Y-83538431D01*
X145521431Y-83762685D01*
X145345237Y-84026379D01*
X145223871Y-84319380D01*
X145162000Y-84630429D01*
X132028000Y-84630429D01*
X132028000Y-82130429D01*
X142662000Y-82130429D01*
X142662000Y-82447571D01*
X142723871Y-82758620D01*
X142845237Y-83051621D01*
X143021431Y-83315315D01*
X143245685Y-83539569D01*
X143509379Y-83715763D01*
X143802380Y-83837129D01*
X144113429Y-83899000D01*
X144430571Y-83899000D01*
X144741620Y-83837129D01*
X145034621Y-83715763D01*
X145298315Y-83539569D01*
X145522569Y-83315315D01*
X145698763Y-83051621D01*
X145820129Y-82758620D01*
X145882000Y-82447571D01*
X145882000Y-82130429D01*
X145820129Y-81819380D01*
X145698763Y-81526379D01*
X145522569Y-81262685D01*
X145298315Y-81038431D01*
X145034621Y-80862237D01*
X144741620Y-80740871D01*
X144430571Y-80679000D01*
X144113429Y-80679000D01*
X143802380Y-80740871D01*
X143509379Y-80862237D01*
X143245685Y-81038431D01*
X143021431Y-81262685D01*
X142845237Y-81526379D01*
X142723871Y-81819380D01*
X142662000Y-82130429D01*
X132028000Y-82130429D01*
X132028000Y-80085000D01*
X166168001Y-80085000D01*
X166168000Y-120067000D01*
G37*
X166168000Y-120067000D02*
X132028000Y-120067000D01*
X132028000Y-117704429D01*
X142662000Y-117704429D01*
X142662000Y-118021571D01*
X142723871Y-118332620D01*
X142845237Y-118625621D01*
X143021431Y-118889315D01*
X143245685Y-119113569D01*
X143509379Y-119289763D01*
X143802380Y-119411129D01*
X144113429Y-119473000D01*
X144430571Y-119473000D01*
X144741620Y-119411129D01*
X145034621Y-119289763D01*
X145298315Y-119113569D01*
X145522569Y-118889315D01*
X145698763Y-118625621D01*
X145820129Y-118332620D01*
X145882000Y-118021571D01*
X145882000Y-117704429D01*
X145820129Y-117393380D01*
X145698763Y-117100379D01*
X145522569Y-116836685D01*
X145298315Y-116612431D01*
X145034621Y-116436237D01*
X144741620Y-116314871D01*
X144430571Y-116253000D01*
X144113429Y-116253000D01*
X143802380Y-116314871D01*
X143509379Y-116436237D01*
X143245685Y-116612431D01*
X143021431Y-116836685D01*
X142845237Y-117100379D01*
X142723871Y-117393380D01*
X142662000Y-117704429D01*
X132028000Y-117704429D01*
X132028000Y-115204429D01*
X145162000Y-115204429D01*
X145162000Y-115521571D01*
X145223871Y-115832620D01*
X145345237Y-116125621D01*
X145521431Y-116389315D01*
X145745685Y-116613569D01*
X146009379Y-116789763D01*
X146302380Y-116911129D01*
X146613429Y-116973000D01*
X146930571Y-116973000D01*
X147241620Y-116911129D01*
X147534621Y-116789763D01*
X147798315Y-116613569D01*
X148022569Y-116389315D01*
X148198763Y-116125621D01*
X148320129Y-115832620D01*
X148382000Y-115521571D01*
X148382000Y-115204429D01*
X148320129Y-114893380D01*
X148198763Y-114600379D01*
X148022569Y-114336685D01*
X147798315Y-114112431D01*
X147534621Y-113936237D01*
X147263505Y-113823936D01*
X155244800Y-113823936D01*
X155244800Y-114014064D01*
X155281892Y-114200538D01*
X155354651Y-114376194D01*
X155460280Y-114534279D01*
X155594721Y-114668720D01*
X155752806Y-114774349D01*
X155928462Y-114847108D01*
X156114936Y-114884200D01*
X156305064Y-114884200D01*
X156491538Y-114847108D01*
X156667194Y-114774349D01*
X156825279Y-114668720D01*
X156959720Y-114534279D01*
X157065349Y-114376194D01*
X157138108Y-114200538D01*
X157175200Y-114014064D01*
X157175200Y-113823936D01*
X157138108Y-113637462D01*
X157099000Y-113543047D01*
X157099000Y-111486740D01*
X162853000Y-111486740D01*
X162853000Y-111779260D01*
X162910068Y-112066158D01*
X163022010Y-112336411D01*
X163184525Y-112579632D01*
X163391368Y-112786475D01*
X163565760Y-112903000D01*
X163391368Y-113019525D01*
X163184525Y-113226368D01*
X163022010Y-113469589D01*
X162910068Y-113739842D01*
X162853000Y-114026740D01*
X162853000Y-114319260D01*
X162910068Y-114606158D01*
X163022010Y-114876411D01*
X163184525Y-115119632D01*
X163391368Y-115326475D01*
X163634589Y-115488990D01*
X163904842Y-115600932D01*
X164191740Y-115658000D01*
X164484260Y-115658000D01*
X164771158Y-115600932D01*
X165041411Y-115488990D01*
X165284632Y-115326475D01*
X165491475Y-115119632D01*
X165653990Y-114876411D01*
X165765932Y-114606158D01*
X165823000Y-114319260D01*
X165823000Y-114026740D01*
X165765932Y-113739842D01*
X165653990Y-113469589D01*
X165491475Y-113226368D01*
X165284632Y-113019525D01*
X165110240Y-112903000D01*
X165284632Y-112786475D01*
X165491475Y-112579632D01*
X165653990Y-112336411D01*
X165765932Y-112066158D01*
X165823000Y-111779260D01*
X165823000Y-111486740D01*
X165765932Y-111199842D01*
X165653990Y-110929589D01*
X165491475Y-110686368D01*
X165284632Y-110479525D01*
X165102466Y-110357805D01*
X165219355Y-110288178D01*
X165435588Y-110093269D01*
X165609641Y-109859920D01*
X165734825Y-109597099D01*
X165779476Y-109449890D01*
X165658155Y-109220000D01*
X164465000Y-109220000D01*
X164465000Y-109240000D01*
X164211000Y-109240000D01*
X164211000Y-109220000D01*
X163017845Y-109220000D01*
X162896524Y-109449890D01*
X162941175Y-109597099D01*
X163066359Y-109859920D01*
X163240412Y-110093269D01*
X163456645Y-110288178D01*
X163573534Y-110357805D01*
X163391368Y-110479525D01*
X163184525Y-110686368D01*
X163022010Y-110929589D01*
X162910068Y-111199842D01*
X162853000Y-111486740D01*
X157099000Y-111486740D01*
X157099000Y-109461235D01*
X159118236Y-107442000D01*
X163146017Y-107442000D01*
X163184525Y-107499632D01*
X163391368Y-107706475D01*
X163573534Y-107828195D01*
X163456645Y-107897822D01*
X163240412Y-108092731D01*
X163066359Y-108326080D01*
X162941175Y-108588901D01*
X162896524Y-108736110D01*
X163017845Y-108966000D01*
X164211000Y-108966000D01*
X164211000Y-108946000D01*
X164465000Y-108946000D01*
X164465000Y-108966000D01*
X165658155Y-108966000D01*
X165779476Y-108736110D01*
X165734825Y-108588901D01*
X165609641Y-108326080D01*
X165435588Y-108092731D01*
X165219355Y-107897822D01*
X165102466Y-107828195D01*
X165284632Y-107706475D01*
X165491475Y-107499632D01*
X165653990Y-107256411D01*
X165765932Y-106986158D01*
X165823000Y-106699260D01*
X165823000Y-106406740D01*
X165765932Y-106119842D01*
X165653990Y-105849589D01*
X165491475Y-105606368D01*
X165284632Y-105399525D01*
X165041411Y-105237010D01*
X164771158Y-105125068D01*
X164484260Y-105068000D01*
X164191740Y-105068000D01*
X163904842Y-105125068D01*
X163634589Y-105237010D01*
X163391368Y-105399525D01*
X163184525Y-105606368D01*
X163146017Y-105664000D01*
X162560000Y-105664000D01*
X162560000Y-103339901D01*
X162653349Y-103200194D01*
X162726108Y-103024538D01*
X162763200Y-102838064D01*
X162763200Y-102647936D01*
X162726108Y-102461462D01*
X162653349Y-102285806D01*
X162547720Y-102127721D01*
X162413279Y-101993280D01*
X162255194Y-101887651D01*
X162079538Y-101814892D01*
X161893064Y-101777800D01*
X161702936Y-101777800D01*
X161516462Y-101814892D01*
X161340806Y-101887651D01*
X161182721Y-101993280D01*
X161048280Y-102127721D01*
X160942651Y-102285806D01*
X160869892Y-102461462D01*
X160832800Y-102647936D01*
X160832800Y-102838064D01*
X160869892Y-103024538D01*
X160942651Y-103200194D01*
X161036001Y-103339902D01*
X161036000Y-105664000D01*
X158793659Y-105664000D01*
X158749999Y-105659700D01*
X158706339Y-105664000D01*
X158706333Y-105664000D01*
X158608924Y-105673594D01*
X158575724Y-105676864D01*
X158474058Y-105707704D01*
X158408149Y-105727697D01*
X158253709Y-105810247D01*
X158118341Y-105921341D01*
X158090506Y-105955258D01*
X155612264Y-108433501D01*
X155578341Y-108461341D01*
X155467247Y-108596710D01*
X155384697Y-108751150D01*
X155333864Y-108918727D01*
X155321000Y-109049334D01*
X155321000Y-109049340D01*
X155316700Y-109093000D01*
X155321000Y-109136660D01*
X155321001Y-113543045D01*
X155281892Y-113637462D01*
X155244800Y-113823936D01*
X147263505Y-113823936D01*
X147241620Y-113814871D01*
X146930571Y-113753000D01*
X146613429Y-113753000D01*
X146302380Y-113814871D01*
X146009379Y-113936237D01*
X145745685Y-114112431D01*
X145521431Y-114336685D01*
X145345237Y-114600379D01*
X145223871Y-114893380D01*
X145162000Y-115204429D01*
X132028000Y-115204429D01*
X132028000Y-112704429D01*
X132662000Y-112704429D01*
X132662000Y-113021571D01*
X132723871Y-113332620D01*
X132845237Y-113625621D01*
X133021431Y-113889315D01*
X133245685Y-114113569D01*
X133509379Y-114289763D01*
X133802380Y-114411129D01*
X134113429Y-114473000D01*
X134430571Y-114473000D01*
X134741620Y-114411129D01*
X135034621Y-114289763D01*
X135298315Y-114113569D01*
X135522569Y-113889315D01*
X135698763Y-113625621D01*
X135820129Y-113332620D01*
X135882000Y-113021571D01*
X135882000Y-112704429D01*
X135820129Y-112393380D01*
X135698763Y-112100379D01*
X135522569Y-111836685D01*
X135298315Y-111612431D01*
X135100992Y-111480584D01*
X143334021Y-111480584D01*
X143426766Y-111742429D01*
X143712120Y-111880820D01*
X144018990Y-111960883D01*
X144335584Y-111979540D01*
X144649733Y-111936074D01*
X144949367Y-111832156D01*
X145117234Y-111742429D01*
X145209979Y-111480584D01*
X144272000Y-110542605D01*
X143334021Y-111480584D01*
X135100992Y-111480584D01*
X135034621Y-111436237D01*
X134741620Y-111314871D01*
X134430571Y-111253000D01*
X134113429Y-111253000D01*
X133802380Y-111314871D01*
X133509379Y-111436237D01*
X133245685Y-111612431D01*
X133021431Y-111836685D01*
X132845237Y-112100379D01*
X132723871Y-112393380D01*
X132662000Y-112704429D01*
X132028000Y-112704429D01*
X132028000Y-110426584D01*
X142655460Y-110426584D01*
X142698926Y-110740733D01*
X142802844Y-111040367D01*
X142892571Y-111208234D01*
X143154416Y-111300979D01*
X144092395Y-110363000D01*
X144451605Y-110363000D01*
X145389584Y-111300979D01*
X145651429Y-111208234D01*
X145789820Y-110922880D01*
X145869883Y-110616010D01*
X145888540Y-110299416D01*
X145845074Y-109985267D01*
X145741156Y-109685633D01*
X145651429Y-109517766D01*
X145389584Y-109425021D01*
X144451605Y-110363000D01*
X144092395Y-110363000D01*
X143154416Y-109425021D01*
X142892571Y-109517766D01*
X142754180Y-109803120D01*
X142674117Y-110109990D01*
X142655460Y-110426584D01*
X132028000Y-110426584D01*
X132028000Y-107704429D01*
X132662000Y-107704429D01*
X132662000Y-108021571D01*
X132723871Y-108332620D01*
X132845237Y-108625621D01*
X133021431Y-108889315D01*
X133245685Y-109113569D01*
X133509379Y-109289763D01*
X133802380Y-109411129D01*
X134113429Y-109473000D01*
X134430571Y-109473000D01*
X134741620Y-109411129D01*
X135034621Y-109289763D01*
X135100991Y-109245416D01*
X143334021Y-109245416D01*
X144272000Y-110183395D01*
X145209979Y-109245416D01*
X145117234Y-108983571D01*
X144831880Y-108845180D01*
X144525010Y-108765117D01*
X144208416Y-108746460D01*
X143894267Y-108789926D01*
X143594633Y-108893844D01*
X143426766Y-108983571D01*
X143334021Y-109245416D01*
X135100991Y-109245416D01*
X135298315Y-109113569D01*
X135522569Y-108889315D01*
X135698763Y-108625621D01*
X135820129Y-108332620D01*
X135882000Y-108021571D01*
X135882000Y-107704429D01*
X135820129Y-107393380D01*
X135698763Y-107100379D01*
X135522569Y-106836685D01*
X135298315Y-106612431D01*
X135034621Y-106436237D01*
X134741620Y-106314871D01*
X134430571Y-106253000D01*
X134113429Y-106253000D01*
X133802380Y-106314871D01*
X133509379Y-106436237D01*
X133245685Y-106612431D01*
X133021431Y-106836685D01*
X132845237Y-107100379D01*
X132723871Y-107393380D01*
X132662000Y-107704429D01*
X132028000Y-107704429D01*
X132028000Y-105204429D01*
X145162000Y-105204429D01*
X145162000Y-105521571D01*
X145223871Y-105832620D01*
X145345237Y-106125621D01*
X145521431Y-106389315D01*
X145745685Y-106613569D01*
X146009379Y-106789763D01*
X146302380Y-106911129D01*
X146613429Y-106973000D01*
X146930571Y-106973000D01*
X147241620Y-106911129D01*
X147534621Y-106789763D01*
X147798315Y-106613569D01*
X148022569Y-106389315D01*
X148198763Y-106125621D01*
X148320129Y-105832620D01*
X148382000Y-105521571D01*
X148382000Y-105204429D01*
X148320129Y-104893380D01*
X148198763Y-104600379D01*
X148022569Y-104336685D01*
X147798315Y-104112431D01*
X147534621Y-103936237D01*
X147241620Y-103814871D01*
X146930571Y-103753000D01*
X146613429Y-103753000D01*
X146302380Y-103814871D01*
X146009379Y-103936237D01*
X145745685Y-104112431D01*
X145521431Y-104336685D01*
X145345237Y-104600379D01*
X145223871Y-104893380D01*
X145162000Y-105204429D01*
X132028000Y-105204429D01*
X132028000Y-102704429D01*
X142662000Y-102704429D01*
X142662000Y-103021571D01*
X142723871Y-103332620D01*
X142845237Y-103625621D01*
X143021431Y-103889315D01*
X143245685Y-104113569D01*
X143509379Y-104289763D01*
X143802380Y-104411129D01*
X144113429Y-104473000D01*
X144430571Y-104473000D01*
X144741620Y-104411129D01*
X145034621Y-104289763D01*
X145298315Y-104113569D01*
X145522569Y-103889315D01*
X145698763Y-103625621D01*
X145820129Y-103332620D01*
X145882000Y-103021571D01*
X145882000Y-102704429D01*
X145820129Y-102393380D01*
X145698763Y-102100379D01*
X145522569Y-101836685D01*
X145298315Y-101612431D01*
X145034621Y-101436237D01*
X144741620Y-101314871D01*
X144430571Y-101253000D01*
X144113429Y-101253000D01*
X143802380Y-101314871D01*
X143509379Y-101436237D01*
X143245685Y-101612431D01*
X143021431Y-101836685D01*
X142845237Y-102100379D01*
X142723871Y-102393380D01*
X142662000Y-102704429D01*
X132028000Y-102704429D01*
X132028000Y-97130429D01*
X142662000Y-97130429D01*
X142662000Y-97447571D01*
X142723871Y-97758620D01*
X142845237Y-98051621D01*
X143021431Y-98315315D01*
X143245685Y-98539569D01*
X143509379Y-98715763D01*
X143802380Y-98837129D01*
X144113429Y-98899000D01*
X144430571Y-98899000D01*
X144741620Y-98837129D01*
X145034621Y-98715763D01*
X145298315Y-98539569D01*
X145522569Y-98315315D01*
X145698763Y-98051621D01*
X145820129Y-97758620D01*
X145882000Y-97447571D01*
X145882000Y-97130429D01*
X145855269Y-96996040D01*
X154310091Y-96996040D01*
X154404930Y-97260881D01*
X154549615Y-97502131D01*
X154738586Y-97710519D01*
X154964580Y-97878037D01*
X155218913Y-97998246D01*
X155352961Y-98038904D01*
X155575000Y-97916915D01*
X155575000Y-96774000D01*
X154431376Y-96774000D01*
X154310091Y-96996040D01*
X145855269Y-96996040D01*
X145820129Y-96819380D01*
X145698763Y-96526379D01*
X145522569Y-96262685D01*
X145298315Y-96038431D01*
X145034621Y-95862237D01*
X144741620Y-95740871D01*
X144430571Y-95679000D01*
X144113429Y-95679000D01*
X143802380Y-95740871D01*
X143509379Y-95862237D01*
X143245685Y-96038431D01*
X143021431Y-96262685D01*
X142845237Y-96526379D01*
X142723871Y-96819380D01*
X142662000Y-97130429D01*
X132028000Y-97130429D01*
X132028000Y-94630429D01*
X145162000Y-94630429D01*
X145162000Y-94947571D01*
X145223871Y-95258620D01*
X145345237Y-95551621D01*
X145521431Y-95815315D01*
X145745685Y-96039569D01*
X146009379Y-96215763D01*
X146302380Y-96337129D01*
X146613429Y-96399000D01*
X146930571Y-96399000D01*
X147241620Y-96337129D01*
X147336181Y-96297960D01*
X154310091Y-96297960D01*
X154431376Y-96520000D01*
X155575000Y-96520000D01*
X155575000Y-95377085D01*
X155829000Y-95377085D01*
X155829000Y-96520000D01*
X155849000Y-96520000D01*
X155849000Y-96774000D01*
X155829000Y-96774000D01*
X155829000Y-97916915D01*
X156051039Y-98038904D01*
X156185087Y-97998246D01*
X156439420Y-97878037D01*
X156665414Y-97710519D01*
X156854385Y-97502131D01*
X156965933Y-97316135D01*
X156970320Y-97326727D01*
X157127363Y-97561759D01*
X157327241Y-97761637D01*
X157562273Y-97918680D01*
X157823426Y-98026853D01*
X158100665Y-98082000D01*
X158383335Y-98082000D01*
X158660574Y-98026853D01*
X158921727Y-97918680D01*
X159156759Y-97761637D01*
X159356637Y-97561759D01*
X159512000Y-97329241D01*
X159667363Y-97561759D01*
X159867241Y-97761637D01*
X160102273Y-97918680D01*
X160363426Y-98026853D01*
X160640665Y-98082000D01*
X160923335Y-98082000D01*
X161200574Y-98026853D01*
X161461727Y-97918680D01*
X161696759Y-97761637D01*
X161896637Y-97561759D01*
X162052000Y-97329241D01*
X162207363Y-97561759D01*
X162407241Y-97761637D01*
X162642273Y-97918680D01*
X162903426Y-98026853D01*
X163180665Y-98082000D01*
X163463335Y-98082000D01*
X163740574Y-98026853D01*
X164001727Y-97918680D01*
X164236759Y-97761637D01*
X164436637Y-97561759D01*
X164593680Y-97326727D01*
X164701853Y-97065574D01*
X164757000Y-96788335D01*
X164757000Y-96505665D01*
X164701853Y-96228426D01*
X164593680Y-95967273D01*
X164436637Y-95732241D01*
X164236759Y-95532363D01*
X164001727Y-95375320D01*
X163740574Y-95267147D01*
X163463335Y-95212000D01*
X163180665Y-95212000D01*
X162903426Y-95267147D01*
X162642273Y-95375320D01*
X162407241Y-95532363D01*
X162207363Y-95732241D01*
X162052000Y-95964759D01*
X161896637Y-95732241D01*
X161696759Y-95532363D01*
X161461727Y-95375320D01*
X161200574Y-95267147D01*
X160923335Y-95212000D01*
X160640665Y-95212000D01*
X160363426Y-95267147D01*
X160102273Y-95375320D01*
X159867241Y-95532363D01*
X159667363Y-95732241D01*
X159512000Y-95964759D01*
X159356637Y-95732241D01*
X159156759Y-95532363D01*
X158921727Y-95375320D01*
X158660574Y-95267147D01*
X158383335Y-95212000D01*
X158100665Y-95212000D01*
X157823426Y-95267147D01*
X157562273Y-95375320D01*
X157327241Y-95532363D01*
X157127363Y-95732241D01*
X156970320Y-95967273D01*
X156965933Y-95977865D01*
X156854385Y-95791869D01*
X156665414Y-95583481D01*
X156439420Y-95415963D01*
X156185087Y-95295754D01*
X156051039Y-95255096D01*
X155829000Y-95377085D01*
X155575000Y-95377085D01*
X155352961Y-95255096D01*
X155218913Y-95295754D01*
X154964580Y-95415963D01*
X154738586Y-95583481D01*
X154549615Y-95791869D01*
X154404930Y-96033119D01*
X154310091Y-96297960D01*
X147336181Y-96297960D01*
X147534621Y-96215763D01*
X147798315Y-96039569D01*
X148022569Y-95815315D01*
X148198763Y-95551621D01*
X148320129Y-95258620D01*
X148382000Y-94947571D01*
X148382000Y-94630429D01*
X148320129Y-94319380D01*
X148198763Y-94026379D01*
X148022569Y-93762685D01*
X147798315Y-93538431D01*
X147534621Y-93362237D01*
X147241620Y-93240871D01*
X146930571Y-93179000D01*
X146613429Y-93179000D01*
X146302380Y-93240871D01*
X146009379Y-93362237D01*
X145745685Y-93538431D01*
X145521431Y-93762685D01*
X145345237Y-94026379D01*
X145223871Y-94319380D01*
X145162000Y-94630429D01*
X132028000Y-94630429D01*
X132028000Y-92130429D01*
X132662000Y-92130429D01*
X132662000Y-92447571D01*
X132723871Y-92758620D01*
X132845237Y-93051621D01*
X133021431Y-93315315D01*
X133245685Y-93539569D01*
X133509379Y-93715763D01*
X133802380Y-93837129D01*
X134113429Y-93899000D01*
X134430571Y-93899000D01*
X134741620Y-93837129D01*
X135034621Y-93715763D01*
X135298315Y-93539569D01*
X135522569Y-93315315D01*
X135698763Y-93051621D01*
X135820129Y-92758620D01*
X135882000Y-92447571D01*
X135882000Y-92130429D01*
X135820129Y-91819380D01*
X135698763Y-91526379D01*
X135522569Y-91262685D01*
X135298315Y-91038431D01*
X135034621Y-90862237D01*
X134741620Y-90740871D01*
X134430571Y-90679000D01*
X134113429Y-90679000D01*
X133802380Y-90740871D01*
X133509379Y-90862237D01*
X133245685Y-91038431D01*
X133021431Y-91262685D01*
X132845237Y-91526379D01*
X132723871Y-91819380D01*
X132662000Y-92130429D01*
X132028000Y-92130429D01*
X132028000Y-89630429D01*
X142662000Y-89630429D01*
X142662000Y-89947571D01*
X142723871Y-90258620D01*
X142845237Y-90551621D01*
X143021431Y-90815315D01*
X143245685Y-91039569D01*
X143509379Y-91215763D01*
X143802380Y-91337129D01*
X144113429Y-91399000D01*
X144430571Y-91399000D01*
X144741620Y-91337129D01*
X145034621Y-91215763D01*
X145298315Y-91039569D01*
X145522569Y-90815315D01*
X145698763Y-90551621D01*
X145820129Y-90258620D01*
X145882000Y-89947571D01*
X145882000Y-89630429D01*
X145820129Y-89319380D01*
X145698763Y-89026379D01*
X145522569Y-88762685D01*
X145298315Y-88538431D01*
X145034621Y-88362237D01*
X144741620Y-88240871D01*
X144430571Y-88179000D01*
X144113429Y-88179000D01*
X143802380Y-88240871D01*
X143509379Y-88362237D01*
X143245685Y-88538431D01*
X143021431Y-88762685D01*
X142845237Y-89026379D01*
X142723871Y-89319380D01*
X142662000Y-89630429D01*
X132028000Y-89630429D01*
X132028000Y-87130429D01*
X132662000Y-87130429D01*
X132662000Y-87447571D01*
X132723871Y-87758620D01*
X132845237Y-88051621D01*
X133021431Y-88315315D01*
X133245685Y-88539569D01*
X133509379Y-88715763D01*
X133802380Y-88837129D01*
X134113429Y-88899000D01*
X134430571Y-88899000D01*
X134741620Y-88837129D01*
X135034621Y-88715763D01*
X135298315Y-88539569D01*
X135522569Y-88315315D01*
X135698763Y-88051621D01*
X135820129Y-87758620D01*
X135882000Y-87447571D01*
X135882000Y-87130429D01*
X135820129Y-86819380D01*
X135698763Y-86526379D01*
X135522569Y-86262685D01*
X135298315Y-86038431D01*
X135034621Y-85862237D01*
X134741620Y-85740871D01*
X134430571Y-85679000D01*
X134113429Y-85679000D01*
X133802380Y-85740871D01*
X133509379Y-85862237D01*
X133245685Y-86038431D01*
X133021431Y-86262685D01*
X132845237Y-86526379D01*
X132723871Y-86819380D01*
X132662000Y-87130429D01*
X132028000Y-87130429D01*
X132028000Y-84630429D01*
X145162000Y-84630429D01*
X145162000Y-84947571D01*
X145223871Y-85258620D01*
X145345237Y-85551621D01*
X145521431Y-85815315D01*
X145745685Y-86039569D01*
X146009379Y-86215763D01*
X146302380Y-86337129D01*
X146613429Y-86399000D01*
X146930571Y-86399000D01*
X147241620Y-86337129D01*
X147534621Y-86215763D01*
X147798315Y-86039569D01*
X148022569Y-85815315D01*
X148198763Y-85551621D01*
X148320129Y-85258620D01*
X148382000Y-84947571D01*
X148382000Y-84630429D01*
X148320129Y-84319380D01*
X148198763Y-84026379D01*
X148022569Y-83762685D01*
X147798315Y-83538431D01*
X147534621Y-83362237D01*
X147307398Y-83268117D01*
X149649000Y-83268117D01*
X149649000Y-83609883D01*
X149715675Y-83945081D01*
X149846463Y-84260831D01*
X150036337Y-84544998D01*
X150278002Y-84786663D01*
X150562169Y-84976537D01*
X150618844Y-85000012D01*
X150633027Y-85144012D01*
X150676599Y-85287649D01*
X150747355Y-85420026D01*
X150818721Y-85506985D01*
X150842579Y-85536056D01*
X150871649Y-85559913D01*
X151803087Y-86491351D01*
X151826944Y-86520422D01*
X151856014Y-86544279D01*
X151942973Y-86615645D01*
X152013730Y-86653465D01*
X152075351Y-86686402D01*
X152218988Y-86729974D01*
X152330940Y-86741000D01*
X152330943Y-86741000D01*
X152368366Y-86744686D01*
X152405789Y-86741000D01*
X156402370Y-86741000D01*
X157475002Y-87813633D01*
X157327241Y-87912363D01*
X157127363Y-88112241D01*
X156972000Y-88344759D01*
X156816637Y-88112241D01*
X156616759Y-87912363D01*
X156381727Y-87755320D01*
X156120574Y-87647147D01*
X155843335Y-87592000D01*
X155560665Y-87592000D01*
X155283426Y-87647147D01*
X155022273Y-87755320D01*
X154787241Y-87912363D01*
X154587363Y-88112241D01*
X154430320Y-88347273D01*
X154322147Y-88608426D01*
X154267000Y-88885665D01*
X154267000Y-89168335D01*
X154322147Y-89445574D01*
X154430320Y-89706727D01*
X154587363Y-89941759D01*
X154787241Y-90141637D01*
X155022273Y-90298680D01*
X155283426Y-90406853D01*
X155560665Y-90462000D01*
X155843335Y-90462000D01*
X156120574Y-90406853D01*
X156381727Y-90298680D01*
X156616759Y-90141637D01*
X156816637Y-89941759D01*
X156972000Y-89709241D01*
X157127363Y-89941759D01*
X157327241Y-90141637D01*
X157562273Y-90298680D01*
X157823426Y-90406853D01*
X158100665Y-90462000D01*
X158383335Y-90462000D01*
X158660574Y-90406853D01*
X158921727Y-90298680D01*
X159156759Y-90141637D01*
X159356637Y-89941759D01*
X159512000Y-89709241D01*
X159667363Y-89941759D01*
X159867241Y-90141637D01*
X160102273Y-90298680D01*
X160363426Y-90406853D01*
X160640665Y-90462000D01*
X160923335Y-90462000D01*
X161200574Y-90406853D01*
X161461727Y-90298680D01*
X161696759Y-90141637D01*
X161895357Y-89943039D01*
X161896188Y-89951482D01*
X161932498Y-90071180D01*
X161991463Y-90181494D01*
X162070815Y-90278185D01*
X162167506Y-90357537D01*
X162277820Y-90416502D01*
X162397518Y-90452812D01*
X162522000Y-90465072D01*
X164122000Y-90465072D01*
X164246482Y-90452812D01*
X164366180Y-90416502D01*
X164476494Y-90357537D01*
X164573185Y-90278185D01*
X164652537Y-90181494D01*
X164711502Y-90071180D01*
X164747812Y-89951482D01*
X164760072Y-89827000D01*
X164760072Y-88227000D01*
X164747812Y-88102518D01*
X164711502Y-87982820D01*
X164652537Y-87872506D01*
X164573185Y-87775815D01*
X164476494Y-87696463D01*
X164366180Y-87637498D01*
X164246482Y-87601188D01*
X164122000Y-87588928D01*
X162522000Y-87588928D01*
X162397518Y-87601188D01*
X162277820Y-87637498D01*
X162167506Y-87696463D01*
X162070815Y-87775815D01*
X161991463Y-87872506D01*
X161932498Y-87982820D01*
X161896188Y-88102518D01*
X161895357Y-88110961D01*
X161696759Y-87912363D01*
X161461727Y-87755320D01*
X161200574Y-87647147D01*
X160923335Y-87592000D01*
X160640665Y-87592000D01*
X160363426Y-87647147D01*
X160102273Y-87755320D01*
X159867241Y-87912363D01*
X159667363Y-88112241D01*
X159512000Y-88344759D01*
X159356637Y-88112241D01*
X159156759Y-87912363D01*
X159004000Y-87810293D01*
X159004000Y-87540422D01*
X159007686Y-87502999D01*
X159002227Y-87447571D01*
X158992974Y-87353622D01*
X158949402Y-87209985D01*
X158878645Y-87077608D01*
X158783422Y-86961578D01*
X158754353Y-86937722D01*
X157283284Y-85466654D01*
X157259422Y-85437578D01*
X157143392Y-85342355D01*
X157011015Y-85271598D01*
X156867378Y-85228026D01*
X156755426Y-85217000D01*
X156755423Y-85217000D01*
X156718000Y-85213314D01*
X156680577Y-85217000D01*
X152683997Y-85217000D01*
X152348323Y-84881327D01*
X152489998Y-84786663D01*
X152731663Y-84544998D01*
X152921537Y-84260831D01*
X153052325Y-83945081D01*
X153119000Y-83609883D01*
X153119000Y-83268117D01*
X153052325Y-82932919D01*
X152921537Y-82617169D01*
X152735671Y-82339000D01*
X157265928Y-82339000D01*
X157265928Y-84539000D01*
X157278188Y-84663482D01*
X157314498Y-84783180D01*
X157373463Y-84893494D01*
X157452815Y-84990185D01*
X157549506Y-85069537D01*
X157659820Y-85128502D01*
X157779518Y-85164812D01*
X157904000Y-85177072D01*
X160104000Y-85177072D01*
X160228482Y-85164812D01*
X160348180Y-85128502D01*
X160458494Y-85069537D01*
X160555185Y-84990185D01*
X160634537Y-84893494D01*
X160693502Y-84783180D01*
X160729812Y-84663482D01*
X160742072Y-84539000D01*
X160742072Y-82339000D01*
X160729812Y-82214518D01*
X160693502Y-82094820D01*
X160634537Y-81984506D01*
X160555185Y-81887815D01*
X160458494Y-81808463D01*
X160348180Y-81749498D01*
X160228482Y-81713188D01*
X160104000Y-81700928D01*
X157904000Y-81700928D01*
X157779518Y-81713188D01*
X157659820Y-81749498D01*
X157549506Y-81808463D01*
X157452815Y-81887815D01*
X157373463Y-81984506D01*
X157314498Y-82094820D01*
X157278188Y-82214518D01*
X157265928Y-82339000D01*
X152735671Y-82339000D01*
X152731663Y-82333002D01*
X152489998Y-82091337D01*
X152205831Y-81901463D01*
X151890081Y-81770675D01*
X151554883Y-81704000D01*
X151213117Y-81704000D01*
X150877919Y-81770675D01*
X150562169Y-81901463D01*
X150278002Y-82091337D01*
X150036337Y-82333002D01*
X149846463Y-82617169D01*
X149715675Y-82932919D01*
X149649000Y-83268117D01*
X147307398Y-83268117D01*
X147241620Y-83240871D01*
X146930571Y-83179000D01*
X146613429Y-83179000D01*
X146302380Y-83240871D01*
X146009379Y-83362237D01*
X145745685Y-83538431D01*
X145521431Y-83762685D01*
X145345237Y-84026379D01*
X145223871Y-84319380D01*
X145162000Y-84630429D01*
X132028000Y-84630429D01*
X132028000Y-82130429D01*
X142662000Y-82130429D01*
X142662000Y-82447571D01*
X142723871Y-82758620D01*
X142845237Y-83051621D01*
X143021431Y-83315315D01*
X143245685Y-83539569D01*
X143509379Y-83715763D01*
X143802380Y-83837129D01*
X144113429Y-83899000D01*
X144430571Y-83899000D01*
X144741620Y-83837129D01*
X145034621Y-83715763D01*
X145298315Y-83539569D01*
X145522569Y-83315315D01*
X145698763Y-83051621D01*
X145820129Y-82758620D01*
X145882000Y-82447571D01*
X145882000Y-82130429D01*
X145820129Y-81819380D01*
X145698763Y-81526379D01*
X145522569Y-81262685D01*
X145298315Y-81038431D01*
X145034621Y-80862237D01*
X144741620Y-80740871D01*
X144430571Y-80679000D01*
X144113429Y-80679000D01*
X143802380Y-80740871D01*
X143509379Y-80862237D01*
X143245685Y-81038431D01*
X143021431Y-81262685D01*
X142845237Y-81526379D01*
X142723871Y-81819380D01*
X142662000Y-82130429D01*
X132028000Y-82130429D01*
X132028000Y-80085000D01*
X166168001Y-80085000D01*
X166168000Y-120067000D01*
M02*
