M48
; DRILL file {KiCad 5.1.5-52549c5~84~ubuntu18.04.1} date Tue 03 Mar 2020 04:32:53 PM EST
; FORMAT={-:-/ absolute / metric / decimal}
; #@! TF.CreationDate,2020-03-03T16:32:53-05:00
; #@! TF.GenerationSoftware,Kicad,Pcbnew,5.1.5-52549c5~84~ubuntu18.04.1
FMAT,2
METRIC
T1C0.406
T2C0.800
T3C1.000
T4C1.100
T5C1.300
%
G90
G05
T1
X156.21Y-113.919
X161.798Y-102.743
T2
X155.702Y-89.027
X155.702Y-96.647
X158.242Y-89.027
X158.242Y-96.647
X160.782Y-89.027
X160.782Y-96.647
X163.322Y-89.027
X163.322Y-96.647
T3
X164.338Y-106.553
X164.338Y-109.093
X164.338Y-111.633
X164.338Y-114.173
T4
X151.384Y-83.439
X159.004Y-83.439
T5
X134.272Y-107.863
X134.272Y-112.863
X144.272Y-102.863
X144.272Y-110.363
X144.272Y-117.863
X146.772Y-105.363
X146.772Y-115.363
X134.272Y-87.289
X134.272Y-92.289
X144.272Y-82.289
X144.272Y-89.789
X144.272Y-97.289
X146.772Y-84.789
X146.772Y-94.789
T0
M30
