G04 #@! TF.GenerationSoftware,KiCad,Pcbnew,5.1.5-52549c5~84~ubuntu18.04.1*
G04 #@! TF.CreationDate,2020-01-17T10:26:32-05:00*
G04 #@! TF.ProjectId,midi_io,6d696469-5f69-46f2-9e6b-696361645f70,1*
G04 #@! TF.SameCoordinates,Original*
G04 #@! TF.FileFunction,Copper,L1,Top*
G04 #@! TF.FilePolarity,Positive*
%FSLAX46Y46*%
G04 Gerber Fmt 4.6, Leading zero omitted, Abs format (unit mm)*
G04 Created by KiCad (PCBNEW 5.1.5-52549c5~84~ubuntu18.04.1) date 2020-01-17 10:26:32*
%MOMM*%
%LPD*%
G04 APERTURE LIST*
%ADD10C,1.950000*%
%ADD11O,1.600000X1.600000*%
%ADD12C,1.600000*%
%ADD13O,1.700000X1.700000*%
%ADD14R,1.700000X1.700000*%
%ADD15O,2.200000X2.200000*%
%ADD16R,2.200000X2.200000*%
%ADD17R,1.600000X1.600000*%
%ADD18C,0.254000*%
%ADD19C,0.508000*%
G04 APERTURE END LIST*
D10*
X113952000Y-97369000D03*
X113952000Y-92369000D03*
X123952000Y-87369000D03*
X126452000Y-89869000D03*
X123952000Y-102369000D03*
X126452000Y-99869000D03*
X123952000Y-94869000D03*
X113952000Y-117943000D03*
X113952000Y-112943000D03*
X123952000Y-107943000D03*
X126452000Y-110443000D03*
X123952000Y-122943000D03*
X126452000Y-120443000D03*
X123952000Y-115443000D03*
D11*
X128905000Y-105918000D03*
D12*
X136525000Y-105918000D03*
D11*
X139319000Y-105918000D03*
D12*
X146939000Y-105918000D03*
D11*
X131318000Y-101092000D03*
D12*
X131318000Y-93472000D03*
D11*
X130302000Y-112141000D03*
D12*
X137922000Y-112141000D03*
D11*
X130302000Y-118364000D03*
D12*
X137922000Y-118364000D03*
D13*
X143891000Y-120015000D03*
X143891000Y-117475000D03*
X143891000Y-114935000D03*
D14*
X143891000Y-112395000D03*
D15*
X131318000Y-88265000D03*
D16*
X138938000Y-88265000D03*
D11*
X144399000Y-101092000D03*
X136779000Y-93472000D03*
X141859000Y-101092000D03*
X139319000Y-93472000D03*
X139319000Y-101092000D03*
X141859000Y-93472000D03*
X136779000Y-101092000D03*
D17*
X144399000Y-93472000D03*
D18*
X128604000Y-110443000D02*
X130302000Y-112141000D01*
X126452000Y-110443000D02*
X128604000Y-110443000D01*
X128223000Y-120443000D02*
X130302000Y-118364000D01*
X126452000Y-120443000D02*
X128223000Y-120443000D01*
X127675000Y-101092000D02*
X131318000Y-101092000D01*
X126452000Y-99869000D02*
X127675000Y-101092000D01*
X126452000Y-89869000D02*
X127936000Y-89869000D01*
X129540000Y-88265000D02*
X131318000Y-88265000D01*
X127936000Y-89869000D02*
X129540000Y-88265000D01*
X141859000Y-91948000D02*
X141859000Y-93472000D01*
X131318000Y-92340630D02*
X132599630Y-91059000D01*
X131318000Y-93472000D02*
X131318000Y-92340630D01*
X140970000Y-91059000D02*
X141859000Y-91948000D01*
X138938000Y-88265000D02*
X138938000Y-91059000D01*
X132599630Y-91059000D02*
X138938000Y-91059000D01*
X138938000Y-91059000D02*
X140970000Y-91059000D01*
D19*
X144399000Y-109220000D02*
X146050000Y-109220000D01*
X143891000Y-112395000D02*
X143891000Y-109728000D01*
X143891000Y-109728000D02*
X144399000Y-109220000D01*
X144399000Y-102616000D02*
X144399000Y-101092000D01*
X145923000Y-103251000D02*
X145034000Y-103251000D01*
X145034000Y-103251000D02*
X144399000Y-102616000D01*
X140716000Y-113157000D02*
X140716000Y-117729000D01*
X140081000Y-118364000D02*
X137922000Y-118364000D01*
X140716000Y-117729000D02*
X140081000Y-118364000D01*
X143891000Y-112395000D02*
X141478000Y-112395000D01*
X141478000Y-112395000D02*
X140716000Y-113157000D01*
X146050000Y-109220000D02*
X146939000Y-108331000D01*
X146939000Y-108331000D02*
X146939000Y-105918000D01*
X146939000Y-105918000D02*
X146939000Y-104267000D01*
X146939000Y-104267000D02*
X145923000Y-103251000D01*
D18*
X137160000Y-103378000D02*
X136525000Y-104013000D01*
X141351000Y-103378000D02*
X137160000Y-103378000D01*
X141859000Y-101092000D02*
X141859000Y-102870000D01*
X136525000Y-104013000D02*
X136525000Y-105918000D01*
X141859000Y-102870000D02*
X141351000Y-103378000D01*
G36*
X148388000Y-125147000D02*
G01*
X111708000Y-125147000D01*
X111708000Y-122784429D01*
X122342000Y-122784429D01*
X122342000Y-123101571D01*
X122403871Y-123412620D01*
X122525237Y-123705621D01*
X122701431Y-123969315D01*
X122925685Y-124193569D01*
X123189379Y-124369763D01*
X123482380Y-124491129D01*
X123793429Y-124553000D01*
X124110571Y-124553000D01*
X124421620Y-124491129D01*
X124714621Y-124369763D01*
X124978315Y-124193569D01*
X125202569Y-123969315D01*
X125378763Y-123705621D01*
X125500129Y-123412620D01*
X125562000Y-123101571D01*
X125562000Y-122784429D01*
X125500129Y-122473380D01*
X125378763Y-122180379D01*
X125202569Y-121916685D01*
X124978315Y-121692431D01*
X124714621Y-121516237D01*
X124421620Y-121394871D01*
X124110571Y-121333000D01*
X123793429Y-121333000D01*
X123482380Y-121394871D01*
X123189379Y-121516237D01*
X122925685Y-121692431D01*
X122701431Y-121916685D01*
X122525237Y-122180379D01*
X122403871Y-122473380D01*
X122342000Y-122784429D01*
X111708000Y-122784429D01*
X111708000Y-120284429D01*
X124842000Y-120284429D01*
X124842000Y-120601571D01*
X124903871Y-120912620D01*
X125025237Y-121205621D01*
X125201431Y-121469315D01*
X125425685Y-121693569D01*
X125689379Y-121869763D01*
X125982380Y-121991129D01*
X126293429Y-122053000D01*
X126610571Y-122053000D01*
X126921620Y-121991129D01*
X127214621Y-121869763D01*
X127478315Y-121693569D01*
X127702569Y-121469315D01*
X127878763Y-121205621D01*
X127879020Y-121205000D01*
X128185577Y-121205000D01*
X128223000Y-121208686D01*
X128260423Y-121205000D01*
X128260426Y-121205000D01*
X128372378Y-121193974D01*
X128516015Y-121150402D01*
X128648392Y-121079645D01*
X128764422Y-120984422D01*
X128788284Y-120955346D01*
X129980473Y-119763157D01*
X130160665Y-119799000D01*
X130443335Y-119799000D01*
X130720574Y-119743853D01*
X130981727Y-119635680D01*
X131216759Y-119478637D01*
X131416637Y-119278759D01*
X131573680Y-119043727D01*
X131681853Y-118782574D01*
X131737000Y-118505335D01*
X131737000Y-118222665D01*
X131681853Y-117945426D01*
X131573680Y-117684273D01*
X131416637Y-117449241D01*
X131216759Y-117249363D01*
X130981727Y-117092320D01*
X130720574Y-116984147D01*
X130443335Y-116929000D01*
X130160665Y-116929000D01*
X129883426Y-116984147D01*
X129622273Y-117092320D01*
X129387241Y-117249363D01*
X129187363Y-117449241D01*
X129030320Y-117684273D01*
X128922147Y-117945426D01*
X128867000Y-118222665D01*
X128867000Y-118505335D01*
X128902843Y-118685527D01*
X127907370Y-119681000D01*
X127879020Y-119681000D01*
X127878763Y-119680379D01*
X127702569Y-119416685D01*
X127478315Y-119192431D01*
X127214621Y-119016237D01*
X126921620Y-118894871D01*
X126610571Y-118833000D01*
X126293429Y-118833000D01*
X125982380Y-118894871D01*
X125689379Y-119016237D01*
X125425685Y-119192431D01*
X125201431Y-119416685D01*
X125025237Y-119680379D01*
X124903871Y-119973380D01*
X124842000Y-120284429D01*
X111708000Y-120284429D01*
X111708000Y-117784429D01*
X112342000Y-117784429D01*
X112342000Y-118101571D01*
X112403871Y-118412620D01*
X112525237Y-118705621D01*
X112701431Y-118969315D01*
X112925685Y-119193569D01*
X113189379Y-119369763D01*
X113482380Y-119491129D01*
X113793429Y-119553000D01*
X114110571Y-119553000D01*
X114421620Y-119491129D01*
X114714621Y-119369763D01*
X114978315Y-119193569D01*
X115202569Y-118969315D01*
X115378763Y-118705621D01*
X115500129Y-118412620D01*
X115562000Y-118101571D01*
X115562000Y-117784429D01*
X115500129Y-117473380D01*
X115378763Y-117180379D01*
X115202569Y-116916685D01*
X114978315Y-116692431D01*
X114780992Y-116560584D01*
X123014021Y-116560584D01*
X123106766Y-116822429D01*
X123392120Y-116960820D01*
X123698990Y-117040883D01*
X124015584Y-117059540D01*
X124329733Y-117016074D01*
X124629367Y-116912156D01*
X124797234Y-116822429D01*
X124889979Y-116560584D01*
X123952000Y-115622605D01*
X123014021Y-116560584D01*
X114780992Y-116560584D01*
X114714621Y-116516237D01*
X114421620Y-116394871D01*
X114110571Y-116333000D01*
X113793429Y-116333000D01*
X113482380Y-116394871D01*
X113189379Y-116516237D01*
X112925685Y-116692431D01*
X112701431Y-116916685D01*
X112525237Y-117180379D01*
X112403871Y-117473380D01*
X112342000Y-117784429D01*
X111708000Y-117784429D01*
X111708000Y-115506584D01*
X122335460Y-115506584D01*
X122378926Y-115820733D01*
X122482844Y-116120367D01*
X122572571Y-116288234D01*
X122834416Y-116380979D01*
X123772395Y-115443000D01*
X124131605Y-115443000D01*
X125069584Y-116380979D01*
X125331429Y-116288234D01*
X125469820Y-116002880D01*
X125549883Y-115696010D01*
X125568540Y-115379416D01*
X125525074Y-115065267D01*
X125421156Y-114765633D01*
X125331429Y-114597766D01*
X125069584Y-114505021D01*
X124131605Y-115443000D01*
X123772395Y-115443000D01*
X122834416Y-114505021D01*
X122572571Y-114597766D01*
X122434180Y-114883120D01*
X122354117Y-115189990D01*
X122335460Y-115506584D01*
X111708000Y-115506584D01*
X111708000Y-112784429D01*
X112342000Y-112784429D01*
X112342000Y-113101571D01*
X112403871Y-113412620D01*
X112525237Y-113705621D01*
X112701431Y-113969315D01*
X112925685Y-114193569D01*
X113189379Y-114369763D01*
X113482380Y-114491129D01*
X113793429Y-114553000D01*
X114110571Y-114553000D01*
X114421620Y-114491129D01*
X114714621Y-114369763D01*
X114780991Y-114325416D01*
X123014021Y-114325416D01*
X123952000Y-115263395D01*
X124889979Y-114325416D01*
X124797234Y-114063571D01*
X124511880Y-113925180D01*
X124205010Y-113845117D01*
X123888416Y-113826460D01*
X123574267Y-113869926D01*
X123274633Y-113973844D01*
X123106766Y-114063571D01*
X123014021Y-114325416D01*
X114780991Y-114325416D01*
X114978315Y-114193569D01*
X115202569Y-113969315D01*
X115378763Y-113705621D01*
X115500129Y-113412620D01*
X115562000Y-113101571D01*
X115562000Y-112784429D01*
X115500129Y-112473380D01*
X115378763Y-112180379D01*
X115202569Y-111916685D01*
X114978315Y-111692431D01*
X114714621Y-111516237D01*
X114421620Y-111394871D01*
X114110571Y-111333000D01*
X113793429Y-111333000D01*
X113482380Y-111394871D01*
X113189379Y-111516237D01*
X112925685Y-111692431D01*
X112701431Y-111916685D01*
X112525237Y-112180379D01*
X112403871Y-112473380D01*
X112342000Y-112784429D01*
X111708000Y-112784429D01*
X111708000Y-110284429D01*
X124842000Y-110284429D01*
X124842000Y-110601571D01*
X124903871Y-110912620D01*
X125025237Y-111205621D01*
X125201431Y-111469315D01*
X125425685Y-111693569D01*
X125689379Y-111869763D01*
X125982380Y-111991129D01*
X126293429Y-112053000D01*
X126610571Y-112053000D01*
X126921620Y-111991129D01*
X127214621Y-111869763D01*
X127478315Y-111693569D01*
X127702569Y-111469315D01*
X127878763Y-111205621D01*
X127879020Y-111205000D01*
X128288370Y-111205000D01*
X128902843Y-111819473D01*
X128867000Y-111999665D01*
X128867000Y-112282335D01*
X128922147Y-112559574D01*
X129030320Y-112820727D01*
X129187363Y-113055759D01*
X129387241Y-113255637D01*
X129622273Y-113412680D01*
X129883426Y-113520853D01*
X130160665Y-113576000D01*
X130443335Y-113576000D01*
X130720574Y-113520853D01*
X130981727Y-113412680D01*
X131216759Y-113255637D01*
X131416637Y-113055759D01*
X131573680Y-112820727D01*
X131681853Y-112559574D01*
X131737000Y-112282335D01*
X131737000Y-111999665D01*
X136487000Y-111999665D01*
X136487000Y-112282335D01*
X136542147Y-112559574D01*
X136650320Y-112820727D01*
X136807363Y-113055759D01*
X137007241Y-113255637D01*
X137242273Y-113412680D01*
X137503426Y-113520853D01*
X137780665Y-113576000D01*
X138063335Y-113576000D01*
X138340574Y-113520853D01*
X138601727Y-113412680D01*
X138836759Y-113255637D01*
X139036637Y-113055759D01*
X139193680Y-112820727D01*
X139301853Y-112559574D01*
X139357000Y-112282335D01*
X139357000Y-111999665D01*
X139301853Y-111722426D01*
X139193680Y-111461273D01*
X139036637Y-111226241D01*
X138836759Y-111026363D01*
X138601727Y-110869320D01*
X138340574Y-110761147D01*
X138063335Y-110706000D01*
X137780665Y-110706000D01*
X137503426Y-110761147D01*
X137242273Y-110869320D01*
X137007241Y-111026363D01*
X136807363Y-111226241D01*
X136650320Y-111461273D01*
X136542147Y-111722426D01*
X136487000Y-111999665D01*
X131737000Y-111999665D01*
X131681853Y-111722426D01*
X131573680Y-111461273D01*
X131416637Y-111226241D01*
X131216759Y-111026363D01*
X130981727Y-110869320D01*
X130720574Y-110761147D01*
X130443335Y-110706000D01*
X130160665Y-110706000D01*
X129980473Y-110741843D01*
X129169284Y-109930654D01*
X129145422Y-109901578D01*
X129029392Y-109806355D01*
X128897015Y-109735598D01*
X128753378Y-109692026D01*
X128641426Y-109681000D01*
X128641423Y-109681000D01*
X128604000Y-109677314D01*
X128566577Y-109681000D01*
X127879020Y-109681000D01*
X127878763Y-109680379D01*
X127702569Y-109416685D01*
X127478315Y-109192431D01*
X127214621Y-109016237D01*
X126921620Y-108894871D01*
X126610571Y-108833000D01*
X126293429Y-108833000D01*
X125982380Y-108894871D01*
X125689379Y-109016237D01*
X125425685Y-109192431D01*
X125201431Y-109416685D01*
X125025237Y-109680379D01*
X124903871Y-109973380D01*
X124842000Y-110284429D01*
X111708000Y-110284429D01*
X111708000Y-107784429D01*
X122342000Y-107784429D01*
X122342000Y-108101571D01*
X122403871Y-108412620D01*
X122525237Y-108705621D01*
X122701431Y-108969315D01*
X122925685Y-109193569D01*
X123189379Y-109369763D01*
X123482380Y-109491129D01*
X123793429Y-109553000D01*
X124110571Y-109553000D01*
X124421620Y-109491129D01*
X124714621Y-109369763D01*
X124978315Y-109193569D01*
X125202569Y-108969315D01*
X125378763Y-108705621D01*
X125500129Y-108412620D01*
X125562000Y-108101571D01*
X125562000Y-107784429D01*
X125500129Y-107473380D01*
X125378763Y-107180379D01*
X125202569Y-106916685D01*
X124978315Y-106692431D01*
X124714621Y-106516237D01*
X124421620Y-106394871D01*
X124110571Y-106333000D01*
X123793429Y-106333000D01*
X123482380Y-106394871D01*
X123189379Y-106516237D01*
X122925685Y-106692431D01*
X122701431Y-106916685D01*
X122525237Y-107180379D01*
X122403871Y-107473380D01*
X122342000Y-107784429D01*
X111708000Y-107784429D01*
X111708000Y-106267039D01*
X127513096Y-106267039D01*
X127553754Y-106401087D01*
X127673963Y-106655420D01*
X127841481Y-106881414D01*
X128049869Y-107070385D01*
X128291119Y-107215070D01*
X128555960Y-107309909D01*
X128778000Y-107188624D01*
X128778000Y-106045000D01*
X129032000Y-106045000D01*
X129032000Y-107188624D01*
X129254040Y-107309909D01*
X129518881Y-107215070D01*
X129760131Y-107070385D01*
X129968519Y-106881414D01*
X130136037Y-106655420D01*
X130256246Y-106401087D01*
X130296904Y-106267039D01*
X130174915Y-106045000D01*
X129032000Y-106045000D01*
X128778000Y-106045000D01*
X127635085Y-106045000D01*
X127513096Y-106267039D01*
X111708000Y-106267039D01*
X111708000Y-105568961D01*
X127513096Y-105568961D01*
X127635085Y-105791000D01*
X128778000Y-105791000D01*
X128778000Y-104647376D01*
X129032000Y-104647376D01*
X129032000Y-105791000D01*
X130174915Y-105791000D01*
X130182790Y-105776665D01*
X135090000Y-105776665D01*
X135090000Y-106059335D01*
X135145147Y-106336574D01*
X135253320Y-106597727D01*
X135410363Y-106832759D01*
X135610241Y-107032637D01*
X135845273Y-107189680D01*
X136106426Y-107297853D01*
X136383665Y-107353000D01*
X136666335Y-107353000D01*
X136943574Y-107297853D01*
X137204727Y-107189680D01*
X137439759Y-107032637D01*
X137639637Y-106832759D01*
X137796680Y-106597727D01*
X137904853Y-106336574D01*
X137922000Y-106250371D01*
X137939147Y-106336574D01*
X138047320Y-106597727D01*
X138204363Y-106832759D01*
X138404241Y-107032637D01*
X138639273Y-107189680D01*
X138900426Y-107297853D01*
X139177665Y-107353000D01*
X139460335Y-107353000D01*
X139737574Y-107297853D01*
X139998727Y-107189680D01*
X140233759Y-107032637D01*
X140433637Y-106832759D01*
X140590680Y-106597727D01*
X140698853Y-106336574D01*
X140754000Y-106059335D01*
X140754000Y-105776665D01*
X140698853Y-105499426D01*
X140590680Y-105238273D01*
X140433637Y-105003241D01*
X140233759Y-104803363D01*
X139998727Y-104646320D01*
X139737574Y-104538147D01*
X139460335Y-104483000D01*
X139177665Y-104483000D01*
X138900426Y-104538147D01*
X138639273Y-104646320D01*
X138404241Y-104803363D01*
X138204363Y-105003241D01*
X138047320Y-105238273D01*
X137939147Y-105499426D01*
X137922000Y-105585629D01*
X137904853Y-105499426D01*
X137796680Y-105238273D01*
X137639637Y-105003241D01*
X137439759Y-104803363D01*
X137287000Y-104701293D01*
X137287000Y-104328630D01*
X137475630Y-104140000D01*
X141313577Y-104140000D01*
X141351000Y-104143686D01*
X141388423Y-104140000D01*
X141388426Y-104140000D01*
X141500378Y-104128974D01*
X141644015Y-104085402D01*
X141776392Y-104014645D01*
X141892422Y-103919422D01*
X141916284Y-103890346D01*
X142371346Y-103435284D01*
X142400422Y-103411422D01*
X142495645Y-103295392D01*
X142566402Y-103163015D01*
X142609974Y-103019378D01*
X142621000Y-102907426D01*
X142621000Y-102907417D01*
X142624685Y-102870001D01*
X142621000Y-102832585D01*
X142621000Y-102308707D01*
X142773759Y-102206637D01*
X142973637Y-102006759D01*
X143129000Y-101774241D01*
X143284363Y-102006759D01*
X143484241Y-102206637D01*
X143510000Y-102223849D01*
X143510000Y-102572340D01*
X143505700Y-102616000D01*
X143510000Y-102659660D01*
X143510000Y-102659666D01*
X143522864Y-102790273D01*
X143573697Y-102957850D01*
X143656247Y-103112290D01*
X143767341Y-103247659D01*
X143801263Y-103275498D01*
X144374504Y-103848740D01*
X144402341Y-103882659D01*
X144537709Y-103993753D01*
X144692149Y-104076303D01*
X144808892Y-104111716D01*
X144859725Y-104127136D01*
X144876325Y-104128771D01*
X144990333Y-104140000D01*
X144990340Y-104140000D01*
X145034000Y-104144300D01*
X145077660Y-104140000D01*
X145554765Y-104140000D01*
X146050001Y-104635236D01*
X146050001Y-104786151D01*
X146024241Y-104803363D01*
X145824363Y-105003241D01*
X145667320Y-105238273D01*
X145559147Y-105499426D01*
X145504000Y-105776665D01*
X145504000Y-106059335D01*
X145559147Y-106336574D01*
X145667320Y-106597727D01*
X145824363Y-106832759D01*
X146024241Y-107032637D01*
X146050001Y-107049849D01*
X146050000Y-107962764D01*
X145681765Y-108331000D01*
X144442659Y-108331000D01*
X144398999Y-108326700D01*
X144355339Y-108331000D01*
X144355333Y-108331000D01*
X144257924Y-108340594D01*
X144224724Y-108343864D01*
X144123184Y-108374666D01*
X144057149Y-108394697D01*
X143902709Y-108477247D01*
X143767341Y-108588341D01*
X143739501Y-108622264D01*
X143293259Y-109068506D01*
X143259342Y-109096341D01*
X143231507Y-109130258D01*
X143231505Y-109130260D01*
X143148248Y-109231709D01*
X143065698Y-109386148D01*
X143014864Y-109553726D01*
X142997700Y-109728000D01*
X143002001Y-109771670D01*
X143002001Y-110910769D01*
X142916518Y-110919188D01*
X142796820Y-110955498D01*
X142686506Y-111014463D01*
X142589815Y-111093815D01*
X142510463Y-111190506D01*
X142451498Y-111300820D01*
X142415188Y-111420518D01*
X142406769Y-111506000D01*
X141521660Y-111506000D01*
X141478000Y-111501700D01*
X141434340Y-111506000D01*
X141434333Y-111506000D01*
X141330398Y-111516237D01*
X141303725Y-111518864D01*
X141252892Y-111534284D01*
X141136149Y-111569697D01*
X140981709Y-111652247D01*
X140846341Y-111763341D01*
X140818505Y-111797259D01*
X140118263Y-112497501D01*
X140084341Y-112525341D01*
X139973247Y-112660710D01*
X139890697Y-112815150D01*
X139839864Y-112982727D01*
X139827000Y-113113334D01*
X139827000Y-113113340D01*
X139822700Y-113157000D01*
X139827000Y-113200660D01*
X139827001Y-117360764D01*
X139712765Y-117475000D01*
X139053849Y-117475000D01*
X139036637Y-117449241D01*
X138836759Y-117249363D01*
X138601727Y-117092320D01*
X138340574Y-116984147D01*
X138063335Y-116929000D01*
X137780665Y-116929000D01*
X137503426Y-116984147D01*
X137242273Y-117092320D01*
X137007241Y-117249363D01*
X136807363Y-117449241D01*
X136650320Y-117684273D01*
X136542147Y-117945426D01*
X136487000Y-118222665D01*
X136487000Y-118505335D01*
X136542147Y-118782574D01*
X136650320Y-119043727D01*
X136807363Y-119278759D01*
X137007241Y-119478637D01*
X137242273Y-119635680D01*
X137503426Y-119743853D01*
X137780665Y-119799000D01*
X138063335Y-119799000D01*
X138340574Y-119743853D01*
X138601727Y-119635680D01*
X138836759Y-119478637D01*
X139036637Y-119278759D01*
X139053849Y-119253000D01*
X140037340Y-119253000D01*
X140081000Y-119257300D01*
X140124660Y-119253000D01*
X140124667Y-119253000D01*
X140255274Y-119240136D01*
X140422851Y-119189303D01*
X140577291Y-119106753D01*
X140712659Y-118995659D01*
X140740498Y-118961737D01*
X141313741Y-118388495D01*
X141347659Y-118360659D01*
X141458753Y-118225291D01*
X141541303Y-118070851D01*
X141581418Y-117938608D01*
X141592136Y-117903275D01*
X141600084Y-117822579D01*
X141605000Y-117772667D01*
X141605000Y-117772660D01*
X141609300Y-117729000D01*
X141605000Y-117685340D01*
X141605000Y-117328740D01*
X142406000Y-117328740D01*
X142406000Y-117621260D01*
X142463068Y-117908158D01*
X142575010Y-118178411D01*
X142737525Y-118421632D01*
X142944368Y-118628475D01*
X143118760Y-118745000D01*
X142944368Y-118861525D01*
X142737525Y-119068368D01*
X142575010Y-119311589D01*
X142463068Y-119581842D01*
X142406000Y-119868740D01*
X142406000Y-120161260D01*
X142463068Y-120448158D01*
X142575010Y-120718411D01*
X142737525Y-120961632D01*
X142944368Y-121168475D01*
X143187589Y-121330990D01*
X143457842Y-121442932D01*
X143744740Y-121500000D01*
X144037260Y-121500000D01*
X144324158Y-121442932D01*
X144594411Y-121330990D01*
X144837632Y-121168475D01*
X145044475Y-120961632D01*
X145206990Y-120718411D01*
X145318932Y-120448158D01*
X145376000Y-120161260D01*
X145376000Y-119868740D01*
X145318932Y-119581842D01*
X145206990Y-119311589D01*
X145044475Y-119068368D01*
X144837632Y-118861525D01*
X144663240Y-118745000D01*
X144837632Y-118628475D01*
X145044475Y-118421632D01*
X145206990Y-118178411D01*
X145318932Y-117908158D01*
X145376000Y-117621260D01*
X145376000Y-117328740D01*
X145318932Y-117041842D01*
X145206990Y-116771589D01*
X145044475Y-116528368D01*
X144837632Y-116321525D01*
X144655466Y-116199805D01*
X144772355Y-116130178D01*
X144988588Y-115935269D01*
X145162641Y-115701920D01*
X145287825Y-115439099D01*
X145332476Y-115291890D01*
X145211155Y-115062000D01*
X144018000Y-115062000D01*
X144018000Y-115082000D01*
X143764000Y-115082000D01*
X143764000Y-115062000D01*
X142570845Y-115062000D01*
X142449524Y-115291890D01*
X142494175Y-115439099D01*
X142619359Y-115701920D01*
X142793412Y-115935269D01*
X143009645Y-116130178D01*
X143126534Y-116199805D01*
X142944368Y-116321525D01*
X142737525Y-116528368D01*
X142575010Y-116771589D01*
X142463068Y-117041842D01*
X142406000Y-117328740D01*
X141605000Y-117328740D01*
X141605000Y-113525235D01*
X141846236Y-113284000D01*
X142406769Y-113284000D01*
X142415188Y-113369482D01*
X142451498Y-113489180D01*
X142510463Y-113599494D01*
X142589815Y-113696185D01*
X142686506Y-113775537D01*
X142796820Y-113834502D01*
X142877466Y-113858966D01*
X142793412Y-113934731D01*
X142619359Y-114168080D01*
X142494175Y-114430901D01*
X142449524Y-114578110D01*
X142570845Y-114808000D01*
X143764000Y-114808000D01*
X143764000Y-114788000D01*
X144018000Y-114788000D01*
X144018000Y-114808000D01*
X145211155Y-114808000D01*
X145332476Y-114578110D01*
X145287825Y-114430901D01*
X145162641Y-114168080D01*
X144988588Y-113934731D01*
X144904534Y-113858966D01*
X144985180Y-113834502D01*
X145095494Y-113775537D01*
X145192185Y-113696185D01*
X145271537Y-113599494D01*
X145330502Y-113489180D01*
X145366812Y-113369482D01*
X145379072Y-113245000D01*
X145379072Y-111545000D01*
X145366812Y-111420518D01*
X145330502Y-111300820D01*
X145271537Y-111190506D01*
X145192185Y-111093815D01*
X145095494Y-111014463D01*
X144985180Y-110955498D01*
X144865482Y-110919188D01*
X144780000Y-110910769D01*
X144780000Y-110109000D01*
X146006340Y-110109000D01*
X146050000Y-110113300D01*
X146093660Y-110109000D01*
X146093667Y-110109000D01*
X146224274Y-110096136D01*
X146391851Y-110045303D01*
X146546291Y-109962753D01*
X146681659Y-109851659D01*
X146709499Y-109817737D01*
X147536742Y-108990493D01*
X147570659Y-108962659D01*
X147681753Y-108827291D01*
X147764303Y-108672851D01*
X147815136Y-108505274D01*
X147828000Y-108374667D01*
X147828000Y-108374660D01*
X147832300Y-108331000D01*
X147828000Y-108287340D01*
X147828000Y-107049849D01*
X147853759Y-107032637D01*
X148053637Y-106832759D01*
X148210680Y-106597727D01*
X148318853Y-106336574D01*
X148374000Y-106059335D01*
X148374000Y-105776665D01*
X148318853Y-105499426D01*
X148210680Y-105238273D01*
X148053637Y-105003241D01*
X147853759Y-104803363D01*
X147828000Y-104786151D01*
X147828000Y-104310660D01*
X147832300Y-104267000D01*
X147828000Y-104223340D01*
X147828000Y-104223333D01*
X147815136Y-104092726D01*
X147812915Y-104085402D01*
X147779599Y-103975574D01*
X147764303Y-103925149D01*
X147681753Y-103770709D01*
X147570659Y-103635341D01*
X147536741Y-103607505D01*
X146582499Y-102653264D01*
X146554659Y-102619341D01*
X146419291Y-102508247D01*
X146264851Y-102425697D01*
X146097274Y-102374864D01*
X145966667Y-102362000D01*
X145966660Y-102362000D01*
X145923000Y-102357700D01*
X145879340Y-102362000D01*
X145402236Y-102362000D01*
X145288000Y-102247765D01*
X145288000Y-102223849D01*
X145313759Y-102206637D01*
X145513637Y-102006759D01*
X145670680Y-101771727D01*
X145778853Y-101510574D01*
X145834000Y-101233335D01*
X145834000Y-100950665D01*
X145778853Y-100673426D01*
X145670680Y-100412273D01*
X145513637Y-100177241D01*
X145313759Y-99977363D01*
X145078727Y-99820320D01*
X144817574Y-99712147D01*
X144540335Y-99657000D01*
X144257665Y-99657000D01*
X143980426Y-99712147D01*
X143719273Y-99820320D01*
X143484241Y-99977363D01*
X143284363Y-100177241D01*
X143129000Y-100409759D01*
X142973637Y-100177241D01*
X142773759Y-99977363D01*
X142538727Y-99820320D01*
X142277574Y-99712147D01*
X142000335Y-99657000D01*
X141717665Y-99657000D01*
X141440426Y-99712147D01*
X141179273Y-99820320D01*
X140944241Y-99977363D01*
X140744363Y-100177241D01*
X140589000Y-100409759D01*
X140433637Y-100177241D01*
X140233759Y-99977363D01*
X139998727Y-99820320D01*
X139737574Y-99712147D01*
X139460335Y-99657000D01*
X139177665Y-99657000D01*
X138900426Y-99712147D01*
X138639273Y-99820320D01*
X138404241Y-99977363D01*
X138204363Y-100177241D01*
X138047320Y-100412273D01*
X138042933Y-100422865D01*
X137931385Y-100236869D01*
X137742414Y-100028481D01*
X137516420Y-99860963D01*
X137262087Y-99740754D01*
X137128039Y-99700096D01*
X136906000Y-99822085D01*
X136906000Y-100965000D01*
X136926000Y-100965000D01*
X136926000Y-101219000D01*
X136906000Y-101219000D01*
X136906000Y-102361915D01*
X137128039Y-102483904D01*
X137262087Y-102443246D01*
X137516420Y-102323037D01*
X137742414Y-102155519D01*
X137931385Y-101947131D01*
X138042933Y-101761135D01*
X138047320Y-101771727D01*
X138204363Y-102006759D01*
X138404241Y-102206637D01*
X138639273Y-102363680D01*
X138900426Y-102471853D01*
X139177665Y-102527000D01*
X139460335Y-102527000D01*
X139737574Y-102471853D01*
X139998727Y-102363680D01*
X140233759Y-102206637D01*
X140433637Y-102006759D01*
X140589000Y-101774241D01*
X140744363Y-102006759D01*
X140944241Y-102206637D01*
X141097001Y-102308708D01*
X141097001Y-102554369D01*
X141035370Y-102616000D01*
X137197423Y-102616000D01*
X137160000Y-102612314D01*
X137122577Y-102616000D01*
X137122574Y-102616000D01*
X137010622Y-102627026D01*
X136866985Y-102670598D01*
X136805364Y-102703535D01*
X136734607Y-102741355D01*
X136692219Y-102776143D01*
X136618578Y-102836578D01*
X136594716Y-102865654D01*
X136012654Y-103447716D01*
X135983578Y-103471578D01*
X135954800Y-103506645D01*
X135888355Y-103587608D01*
X135871272Y-103619569D01*
X135817598Y-103719986D01*
X135774026Y-103863623D01*
X135766181Y-103943279D01*
X135759314Y-104013000D01*
X135763000Y-104050424D01*
X135763000Y-104701293D01*
X135610241Y-104803363D01*
X135410363Y-105003241D01*
X135253320Y-105238273D01*
X135145147Y-105499426D01*
X135090000Y-105776665D01*
X130182790Y-105776665D01*
X130296904Y-105568961D01*
X130256246Y-105434913D01*
X130136037Y-105180580D01*
X129968519Y-104954586D01*
X129760131Y-104765615D01*
X129518881Y-104620930D01*
X129254040Y-104526091D01*
X129032000Y-104647376D01*
X128778000Y-104647376D01*
X128555960Y-104526091D01*
X128291119Y-104620930D01*
X128049869Y-104765615D01*
X127841481Y-104954586D01*
X127673963Y-105180580D01*
X127553754Y-105434913D01*
X127513096Y-105568961D01*
X111708000Y-105568961D01*
X111708000Y-102210429D01*
X122342000Y-102210429D01*
X122342000Y-102527571D01*
X122403871Y-102838620D01*
X122525237Y-103131621D01*
X122701431Y-103395315D01*
X122925685Y-103619569D01*
X123189379Y-103795763D01*
X123482380Y-103917129D01*
X123793429Y-103979000D01*
X124110571Y-103979000D01*
X124421620Y-103917129D01*
X124714621Y-103795763D01*
X124978315Y-103619569D01*
X125202569Y-103395315D01*
X125378763Y-103131621D01*
X125500129Y-102838620D01*
X125562000Y-102527571D01*
X125562000Y-102210429D01*
X125500129Y-101899380D01*
X125378763Y-101606379D01*
X125202569Y-101342685D01*
X124978315Y-101118431D01*
X124714621Y-100942237D01*
X124421620Y-100820871D01*
X124110571Y-100759000D01*
X123793429Y-100759000D01*
X123482380Y-100820871D01*
X123189379Y-100942237D01*
X122925685Y-101118431D01*
X122701431Y-101342685D01*
X122525237Y-101606379D01*
X122403871Y-101899380D01*
X122342000Y-102210429D01*
X111708000Y-102210429D01*
X111708000Y-99710429D01*
X124842000Y-99710429D01*
X124842000Y-100027571D01*
X124903871Y-100338620D01*
X125025237Y-100631621D01*
X125201431Y-100895315D01*
X125425685Y-101119569D01*
X125689379Y-101295763D01*
X125982380Y-101417129D01*
X126293429Y-101479000D01*
X126610571Y-101479000D01*
X126921620Y-101417129D01*
X126922241Y-101416872D01*
X127109721Y-101604352D01*
X127133578Y-101633422D01*
X127249608Y-101728645D01*
X127381985Y-101799402D01*
X127525622Y-101842974D01*
X127637574Y-101854000D01*
X127637576Y-101854000D01*
X127674999Y-101857686D01*
X127712422Y-101854000D01*
X130101293Y-101854000D01*
X130203363Y-102006759D01*
X130403241Y-102206637D01*
X130638273Y-102363680D01*
X130899426Y-102471853D01*
X131176665Y-102527000D01*
X131459335Y-102527000D01*
X131736574Y-102471853D01*
X131997727Y-102363680D01*
X132232759Y-102206637D01*
X132432637Y-102006759D01*
X132589680Y-101771727D01*
X132697853Y-101510574D01*
X132711684Y-101441040D01*
X135387091Y-101441040D01*
X135481930Y-101705881D01*
X135626615Y-101947131D01*
X135815586Y-102155519D01*
X136041580Y-102323037D01*
X136295913Y-102443246D01*
X136429961Y-102483904D01*
X136652000Y-102361915D01*
X136652000Y-101219000D01*
X135508376Y-101219000D01*
X135387091Y-101441040D01*
X132711684Y-101441040D01*
X132753000Y-101233335D01*
X132753000Y-100950665D01*
X132711685Y-100742960D01*
X135387091Y-100742960D01*
X135508376Y-100965000D01*
X136652000Y-100965000D01*
X136652000Y-99822085D01*
X136429961Y-99700096D01*
X136295913Y-99740754D01*
X136041580Y-99860963D01*
X135815586Y-100028481D01*
X135626615Y-100236869D01*
X135481930Y-100478119D01*
X135387091Y-100742960D01*
X132711685Y-100742960D01*
X132697853Y-100673426D01*
X132589680Y-100412273D01*
X132432637Y-100177241D01*
X132232759Y-99977363D01*
X131997727Y-99820320D01*
X131736574Y-99712147D01*
X131459335Y-99657000D01*
X131176665Y-99657000D01*
X130899426Y-99712147D01*
X130638273Y-99820320D01*
X130403241Y-99977363D01*
X130203363Y-100177241D01*
X130101293Y-100330000D01*
X128001844Y-100330000D01*
X128062000Y-100027571D01*
X128062000Y-99710429D01*
X128000129Y-99399380D01*
X127878763Y-99106379D01*
X127702569Y-98842685D01*
X127478315Y-98618431D01*
X127214621Y-98442237D01*
X126921620Y-98320871D01*
X126610571Y-98259000D01*
X126293429Y-98259000D01*
X125982380Y-98320871D01*
X125689379Y-98442237D01*
X125425685Y-98618431D01*
X125201431Y-98842685D01*
X125025237Y-99106379D01*
X124903871Y-99399380D01*
X124842000Y-99710429D01*
X111708000Y-99710429D01*
X111708000Y-97210429D01*
X112342000Y-97210429D01*
X112342000Y-97527571D01*
X112403871Y-97838620D01*
X112525237Y-98131621D01*
X112701431Y-98395315D01*
X112925685Y-98619569D01*
X113189379Y-98795763D01*
X113482380Y-98917129D01*
X113793429Y-98979000D01*
X114110571Y-98979000D01*
X114421620Y-98917129D01*
X114714621Y-98795763D01*
X114978315Y-98619569D01*
X115202569Y-98395315D01*
X115378763Y-98131621D01*
X115500129Y-97838620D01*
X115562000Y-97527571D01*
X115562000Y-97210429D01*
X115500129Y-96899380D01*
X115378763Y-96606379D01*
X115202569Y-96342685D01*
X114978315Y-96118431D01*
X114714621Y-95942237D01*
X114421620Y-95820871D01*
X114110571Y-95759000D01*
X113793429Y-95759000D01*
X113482380Y-95820871D01*
X113189379Y-95942237D01*
X112925685Y-96118431D01*
X112701431Y-96342685D01*
X112525237Y-96606379D01*
X112403871Y-96899380D01*
X112342000Y-97210429D01*
X111708000Y-97210429D01*
X111708000Y-94710429D01*
X122342000Y-94710429D01*
X122342000Y-95027571D01*
X122403871Y-95338620D01*
X122525237Y-95631621D01*
X122701431Y-95895315D01*
X122925685Y-96119569D01*
X123189379Y-96295763D01*
X123482380Y-96417129D01*
X123793429Y-96479000D01*
X124110571Y-96479000D01*
X124421620Y-96417129D01*
X124714621Y-96295763D01*
X124978315Y-96119569D01*
X125202569Y-95895315D01*
X125378763Y-95631621D01*
X125500129Y-95338620D01*
X125562000Y-95027571D01*
X125562000Y-94710429D01*
X125500129Y-94399380D01*
X125378763Y-94106379D01*
X125202569Y-93842685D01*
X124978315Y-93618431D01*
X124714621Y-93442237D01*
X124445265Y-93330665D01*
X129883000Y-93330665D01*
X129883000Y-93613335D01*
X129938147Y-93890574D01*
X130046320Y-94151727D01*
X130203363Y-94386759D01*
X130403241Y-94586637D01*
X130638273Y-94743680D01*
X130899426Y-94851853D01*
X131176665Y-94907000D01*
X131459335Y-94907000D01*
X131736574Y-94851853D01*
X131997727Y-94743680D01*
X132232759Y-94586637D01*
X132432637Y-94386759D01*
X132589680Y-94151727D01*
X132697853Y-93890574D01*
X132753000Y-93613335D01*
X132753000Y-93330665D01*
X132697853Y-93053426D01*
X132589680Y-92792273D01*
X132432637Y-92557241D01*
X132305828Y-92430432D01*
X132915260Y-91821000D01*
X138900575Y-91821000D01*
X138938000Y-91824686D01*
X138975426Y-91821000D01*
X140654370Y-91821000D01*
X141092002Y-92258633D01*
X140944241Y-92357363D01*
X140744363Y-92557241D01*
X140589000Y-92789759D01*
X140433637Y-92557241D01*
X140233759Y-92357363D01*
X139998727Y-92200320D01*
X139737574Y-92092147D01*
X139460335Y-92037000D01*
X139177665Y-92037000D01*
X138900426Y-92092147D01*
X138639273Y-92200320D01*
X138404241Y-92357363D01*
X138204363Y-92557241D01*
X138049000Y-92789759D01*
X137893637Y-92557241D01*
X137693759Y-92357363D01*
X137458727Y-92200320D01*
X137197574Y-92092147D01*
X136920335Y-92037000D01*
X136637665Y-92037000D01*
X136360426Y-92092147D01*
X136099273Y-92200320D01*
X135864241Y-92357363D01*
X135664363Y-92557241D01*
X135507320Y-92792273D01*
X135399147Y-93053426D01*
X135344000Y-93330665D01*
X135344000Y-93613335D01*
X135399147Y-93890574D01*
X135507320Y-94151727D01*
X135664363Y-94386759D01*
X135864241Y-94586637D01*
X136099273Y-94743680D01*
X136360426Y-94851853D01*
X136637665Y-94907000D01*
X136920335Y-94907000D01*
X137197574Y-94851853D01*
X137458727Y-94743680D01*
X137693759Y-94586637D01*
X137893637Y-94386759D01*
X138049000Y-94154241D01*
X138204363Y-94386759D01*
X138404241Y-94586637D01*
X138639273Y-94743680D01*
X138900426Y-94851853D01*
X139177665Y-94907000D01*
X139460335Y-94907000D01*
X139737574Y-94851853D01*
X139998727Y-94743680D01*
X140233759Y-94586637D01*
X140433637Y-94386759D01*
X140589000Y-94154241D01*
X140744363Y-94386759D01*
X140944241Y-94586637D01*
X141179273Y-94743680D01*
X141440426Y-94851853D01*
X141717665Y-94907000D01*
X142000335Y-94907000D01*
X142277574Y-94851853D01*
X142538727Y-94743680D01*
X142773759Y-94586637D01*
X142972357Y-94388039D01*
X142973188Y-94396482D01*
X143009498Y-94516180D01*
X143068463Y-94626494D01*
X143147815Y-94723185D01*
X143244506Y-94802537D01*
X143354820Y-94861502D01*
X143474518Y-94897812D01*
X143599000Y-94910072D01*
X145199000Y-94910072D01*
X145323482Y-94897812D01*
X145443180Y-94861502D01*
X145553494Y-94802537D01*
X145650185Y-94723185D01*
X145729537Y-94626494D01*
X145788502Y-94516180D01*
X145824812Y-94396482D01*
X145837072Y-94272000D01*
X145837072Y-92672000D01*
X145824812Y-92547518D01*
X145788502Y-92427820D01*
X145729537Y-92317506D01*
X145650185Y-92220815D01*
X145553494Y-92141463D01*
X145443180Y-92082498D01*
X145323482Y-92046188D01*
X145199000Y-92033928D01*
X143599000Y-92033928D01*
X143474518Y-92046188D01*
X143354820Y-92082498D01*
X143244506Y-92141463D01*
X143147815Y-92220815D01*
X143068463Y-92317506D01*
X143009498Y-92427820D01*
X142973188Y-92547518D01*
X142972357Y-92555961D01*
X142773759Y-92357363D01*
X142621000Y-92255293D01*
X142621000Y-91985423D01*
X142624686Y-91948000D01*
X142621000Y-91910574D01*
X142609974Y-91798622D01*
X142566402Y-91654985D01*
X142495646Y-91522609D01*
X142495645Y-91522607D01*
X142424279Y-91435648D01*
X142400422Y-91406578D01*
X142371353Y-91382722D01*
X141535284Y-90546653D01*
X141511422Y-90517578D01*
X141395392Y-90422355D01*
X141263015Y-90351598D01*
X141119378Y-90308026D01*
X141007426Y-90297000D01*
X141007423Y-90297000D01*
X140970000Y-90293314D01*
X140932577Y-90297000D01*
X139700000Y-90297000D01*
X139700000Y-90003072D01*
X140038000Y-90003072D01*
X140162482Y-89990812D01*
X140282180Y-89954502D01*
X140392494Y-89895537D01*
X140489185Y-89816185D01*
X140568537Y-89719494D01*
X140627502Y-89609180D01*
X140663812Y-89489482D01*
X140676072Y-89365000D01*
X140676072Y-87165000D01*
X140663812Y-87040518D01*
X140627502Y-86920820D01*
X140568537Y-86810506D01*
X140489185Y-86713815D01*
X140392494Y-86634463D01*
X140282180Y-86575498D01*
X140162482Y-86539188D01*
X140038000Y-86526928D01*
X137838000Y-86526928D01*
X137713518Y-86539188D01*
X137593820Y-86575498D01*
X137483506Y-86634463D01*
X137386815Y-86713815D01*
X137307463Y-86810506D01*
X137248498Y-86920820D01*
X137212188Y-87040518D01*
X137199928Y-87165000D01*
X137199928Y-89365000D01*
X137212188Y-89489482D01*
X137248498Y-89609180D01*
X137307463Y-89719494D01*
X137386815Y-89816185D01*
X137483506Y-89895537D01*
X137593820Y-89954502D01*
X137713518Y-89990812D01*
X137838000Y-90003072D01*
X138176001Y-90003072D01*
X138176001Y-90297000D01*
X132637053Y-90297000D01*
X132599630Y-90293314D01*
X132562207Y-90297000D01*
X132562204Y-90297000D01*
X132450252Y-90308026D01*
X132306615Y-90351598D01*
X132244994Y-90384535D01*
X132174237Y-90422355D01*
X132131849Y-90457143D01*
X132058208Y-90517578D01*
X132034346Y-90546654D01*
X130805649Y-91775351D01*
X130776579Y-91799208D01*
X130752722Y-91828278D01*
X130752721Y-91828279D01*
X130681355Y-91915238D01*
X130610599Y-92047615D01*
X130567027Y-92191252D01*
X130561052Y-92251917D01*
X130403241Y-92357363D01*
X130203363Y-92557241D01*
X130046320Y-92792273D01*
X129938147Y-93053426D01*
X129883000Y-93330665D01*
X124445265Y-93330665D01*
X124421620Y-93320871D01*
X124110571Y-93259000D01*
X123793429Y-93259000D01*
X123482380Y-93320871D01*
X123189379Y-93442237D01*
X122925685Y-93618431D01*
X122701431Y-93842685D01*
X122525237Y-94106379D01*
X122403871Y-94399380D01*
X122342000Y-94710429D01*
X111708000Y-94710429D01*
X111708000Y-92210429D01*
X112342000Y-92210429D01*
X112342000Y-92527571D01*
X112403871Y-92838620D01*
X112525237Y-93131621D01*
X112701431Y-93395315D01*
X112925685Y-93619569D01*
X113189379Y-93795763D01*
X113482380Y-93917129D01*
X113793429Y-93979000D01*
X114110571Y-93979000D01*
X114421620Y-93917129D01*
X114714621Y-93795763D01*
X114978315Y-93619569D01*
X115202569Y-93395315D01*
X115378763Y-93131621D01*
X115500129Y-92838620D01*
X115562000Y-92527571D01*
X115562000Y-92210429D01*
X115500129Y-91899380D01*
X115378763Y-91606379D01*
X115202569Y-91342685D01*
X114978315Y-91118431D01*
X114714621Y-90942237D01*
X114421620Y-90820871D01*
X114110571Y-90759000D01*
X113793429Y-90759000D01*
X113482380Y-90820871D01*
X113189379Y-90942237D01*
X112925685Y-91118431D01*
X112701431Y-91342685D01*
X112525237Y-91606379D01*
X112403871Y-91899380D01*
X112342000Y-92210429D01*
X111708000Y-92210429D01*
X111708000Y-89710429D01*
X124842000Y-89710429D01*
X124842000Y-90027571D01*
X124903871Y-90338620D01*
X125025237Y-90631621D01*
X125201431Y-90895315D01*
X125425685Y-91119569D01*
X125689379Y-91295763D01*
X125982380Y-91417129D01*
X126293429Y-91479000D01*
X126610571Y-91479000D01*
X126921620Y-91417129D01*
X127214621Y-91295763D01*
X127478315Y-91119569D01*
X127702569Y-90895315D01*
X127878763Y-90631621D01*
X127879020Y-90631000D01*
X127898577Y-90631000D01*
X127936000Y-90634686D01*
X127973423Y-90631000D01*
X127973426Y-90631000D01*
X128085378Y-90619974D01*
X128229015Y-90576402D01*
X128361392Y-90505645D01*
X128477422Y-90410422D01*
X128501284Y-90381346D01*
X129786606Y-89096024D01*
X129970337Y-89370998D01*
X130212002Y-89612663D01*
X130496169Y-89802537D01*
X130811919Y-89933325D01*
X131147117Y-90000000D01*
X131488883Y-90000000D01*
X131824081Y-89933325D01*
X132139831Y-89802537D01*
X132423998Y-89612663D01*
X132665663Y-89370998D01*
X132855537Y-89086831D01*
X132986325Y-88771081D01*
X133053000Y-88435883D01*
X133053000Y-88094117D01*
X132986325Y-87758919D01*
X132855537Y-87443169D01*
X132665663Y-87159002D01*
X132423998Y-86917337D01*
X132139831Y-86727463D01*
X131824081Y-86596675D01*
X131488883Y-86530000D01*
X131147117Y-86530000D01*
X130811919Y-86596675D01*
X130496169Y-86727463D01*
X130212002Y-86917337D01*
X129970337Y-87159002D01*
X129780463Y-87443169D01*
X129755680Y-87503000D01*
X129577423Y-87503000D01*
X129540000Y-87499314D01*
X129502577Y-87503000D01*
X129502574Y-87503000D01*
X129390622Y-87514026D01*
X129246985Y-87557598D01*
X129185364Y-87590535D01*
X129114607Y-87628355D01*
X129072219Y-87663143D01*
X128998578Y-87723578D01*
X128974716Y-87752654D01*
X127775514Y-88951856D01*
X127702569Y-88842685D01*
X127478315Y-88618431D01*
X127214621Y-88442237D01*
X126921620Y-88320871D01*
X126610571Y-88259000D01*
X126293429Y-88259000D01*
X125982380Y-88320871D01*
X125689379Y-88442237D01*
X125425685Y-88618431D01*
X125201431Y-88842685D01*
X125025237Y-89106379D01*
X124903871Y-89399380D01*
X124842000Y-89710429D01*
X111708000Y-89710429D01*
X111708000Y-87210429D01*
X122342000Y-87210429D01*
X122342000Y-87527571D01*
X122403871Y-87838620D01*
X122525237Y-88131621D01*
X122701431Y-88395315D01*
X122925685Y-88619569D01*
X123189379Y-88795763D01*
X123482380Y-88917129D01*
X123793429Y-88979000D01*
X124110571Y-88979000D01*
X124421620Y-88917129D01*
X124714621Y-88795763D01*
X124978315Y-88619569D01*
X125202569Y-88395315D01*
X125378763Y-88131621D01*
X125500129Y-87838620D01*
X125562000Y-87527571D01*
X125562000Y-87210429D01*
X125500129Y-86899380D01*
X125378763Y-86606379D01*
X125202569Y-86342685D01*
X124978315Y-86118431D01*
X124714621Y-85942237D01*
X124421620Y-85820871D01*
X124110571Y-85759000D01*
X123793429Y-85759000D01*
X123482380Y-85820871D01*
X123189379Y-85942237D01*
X122925685Y-86118431D01*
X122701431Y-86342685D01*
X122525237Y-86606379D01*
X122403871Y-86899380D01*
X122342000Y-87210429D01*
X111708000Y-87210429D01*
X111708000Y-85165000D01*
X148388001Y-85165000D01*
X148388000Y-125147000D01*
G37*
X148388000Y-125147000D02*
X111708000Y-125147000D01*
X111708000Y-122784429D01*
X122342000Y-122784429D01*
X122342000Y-123101571D01*
X122403871Y-123412620D01*
X122525237Y-123705621D01*
X122701431Y-123969315D01*
X122925685Y-124193569D01*
X123189379Y-124369763D01*
X123482380Y-124491129D01*
X123793429Y-124553000D01*
X124110571Y-124553000D01*
X124421620Y-124491129D01*
X124714621Y-124369763D01*
X124978315Y-124193569D01*
X125202569Y-123969315D01*
X125378763Y-123705621D01*
X125500129Y-123412620D01*
X125562000Y-123101571D01*
X125562000Y-122784429D01*
X125500129Y-122473380D01*
X125378763Y-122180379D01*
X125202569Y-121916685D01*
X124978315Y-121692431D01*
X124714621Y-121516237D01*
X124421620Y-121394871D01*
X124110571Y-121333000D01*
X123793429Y-121333000D01*
X123482380Y-121394871D01*
X123189379Y-121516237D01*
X122925685Y-121692431D01*
X122701431Y-121916685D01*
X122525237Y-122180379D01*
X122403871Y-122473380D01*
X122342000Y-122784429D01*
X111708000Y-122784429D01*
X111708000Y-120284429D01*
X124842000Y-120284429D01*
X124842000Y-120601571D01*
X124903871Y-120912620D01*
X125025237Y-121205621D01*
X125201431Y-121469315D01*
X125425685Y-121693569D01*
X125689379Y-121869763D01*
X125982380Y-121991129D01*
X126293429Y-122053000D01*
X126610571Y-122053000D01*
X126921620Y-121991129D01*
X127214621Y-121869763D01*
X127478315Y-121693569D01*
X127702569Y-121469315D01*
X127878763Y-121205621D01*
X127879020Y-121205000D01*
X128185577Y-121205000D01*
X128223000Y-121208686D01*
X128260423Y-121205000D01*
X128260426Y-121205000D01*
X128372378Y-121193974D01*
X128516015Y-121150402D01*
X128648392Y-121079645D01*
X128764422Y-120984422D01*
X128788284Y-120955346D01*
X129980473Y-119763157D01*
X130160665Y-119799000D01*
X130443335Y-119799000D01*
X130720574Y-119743853D01*
X130981727Y-119635680D01*
X131216759Y-119478637D01*
X131416637Y-119278759D01*
X131573680Y-119043727D01*
X131681853Y-118782574D01*
X131737000Y-118505335D01*
X131737000Y-118222665D01*
X131681853Y-117945426D01*
X131573680Y-117684273D01*
X131416637Y-117449241D01*
X131216759Y-117249363D01*
X130981727Y-117092320D01*
X130720574Y-116984147D01*
X130443335Y-116929000D01*
X130160665Y-116929000D01*
X129883426Y-116984147D01*
X129622273Y-117092320D01*
X129387241Y-117249363D01*
X129187363Y-117449241D01*
X129030320Y-117684273D01*
X128922147Y-117945426D01*
X128867000Y-118222665D01*
X128867000Y-118505335D01*
X128902843Y-118685527D01*
X127907370Y-119681000D01*
X127879020Y-119681000D01*
X127878763Y-119680379D01*
X127702569Y-119416685D01*
X127478315Y-119192431D01*
X127214621Y-119016237D01*
X126921620Y-118894871D01*
X126610571Y-118833000D01*
X126293429Y-118833000D01*
X125982380Y-118894871D01*
X125689379Y-119016237D01*
X125425685Y-119192431D01*
X125201431Y-119416685D01*
X125025237Y-119680379D01*
X124903871Y-119973380D01*
X124842000Y-120284429D01*
X111708000Y-120284429D01*
X111708000Y-117784429D01*
X112342000Y-117784429D01*
X112342000Y-118101571D01*
X112403871Y-118412620D01*
X112525237Y-118705621D01*
X112701431Y-118969315D01*
X112925685Y-119193569D01*
X113189379Y-119369763D01*
X113482380Y-119491129D01*
X113793429Y-119553000D01*
X114110571Y-119553000D01*
X114421620Y-119491129D01*
X114714621Y-119369763D01*
X114978315Y-119193569D01*
X115202569Y-118969315D01*
X115378763Y-118705621D01*
X115500129Y-118412620D01*
X115562000Y-118101571D01*
X115562000Y-117784429D01*
X115500129Y-117473380D01*
X115378763Y-117180379D01*
X115202569Y-116916685D01*
X114978315Y-116692431D01*
X114780992Y-116560584D01*
X123014021Y-116560584D01*
X123106766Y-116822429D01*
X123392120Y-116960820D01*
X123698990Y-117040883D01*
X124015584Y-117059540D01*
X124329733Y-117016074D01*
X124629367Y-116912156D01*
X124797234Y-116822429D01*
X124889979Y-116560584D01*
X123952000Y-115622605D01*
X123014021Y-116560584D01*
X114780992Y-116560584D01*
X114714621Y-116516237D01*
X114421620Y-116394871D01*
X114110571Y-116333000D01*
X113793429Y-116333000D01*
X113482380Y-116394871D01*
X113189379Y-116516237D01*
X112925685Y-116692431D01*
X112701431Y-116916685D01*
X112525237Y-117180379D01*
X112403871Y-117473380D01*
X112342000Y-117784429D01*
X111708000Y-117784429D01*
X111708000Y-115506584D01*
X122335460Y-115506584D01*
X122378926Y-115820733D01*
X122482844Y-116120367D01*
X122572571Y-116288234D01*
X122834416Y-116380979D01*
X123772395Y-115443000D01*
X124131605Y-115443000D01*
X125069584Y-116380979D01*
X125331429Y-116288234D01*
X125469820Y-116002880D01*
X125549883Y-115696010D01*
X125568540Y-115379416D01*
X125525074Y-115065267D01*
X125421156Y-114765633D01*
X125331429Y-114597766D01*
X125069584Y-114505021D01*
X124131605Y-115443000D01*
X123772395Y-115443000D01*
X122834416Y-114505021D01*
X122572571Y-114597766D01*
X122434180Y-114883120D01*
X122354117Y-115189990D01*
X122335460Y-115506584D01*
X111708000Y-115506584D01*
X111708000Y-112784429D01*
X112342000Y-112784429D01*
X112342000Y-113101571D01*
X112403871Y-113412620D01*
X112525237Y-113705621D01*
X112701431Y-113969315D01*
X112925685Y-114193569D01*
X113189379Y-114369763D01*
X113482380Y-114491129D01*
X113793429Y-114553000D01*
X114110571Y-114553000D01*
X114421620Y-114491129D01*
X114714621Y-114369763D01*
X114780991Y-114325416D01*
X123014021Y-114325416D01*
X123952000Y-115263395D01*
X124889979Y-114325416D01*
X124797234Y-114063571D01*
X124511880Y-113925180D01*
X124205010Y-113845117D01*
X123888416Y-113826460D01*
X123574267Y-113869926D01*
X123274633Y-113973844D01*
X123106766Y-114063571D01*
X123014021Y-114325416D01*
X114780991Y-114325416D01*
X114978315Y-114193569D01*
X115202569Y-113969315D01*
X115378763Y-113705621D01*
X115500129Y-113412620D01*
X115562000Y-113101571D01*
X115562000Y-112784429D01*
X115500129Y-112473380D01*
X115378763Y-112180379D01*
X115202569Y-111916685D01*
X114978315Y-111692431D01*
X114714621Y-111516237D01*
X114421620Y-111394871D01*
X114110571Y-111333000D01*
X113793429Y-111333000D01*
X113482380Y-111394871D01*
X113189379Y-111516237D01*
X112925685Y-111692431D01*
X112701431Y-111916685D01*
X112525237Y-112180379D01*
X112403871Y-112473380D01*
X112342000Y-112784429D01*
X111708000Y-112784429D01*
X111708000Y-110284429D01*
X124842000Y-110284429D01*
X124842000Y-110601571D01*
X124903871Y-110912620D01*
X125025237Y-111205621D01*
X125201431Y-111469315D01*
X125425685Y-111693569D01*
X125689379Y-111869763D01*
X125982380Y-111991129D01*
X126293429Y-112053000D01*
X126610571Y-112053000D01*
X126921620Y-111991129D01*
X127214621Y-111869763D01*
X127478315Y-111693569D01*
X127702569Y-111469315D01*
X127878763Y-111205621D01*
X127879020Y-111205000D01*
X128288370Y-111205000D01*
X128902843Y-111819473D01*
X128867000Y-111999665D01*
X128867000Y-112282335D01*
X128922147Y-112559574D01*
X129030320Y-112820727D01*
X129187363Y-113055759D01*
X129387241Y-113255637D01*
X129622273Y-113412680D01*
X129883426Y-113520853D01*
X130160665Y-113576000D01*
X130443335Y-113576000D01*
X130720574Y-113520853D01*
X130981727Y-113412680D01*
X131216759Y-113255637D01*
X131416637Y-113055759D01*
X131573680Y-112820727D01*
X131681853Y-112559574D01*
X131737000Y-112282335D01*
X131737000Y-111999665D01*
X136487000Y-111999665D01*
X136487000Y-112282335D01*
X136542147Y-112559574D01*
X136650320Y-112820727D01*
X136807363Y-113055759D01*
X137007241Y-113255637D01*
X137242273Y-113412680D01*
X137503426Y-113520853D01*
X137780665Y-113576000D01*
X138063335Y-113576000D01*
X138340574Y-113520853D01*
X138601727Y-113412680D01*
X138836759Y-113255637D01*
X139036637Y-113055759D01*
X139193680Y-112820727D01*
X139301853Y-112559574D01*
X139357000Y-112282335D01*
X139357000Y-111999665D01*
X139301853Y-111722426D01*
X139193680Y-111461273D01*
X139036637Y-111226241D01*
X138836759Y-111026363D01*
X138601727Y-110869320D01*
X138340574Y-110761147D01*
X138063335Y-110706000D01*
X137780665Y-110706000D01*
X137503426Y-110761147D01*
X137242273Y-110869320D01*
X137007241Y-111026363D01*
X136807363Y-111226241D01*
X136650320Y-111461273D01*
X136542147Y-111722426D01*
X136487000Y-111999665D01*
X131737000Y-111999665D01*
X131681853Y-111722426D01*
X131573680Y-111461273D01*
X131416637Y-111226241D01*
X131216759Y-111026363D01*
X130981727Y-110869320D01*
X130720574Y-110761147D01*
X130443335Y-110706000D01*
X130160665Y-110706000D01*
X129980473Y-110741843D01*
X129169284Y-109930654D01*
X129145422Y-109901578D01*
X129029392Y-109806355D01*
X128897015Y-109735598D01*
X128753378Y-109692026D01*
X128641426Y-109681000D01*
X128641423Y-109681000D01*
X128604000Y-109677314D01*
X128566577Y-109681000D01*
X127879020Y-109681000D01*
X127878763Y-109680379D01*
X127702569Y-109416685D01*
X127478315Y-109192431D01*
X127214621Y-109016237D01*
X126921620Y-108894871D01*
X126610571Y-108833000D01*
X126293429Y-108833000D01*
X125982380Y-108894871D01*
X125689379Y-109016237D01*
X125425685Y-109192431D01*
X125201431Y-109416685D01*
X125025237Y-109680379D01*
X124903871Y-109973380D01*
X124842000Y-110284429D01*
X111708000Y-110284429D01*
X111708000Y-107784429D01*
X122342000Y-107784429D01*
X122342000Y-108101571D01*
X122403871Y-108412620D01*
X122525237Y-108705621D01*
X122701431Y-108969315D01*
X122925685Y-109193569D01*
X123189379Y-109369763D01*
X123482380Y-109491129D01*
X123793429Y-109553000D01*
X124110571Y-109553000D01*
X124421620Y-109491129D01*
X124714621Y-109369763D01*
X124978315Y-109193569D01*
X125202569Y-108969315D01*
X125378763Y-108705621D01*
X125500129Y-108412620D01*
X125562000Y-108101571D01*
X125562000Y-107784429D01*
X125500129Y-107473380D01*
X125378763Y-107180379D01*
X125202569Y-106916685D01*
X124978315Y-106692431D01*
X124714621Y-106516237D01*
X124421620Y-106394871D01*
X124110571Y-106333000D01*
X123793429Y-106333000D01*
X123482380Y-106394871D01*
X123189379Y-106516237D01*
X122925685Y-106692431D01*
X122701431Y-106916685D01*
X122525237Y-107180379D01*
X122403871Y-107473380D01*
X122342000Y-107784429D01*
X111708000Y-107784429D01*
X111708000Y-106267039D01*
X127513096Y-106267039D01*
X127553754Y-106401087D01*
X127673963Y-106655420D01*
X127841481Y-106881414D01*
X128049869Y-107070385D01*
X128291119Y-107215070D01*
X128555960Y-107309909D01*
X128778000Y-107188624D01*
X128778000Y-106045000D01*
X129032000Y-106045000D01*
X129032000Y-107188624D01*
X129254040Y-107309909D01*
X129518881Y-107215070D01*
X129760131Y-107070385D01*
X129968519Y-106881414D01*
X130136037Y-106655420D01*
X130256246Y-106401087D01*
X130296904Y-106267039D01*
X130174915Y-106045000D01*
X129032000Y-106045000D01*
X128778000Y-106045000D01*
X127635085Y-106045000D01*
X127513096Y-106267039D01*
X111708000Y-106267039D01*
X111708000Y-105568961D01*
X127513096Y-105568961D01*
X127635085Y-105791000D01*
X128778000Y-105791000D01*
X128778000Y-104647376D01*
X129032000Y-104647376D01*
X129032000Y-105791000D01*
X130174915Y-105791000D01*
X130182790Y-105776665D01*
X135090000Y-105776665D01*
X135090000Y-106059335D01*
X135145147Y-106336574D01*
X135253320Y-106597727D01*
X135410363Y-106832759D01*
X135610241Y-107032637D01*
X135845273Y-107189680D01*
X136106426Y-107297853D01*
X136383665Y-107353000D01*
X136666335Y-107353000D01*
X136943574Y-107297853D01*
X137204727Y-107189680D01*
X137439759Y-107032637D01*
X137639637Y-106832759D01*
X137796680Y-106597727D01*
X137904853Y-106336574D01*
X137922000Y-106250371D01*
X137939147Y-106336574D01*
X138047320Y-106597727D01*
X138204363Y-106832759D01*
X138404241Y-107032637D01*
X138639273Y-107189680D01*
X138900426Y-107297853D01*
X139177665Y-107353000D01*
X139460335Y-107353000D01*
X139737574Y-107297853D01*
X139998727Y-107189680D01*
X140233759Y-107032637D01*
X140433637Y-106832759D01*
X140590680Y-106597727D01*
X140698853Y-106336574D01*
X140754000Y-106059335D01*
X140754000Y-105776665D01*
X140698853Y-105499426D01*
X140590680Y-105238273D01*
X140433637Y-105003241D01*
X140233759Y-104803363D01*
X139998727Y-104646320D01*
X139737574Y-104538147D01*
X139460335Y-104483000D01*
X139177665Y-104483000D01*
X138900426Y-104538147D01*
X138639273Y-104646320D01*
X138404241Y-104803363D01*
X138204363Y-105003241D01*
X138047320Y-105238273D01*
X137939147Y-105499426D01*
X137922000Y-105585629D01*
X137904853Y-105499426D01*
X137796680Y-105238273D01*
X137639637Y-105003241D01*
X137439759Y-104803363D01*
X137287000Y-104701293D01*
X137287000Y-104328630D01*
X137475630Y-104140000D01*
X141313577Y-104140000D01*
X141351000Y-104143686D01*
X141388423Y-104140000D01*
X141388426Y-104140000D01*
X141500378Y-104128974D01*
X141644015Y-104085402D01*
X141776392Y-104014645D01*
X141892422Y-103919422D01*
X141916284Y-103890346D01*
X142371346Y-103435284D01*
X142400422Y-103411422D01*
X142495645Y-103295392D01*
X142566402Y-103163015D01*
X142609974Y-103019378D01*
X142621000Y-102907426D01*
X142621000Y-102907417D01*
X142624685Y-102870001D01*
X142621000Y-102832585D01*
X142621000Y-102308707D01*
X142773759Y-102206637D01*
X142973637Y-102006759D01*
X143129000Y-101774241D01*
X143284363Y-102006759D01*
X143484241Y-102206637D01*
X143510000Y-102223849D01*
X143510000Y-102572340D01*
X143505700Y-102616000D01*
X143510000Y-102659660D01*
X143510000Y-102659666D01*
X143522864Y-102790273D01*
X143573697Y-102957850D01*
X143656247Y-103112290D01*
X143767341Y-103247659D01*
X143801263Y-103275498D01*
X144374504Y-103848740D01*
X144402341Y-103882659D01*
X144537709Y-103993753D01*
X144692149Y-104076303D01*
X144808892Y-104111716D01*
X144859725Y-104127136D01*
X144876325Y-104128771D01*
X144990333Y-104140000D01*
X144990340Y-104140000D01*
X145034000Y-104144300D01*
X145077660Y-104140000D01*
X145554765Y-104140000D01*
X146050001Y-104635236D01*
X146050001Y-104786151D01*
X146024241Y-104803363D01*
X145824363Y-105003241D01*
X145667320Y-105238273D01*
X145559147Y-105499426D01*
X145504000Y-105776665D01*
X145504000Y-106059335D01*
X145559147Y-106336574D01*
X145667320Y-106597727D01*
X145824363Y-106832759D01*
X146024241Y-107032637D01*
X146050001Y-107049849D01*
X146050000Y-107962764D01*
X145681765Y-108331000D01*
X144442659Y-108331000D01*
X144398999Y-108326700D01*
X144355339Y-108331000D01*
X144355333Y-108331000D01*
X144257924Y-108340594D01*
X144224724Y-108343864D01*
X144123184Y-108374666D01*
X144057149Y-108394697D01*
X143902709Y-108477247D01*
X143767341Y-108588341D01*
X143739501Y-108622264D01*
X143293259Y-109068506D01*
X143259342Y-109096341D01*
X143231507Y-109130258D01*
X143231505Y-109130260D01*
X143148248Y-109231709D01*
X143065698Y-109386148D01*
X143014864Y-109553726D01*
X142997700Y-109728000D01*
X143002001Y-109771670D01*
X143002001Y-110910769D01*
X142916518Y-110919188D01*
X142796820Y-110955498D01*
X142686506Y-111014463D01*
X142589815Y-111093815D01*
X142510463Y-111190506D01*
X142451498Y-111300820D01*
X142415188Y-111420518D01*
X142406769Y-111506000D01*
X141521660Y-111506000D01*
X141478000Y-111501700D01*
X141434340Y-111506000D01*
X141434333Y-111506000D01*
X141330398Y-111516237D01*
X141303725Y-111518864D01*
X141252892Y-111534284D01*
X141136149Y-111569697D01*
X140981709Y-111652247D01*
X140846341Y-111763341D01*
X140818505Y-111797259D01*
X140118263Y-112497501D01*
X140084341Y-112525341D01*
X139973247Y-112660710D01*
X139890697Y-112815150D01*
X139839864Y-112982727D01*
X139827000Y-113113334D01*
X139827000Y-113113340D01*
X139822700Y-113157000D01*
X139827000Y-113200660D01*
X139827001Y-117360764D01*
X139712765Y-117475000D01*
X139053849Y-117475000D01*
X139036637Y-117449241D01*
X138836759Y-117249363D01*
X138601727Y-117092320D01*
X138340574Y-116984147D01*
X138063335Y-116929000D01*
X137780665Y-116929000D01*
X137503426Y-116984147D01*
X137242273Y-117092320D01*
X137007241Y-117249363D01*
X136807363Y-117449241D01*
X136650320Y-117684273D01*
X136542147Y-117945426D01*
X136487000Y-118222665D01*
X136487000Y-118505335D01*
X136542147Y-118782574D01*
X136650320Y-119043727D01*
X136807363Y-119278759D01*
X137007241Y-119478637D01*
X137242273Y-119635680D01*
X137503426Y-119743853D01*
X137780665Y-119799000D01*
X138063335Y-119799000D01*
X138340574Y-119743853D01*
X138601727Y-119635680D01*
X138836759Y-119478637D01*
X139036637Y-119278759D01*
X139053849Y-119253000D01*
X140037340Y-119253000D01*
X140081000Y-119257300D01*
X140124660Y-119253000D01*
X140124667Y-119253000D01*
X140255274Y-119240136D01*
X140422851Y-119189303D01*
X140577291Y-119106753D01*
X140712659Y-118995659D01*
X140740498Y-118961737D01*
X141313741Y-118388495D01*
X141347659Y-118360659D01*
X141458753Y-118225291D01*
X141541303Y-118070851D01*
X141581418Y-117938608D01*
X141592136Y-117903275D01*
X141600084Y-117822579D01*
X141605000Y-117772667D01*
X141605000Y-117772660D01*
X141609300Y-117729000D01*
X141605000Y-117685340D01*
X141605000Y-117328740D01*
X142406000Y-117328740D01*
X142406000Y-117621260D01*
X142463068Y-117908158D01*
X142575010Y-118178411D01*
X142737525Y-118421632D01*
X142944368Y-118628475D01*
X143118760Y-118745000D01*
X142944368Y-118861525D01*
X142737525Y-119068368D01*
X142575010Y-119311589D01*
X142463068Y-119581842D01*
X142406000Y-119868740D01*
X142406000Y-120161260D01*
X142463068Y-120448158D01*
X142575010Y-120718411D01*
X142737525Y-120961632D01*
X142944368Y-121168475D01*
X143187589Y-121330990D01*
X143457842Y-121442932D01*
X143744740Y-121500000D01*
X144037260Y-121500000D01*
X144324158Y-121442932D01*
X144594411Y-121330990D01*
X144837632Y-121168475D01*
X145044475Y-120961632D01*
X145206990Y-120718411D01*
X145318932Y-120448158D01*
X145376000Y-120161260D01*
X145376000Y-119868740D01*
X145318932Y-119581842D01*
X145206990Y-119311589D01*
X145044475Y-119068368D01*
X144837632Y-118861525D01*
X144663240Y-118745000D01*
X144837632Y-118628475D01*
X145044475Y-118421632D01*
X145206990Y-118178411D01*
X145318932Y-117908158D01*
X145376000Y-117621260D01*
X145376000Y-117328740D01*
X145318932Y-117041842D01*
X145206990Y-116771589D01*
X145044475Y-116528368D01*
X144837632Y-116321525D01*
X144655466Y-116199805D01*
X144772355Y-116130178D01*
X144988588Y-115935269D01*
X145162641Y-115701920D01*
X145287825Y-115439099D01*
X145332476Y-115291890D01*
X145211155Y-115062000D01*
X144018000Y-115062000D01*
X144018000Y-115082000D01*
X143764000Y-115082000D01*
X143764000Y-115062000D01*
X142570845Y-115062000D01*
X142449524Y-115291890D01*
X142494175Y-115439099D01*
X142619359Y-115701920D01*
X142793412Y-115935269D01*
X143009645Y-116130178D01*
X143126534Y-116199805D01*
X142944368Y-116321525D01*
X142737525Y-116528368D01*
X142575010Y-116771589D01*
X142463068Y-117041842D01*
X142406000Y-117328740D01*
X141605000Y-117328740D01*
X141605000Y-113525235D01*
X141846236Y-113284000D01*
X142406769Y-113284000D01*
X142415188Y-113369482D01*
X142451498Y-113489180D01*
X142510463Y-113599494D01*
X142589815Y-113696185D01*
X142686506Y-113775537D01*
X142796820Y-113834502D01*
X142877466Y-113858966D01*
X142793412Y-113934731D01*
X142619359Y-114168080D01*
X142494175Y-114430901D01*
X142449524Y-114578110D01*
X142570845Y-114808000D01*
X143764000Y-114808000D01*
X143764000Y-114788000D01*
X144018000Y-114788000D01*
X144018000Y-114808000D01*
X145211155Y-114808000D01*
X145332476Y-114578110D01*
X145287825Y-114430901D01*
X145162641Y-114168080D01*
X144988588Y-113934731D01*
X144904534Y-113858966D01*
X144985180Y-113834502D01*
X145095494Y-113775537D01*
X145192185Y-113696185D01*
X145271537Y-113599494D01*
X145330502Y-113489180D01*
X145366812Y-113369482D01*
X145379072Y-113245000D01*
X145379072Y-111545000D01*
X145366812Y-111420518D01*
X145330502Y-111300820D01*
X145271537Y-111190506D01*
X145192185Y-111093815D01*
X145095494Y-111014463D01*
X144985180Y-110955498D01*
X144865482Y-110919188D01*
X144780000Y-110910769D01*
X144780000Y-110109000D01*
X146006340Y-110109000D01*
X146050000Y-110113300D01*
X146093660Y-110109000D01*
X146093667Y-110109000D01*
X146224274Y-110096136D01*
X146391851Y-110045303D01*
X146546291Y-109962753D01*
X146681659Y-109851659D01*
X146709499Y-109817737D01*
X147536742Y-108990493D01*
X147570659Y-108962659D01*
X147681753Y-108827291D01*
X147764303Y-108672851D01*
X147815136Y-108505274D01*
X147828000Y-108374667D01*
X147828000Y-108374660D01*
X147832300Y-108331000D01*
X147828000Y-108287340D01*
X147828000Y-107049849D01*
X147853759Y-107032637D01*
X148053637Y-106832759D01*
X148210680Y-106597727D01*
X148318853Y-106336574D01*
X148374000Y-106059335D01*
X148374000Y-105776665D01*
X148318853Y-105499426D01*
X148210680Y-105238273D01*
X148053637Y-105003241D01*
X147853759Y-104803363D01*
X147828000Y-104786151D01*
X147828000Y-104310660D01*
X147832300Y-104267000D01*
X147828000Y-104223340D01*
X147828000Y-104223333D01*
X147815136Y-104092726D01*
X147812915Y-104085402D01*
X147779599Y-103975574D01*
X147764303Y-103925149D01*
X147681753Y-103770709D01*
X147570659Y-103635341D01*
X147536741Y-103607505D01*
X146582499Y-102653264D01*
X146554659Y-102619341D01*
X146419291Y-102508247D01*
X146264851Y-102425697D01*
X146097274Y-102374864D01*
X145966667Y-102362000D01*
X145966660Y-102362000D01*
X145923000Y-102357700D01*
X145879340Y-102362000D01*
X145402236Y-102362000D01*
X145288000Y-102247765D01*
X145288000Y-102223849D01*
X145313759Y-102206637D01*
X145513637Y-102006759D01*
X145670680Y-101771727D01*
X145778853Y-101510574D01*
X145834000Y-101233335D01*
X145834000Y-100950665D01*
X145778853Y-100673426D01*
X145670680Y-100412273D01*
X145513637Y-100177241D01*
X145313759Y-99977363D01*
X145078727Y-99820320D01*
X144817574Y-99712147D01*
X144540335Y-99657000D01*
X144257665Y-99657000D01*
X143980426Y-99712147D01*
X143719273Y-99820320D01*
X143484241Y-99977363D01*
X143284363Y-100177241D01*
X143129000Y-100409759D01*
X142973637Y-100177241D01*
X142773759Y-99977363D01*
X142538727Y-99820320D01*
X142277574Y-99712147D01*
X142000335Y-99657000D01*
X141717665Y-99657000D01*
X141440426Y-99712147D01*
X141179273Y-99820320D01*
X140944241Y-99977363D01*
X140744363Y-100177241D01*
X140589000Y-100409759D01*
X140433637Y-100177241D01*
X140233759Y-99977363D01*
X139998727Y-99820320D01*
X139737574Y-99712147D01*
X139460335Y-99657000D01*
X139177665Y-99657000D01*
X138900426Y-99712147D01*
X138639273Y-99820320D01*
X138404241Y-99977363D01*
X138204363Y-100177241D01*
X138047320Y-100412273D01*
X138042933Y-100422865D01*
X137931385Y-100236869D01*
X137742414Y-100028481D01*
X137516420Y-99860963D01*
X137262087Y-99740754D01*
X137128039Y-99700096D01*
X136906000Y-99822085D01*
X136906000Y-100965000D01*
X136926000Y-100965000D01*
X136926000Y-101219000D01*
X136906000Y-101219000D01*
X136906000Y-102361915D01*
X137128039Y-102483904D01*
X137262087Y-102443246D01*
X137516420Y-102323037D01*
X137742414Y-102155519D01*
X137931385Y-101947131D01*
X138042933Y-101761135D01*
X138047320Y-101771727D01*
X138204363Y-102006759D01*
X138404241Y-102206637D01*
X138639273Y-102363680D01*
X138900426Y-102471853D01*
X139177665Y-102527000D01*
X139460335Y-102527000D01*
X139737574Y-102471853D01*
X139998727Y-102363680D01*
X140233759Y-102206637D01*
X140433637Y-102006759D01*
X140589000Y-101774241D01*
X140744363Y-102006759D01*
X140944241Y-102206637D01*
X141097001Y-102308708D01*
X141097001Y-102554369D01*
X141035370Y-102616000D01*
X137197423Y-102616000D01*
X137160000Y-102612314D01*
X137122577Y-102616000D01*
X137122574Y-102616000D01*
X137010622Y-102627026D01*
X136866985Y-102670598D01*
X136805364Y-102703535D01*
X136734607Y-102741355D01*
X136692219Y-102776143D01*
X136618578Y-102836578D01*
X136594716Y-102865654D01*
X136012654Y-103447716D01*
X135983578Y-103471578D01*
X135954800Y-103506645D01*
X135888355Y-103587608D01*
X135871272Y-103619569D01*
X135817598Y-103719986D01*
X135774026Y-103863623D01*
X135766181Y-103943279D01*
X135759314Y-104013000D01*
X135763000Y-104050424D01*
X135763000Y-104701293D01*
X135610241Y-104803363D01*
X135410363Y-105003241D01*
X135253320Y-105238273D01*
X135145147Y-105499426D01*
X135090000Y-105776665D01*
X130182790Y-105776665D01*
X130296904Y-105568961D01*
X130256246Y-105434913D01*
X130136037Y-105180580D01*
X129968519Y-104954586D01*
X129760131Y-104765615D01*
X129518881Y-104620930D01*
X129254040Y-104526091D01*
X129032000Y-104647376D01*
X128778000Y-104647376D01*
X128555960Y-104526091D01*
X128291119Y-104620930D01*
X128049869Y-104765615D01*
X127841481Y-104954586D01*
X127673963Y-105180580D01*
X127553754Y-105434913D01*
X127513096Y-105568961D01*
X111708000Y-105568961D01*
X111708000Y-102210429D01*
X122342000Y-102210429D01*
X122342000Y-102527571D01*
X122403871Y-102838620D01*
X122525237Y-103131621D01*
X122701431Y-103395315D01*
X122925685Y-103619569D01*
X123189379Y-103795763D01*
X123482380Y-103917129D01*
X123793429Y-103979000D01*
X124110571Y-103979000D01*
X124421620Y-103917129D01*
X124714621Y-103795763D01*
X124978315Y-103619569D01*
X125202569Y-103395315D01*
X125378763Y-103131621D01*
X125500129Y-102838620D01*
X125562000Y-102527571D01*
X125562000Y-102210429D01*
X125500129Y-101899380D01*
X125378763Y-101606379D01*
X125202569Y-101342685D01*
X124978315Y-101118431D01*
X124714621Y-100942237D01*
X124421620Y-100820871D01*
X124110571Y-100759000D01*
X123793429Y-100759000D01*
X123482380Y-100820871D01*
X123189379Y-100942237D01*
X122925685Y-101118431D01*
X122701431Y-101342685D01*
X122525237Y-101606379D01*
X122403871Y-101899380D01*
X122342000Y-102210429D01*
X111708000Y-102210429D01*
X111708000Y-99710429D01*
X124842000Y-99710429D01*
X124842000Y-100027571D01*
X124903871Y-100338620D01*
X125025237Y-100631621D01*
X125201431Y-100895315D01*
X125425685Y-101119569D01*
X125689379Y-101295763D01*
X125982380Y-101417129D01*
X126293429Y-101479000D01*
X126610571Y-101479000D01*
X126921620Y-101417129D01*
X126922241Y-101416872D01*
X127109721Y-101604352D01*
X127133578Y-101633422D01*
X127249608Y-101728645D01*
X127381985Y-101799402D01*
X127525622Y-101842974D01*
X127637574Y-101854000D01*
X127637576Y-101854000D01*
X127674999Y-101857686D01*
X127712422Y-101854000D01*
X130101293Y-101854000D01*
X130203363Y-102006759D01*
X130403241Y-102206637D01*
X130638273Y-102363680D01*
X130899426Y-102471853D01*
X131176665Y-102527000D01*
X131459335Y-102527000D01*
X131736574Y-102471853D01*
X131997727Y-102363680D01*
X132232759Y-102206637D01*
X132432637Y-102006759D01*
X132589680Y-101771727D01*
X132697853Y-101510574D01*
X132711684Y-101441040D01*
X135387091Y-101441040D01*
X135481930Y-101705881D01*
X135626615Y-101947131D01*
X135815586Y-102155519D01*
X136041580Y-102323037D01*
X136295913Y-102443246D01*
X136429961Y-102483904D01*
X136652000Y-102361915D01*
X136652000Y-101219000D01*
X135508376Y-101219000D01*
X135387091Y-101441040D01*
X132711684Y-101441040D01*
X132753000Y-101233335D01*
X132753000Y-100950665D01*
X132711685Y-100742960D01*
X135387091Y-100742960D01*
X135508376Y-100965000D01*
X136652000Y-100965000D01*
X136652000Y-99822085D01*
X136429961Y-99700096D01*
X136295913Y-99740754D01*
X136041580Y-99860963D01*
X135815586Y-100028481D01*
X135626615Y-100236869D01*
X135481930Y-100478119D01*
X135387091Y-100742960D01*
X132711685Y-100742960D01*
X132697853Y-100673426D01*
X132589680Y-100412273D01*
X132432637Y-100177241D01*
X132232759Y-99977363D01*
X131997727Y-99820320D01*
X131736574Y-99712147D01*
X131459335Y-99657000D01*
X131176665Y-99657000D01*
X130899426Y-99712147D01*
X130638273Y-99820320D01*
X130403241Y-99977363D01*
X130203363Y-100177241D01*
X130101293Y-100330000D01*
X128001844Y-100330000D01*
X128062000Y-100027571D01*
X128062000Y-99710429D01*
X128000129Y-99399380D01*
X127878763Y-99106379D01*
X127702569Y-98842685D01*
X127478315Y-98618431D01*
X127214621Y-98442237D01*
X126921620Y-98320871D01*
X126610571Y-98259000D01*
X126293429Y-98259000D01*
X125982380Y-98320871D01*
X125689379Y-98442237D01*
X125425685Y-98618431D01*
X125201431Y-98842685D01*
X125025237Y-99106379D01*
X124903871Y-99399380D01*
X124842000Y-99710429D01*
X111708000Y-99710429D01*
X111708000Y-97210429D01*
X112342000Y-97210429D01*
X112342000Y-97527571D01*
X112403871Y-97838620D01*
X112525237Y-98131621D01*
X112701431Y-98395315D01*
X112925685Y-98619569D01*
X113189379Y-98795763D01*
X113482380Y-98917129D01*
X113793429Y-98979000D01*
X114110571Y-98979000D01*
X114421620Y-98917129D01*
X114714621Y-98795763D01*
X114978315Y-98619569D01*
X115202569Y-98395315D01*
X115378763Y-98131621D01*
X115500129Y-97838620D01*
X115562000Y-97527571D01*
X115562000Y-97210429D01*
X115500129Y-96899380D01*
X115378763Y-96606379D01*
X115202569Y-96342685D01*
X114978315Y-96118431D01*
X114714621Y-95942237D01*
X114421620Y-95820871D01*
X114110571Y-95759000D01*
X113793429Y-95759000D01*
X113482380Y-95820871D01*
X113189379Y-95942237D01*
X112925685Y-96118431D01*
X112701431Y-96342685D01*
X112525237Y-96606379D01*
X112403871Y-96899380D01*
X112342000Y-97210429D01*
X111708000Y-97210429D01*
X111708000Y-94710429D01*
X122342000Y-94710429D01*
X122342000Y-95027571D01*
X122403871Y-95338620D01*
X122525237Y-95631621D01*
X122701431Y-95895315D01*
X122925685Y-96119569D01*
X123189379Y-96295763D01*
X123482380Y-96417129D01*
X123793429Y-96479000D01*
X124110571Y-96479000D01*
X124421620Y-96417129D01*
X124714621Y-96295763D01*
X124978315Y-96119569D01*
X125202569Y-95895315D01*
X125378763Y-95631621D01*
X125500129Y-95338620D01*
X125562000Y-95027571D01*
X125562000Y-94710429D01*
X125500129Y-94399380D01*
X125378763Y-94106379D01*
X125202569Y-93842685D01*
X124978315Y-93618431D01*
X124714621Y-93442237D01*
X124445265Y-93330665D01*
X129883000Y-93330665D01*
X129883000Y-93613335D01*
X129938147Y-93890574D01*
X130046320Y-94151727D01*
X130203363Y-94386759D01*
X130403241Y-94586637D01*
X130638273Y-94743680D01*
X130899426Y-94851853D01*
X131176665Y-94907000D01*
X131459335Y-94907000D01*
X131736574Y-94851853D01*
X131997727Y-94743680D01*
X132232759Y-94586637D01*
X132432637Y-94386759D01*
X132589680Y-94151727D01*
X132697853Y-93890574D01*
X132753000Y-93613335D01*
X132753000Y-93330665D01*
X132697853Y-93053426D01*
X132589680Y-92792273D01*
X132432637Y-92557241D01*
X132305828Y-92430432D01*
X132915260Y-91821000D01*
X138900575Y-91821000D01*
X138938000Y-91824686D01*
X138975426Y-91821000D01*
X140654370Y-91821000D01*
X141092002Y-92258633D01*
X140944241Y-92357363D01*
X140744363Y-92557241D01*
X140589000Y-92789759D01*
X140433637Y-92557241D01*
X140233759Y-92357363D01*
X139998727Y-92200320D01*
X139737574Y-92092147D01*
X139460335Y-92037000D01*
X139177665Y-92037000D01*
X138900426Y-92092147D01*
X138639273Y-92200320D01*
X138404241Y-92357363D01*
X138204363Y-92557241D01*
X138049000Y-92789759D01*
X137893637Y-92557241D01*
X137693759Y-92357363D01*
X137458727Y-92200320D01*
X137197574Y-92092147D01*
X136920335Y-92037000D01*
X136637665Y-92037000D01*
X136360426Y-92092147D01*
X136099273Y-92200320D01*
X135864241Y-92357363D01*
X135664363Y-92557241D01*
X135507320Y-92792273D01*
X135399147Y-93053426D01*
X135344000Y-93330665D01*
X135344000Y-93613335D01*
X135399147Y-93890574D01*
X135507320Y-94151727D01*
X135664363Y-94386759D01*
X135864241Y-94586637D01*
X136099273Y-94743680D01*
X136360426Y-94851853D01*
X136637665Y-94907000D01*
X136920335Y-94907000D01*
X137197574Y-94851853D01*
X137458727Y-94743680D01*
X137693759Y-94586637D01*
X137893637Y-94386759D01*
X138049000Y-94154241D01*
X138204363Y-94386759D01*
X138404241Y-94586637D01*
X138639273Y-94743680D01*
X138900426Y-94851853D01*
X139177665Y-94907000D01*
X139460335Y-94907000D01*
X139737574Y-94851853D01*
X139998727Y-94743680D01*
X140233759Y-94586637D01*
X140433637Y-94386759D01*
X140589000Y-94154241D01*
X140744363Y-94386759D01*
X140944241Y-94586637D01*
X141179273Y-94743680D01*
X141440426Y-94851853D01*
X141717665Y-94907000D01*
X142000335Y-94907000D01*
X142277574Y-94851853D01*
X142538727Y-94743680D01*
X142773759Y-94586637D01*
X142972357Y-94388039D01*
X142973188Y-94396482D01*
X143009498Y-94516180D01*
X143068463Y-94626494D01*
X143147815Y-94723185D01*
X143244506Y-94802537D01*
X143354820Y-94861502D01*
X143474518Y-94897812D01*
X143599000Y-94910072D01*
X145199000Y-94910072D01*
X145323482Y-94897812D01*
X145443180Y-94861502D01*
X145553494Y-94802537D01*
X145650185Y-94723185D01*
X145729537Y-94626494D01*
X145788502Y-94516180D01*
X145824812Y-94396482D01*
X145837072Y-94272000D01*
X145837072Y-92672000D01*
X145824812Y-92547518D01*
X145788502Y-92427820D01*
X145729537Y-92317506D01*
X145650185Y-92220815D01*
X145553494Y-92141463D01*
X145443180Y-92082498D01*
X145323482Y-92046188D01*
X145199000Y-92033928D01*
X143599000Y-92033928D01*
X143474518Y-92046188D01*
X143354820Y-92082498D01*
X143244506Y-92141463D01*
X143147815Y-92220815D01*
X143068463Y-92317506D01*
X143009498Y-92427820D01*
X142973188Y-92547518D01*
X142972357Y-92555961D01*
X142773759Y-92357363D01*
X142621000Y-92255293D01*
X142621000Y-91985423D01*
X142624686Y-91948000D01*
X142621000Y-91910574D01*
X142609974Y-91798622D01*
X142566402Y-91654985D01*
X142495646Y-91522609D01*
X142495645Y-91522607D01*
X142424279Y-91435648D01*
X142400422Y-91406578D01*
X142371353Y-91382722D01*
X141535284Y-90546653D01*
X141511422Y-90517578D01*
X141395392Y-90422355D01*
X141263015Y-90351598D01*
X141119378Y-90308026D01*
X141007426Y-90297000D01*
X141007423Y-90297000D01*
X140970000Y-90293314D01*
X140932577Y-90297000D01*
X139700000Y-90297000D01*
X139700000Y-90003072D01*
X140038000Y-90003072D01*
X140162482Y-89990812D01*
X140282180Y-89954502D01*
X140392494Y-89895537D01*
X140489185Y-89816185D01*
X140568537Y-89719494D01*
X140627502Y-89609180D01*
X140663812Y-89489482D01*
X140676072Y-89365000D01*
X140676072Y-87165000D01*
X140663812Y-87040518D01*
X140627502Y-86920820D01*
X140568537Y-86810506D01*
X140489185Y-86713815D01*
X140392494Y-86634463D01*
X140282180Y-86575498D01*
X140162482Y-86539188D01*
X140038000Y-86526928D01*
X137838000Y-86526928D01*
X137713518Y-86539188D01*
X137593820Y-86575498D01*
X137483506Y-86634463D01*
X137386815Y-86713815D01*
X137307463Y-86810506D01*
X137248498Y-86920820D01*
X137212188Y-87040518D01*
X137199928Y-87165000D01*
X137199928Y-89365000D01*
X137212188Y-89489482D01*
X137248498Y-89609180D01*
X137307463Y-89719494D01*
X137386815Y-89816185D01*
X137483506Y-89895537D01*
X137593820Y-89954502D01*
X137713518Y-89990812D01*
X137838000Y-90003072D01*
X138176001Y-90003072D01*
X138176001Y-90297000D01*
X132637053Y-90297000D01*
X132599630Y-90293314D01*
X132562207Y-90297000D01*
X132562204Y-90297000D01*
X132450252Y-90308026D01*
X132306615Y-90351598D01*
X132244994Y-90384535D01*
X132174237Y-90422355D01*
X132131849Y-90457143D01*
X132058208Y-90517578D01*
X132034346Y-90546654D01*
X130805649Y-91775351D01*
X130776579Y-91799208D01*
X130752722Y-91828278D01*
X130752721Y-91828279D01*
X130681355Y-91915238D01*
X130610599Y-92047615D01*
X130567027Y-92191252D01*
X130561052Y-92251917D01*
X130403241Y-92357363D01*
X130203363Y-92557241D01*
X130046320Y-92792273D01*
X129938147Y-93053426D01*
X129883000Y-93330665D01*
X124445265Y-93330665D01*
X124421620Y-93320871D01*
X124110571Y-93259000D01*
X123793429Y-93259000D01*
X123482380Y-93320871D01*
X123189379Y-93442237D01*
X122925685Y-93618431D01*
X122701431Y-93842685D01*
X122525237Y-94106379D01*
X122403871Y-94399380D01*
X122342000Y-94710429D01*
X111708000Y-94710429D01*
X111708000Y-92210429D01*
X112342000Y-92210429D01*
X112342000Y-92527571D01*
X112403871Y-92838620D01*
X112525237Y-93131621D01*
X112701431Y-93395315D01*
X112925685Y-93619569D01*
X113189379Y-93795763D01*
X113482380Y-93917129D01*
X113793429Y-93979000D01*
X114110571Y-93979000D01*
X114421620Y-93917129D01*
X114714621Y-93795763D01*
X114978315Y-93619569D01*
X115202569Y-93395315D01*
X115378763Y-93131621D01*
X115500129Y-92838620D01*
X115562000Y-92527571D01*
X115562000Y-92210429D01*
X115500129Y-91899380D01*
X115378763Y-91606379D01*
X115202569Y-91342685D01*
X114978315Y-91118431D01*
X114714621Y-90942237D01*
X114421620Y-90820871D01*
X114110571Y-90759000D01*
X113793429Y-90759000D01*
X113482380Y-90820871D01*
X113189379Y-90942237D01*
X112925685Y-91118431D01*
X112701431Y-91342685D01*
X112525237Y-91606379D01*
X112403871Y-91899380D01*
X112342000Y-92210429D01*
X111708000Y-92210429D01*
X111708000Y-89710429D01*
X124842000Y-89710429D01*
X124842000Y-90027571D01*
X124903871Y-90338620D01*
X125025237Y-90631621D01*
X125201431Y-90895315D01*
X125425685Y-91119569D01*
X125689379Y-91295763D01*
X125982380Y-91417129D01*
X126293429Y-91479000D01*
X126610571Y-91479000D01*
X126921620Y-91417129D01*
X127214621Y-91295763D01*
X127478315Y-91119569D01*
X127702569Y-90895315D01*
X127878763Y-90631621D01*
X127879020Y-90631000D01*
X127898577Y-90631000D01*
X127936000Y-90634686D01*
X127973423Y-90631000D01*
X127973426Y-90631000D01*
X128085378Y-90619974D01*
X128229015Y-90576402D01*
X128361392Y-90505645D01*
X128477422Y-90410422D01*
X128501284Y-90381346D01*
X129786606Y-89096024D01*
X129970337Y-89370998D01*
X130212002Y-89612663D01*
X130496169Y-89802537D01*
X130811919Y-89933325D01*
X131147117Y-90000000D01*
X131488883Y-90000000D01*
X131824081Y-89933325D01*
X132139831Y-89802537D01*
X132423998Y-89612663D01*
X132665663Y-89370998D01*
X132855537Y-89086831D01*
X132986325Y-88771081D01*
X133053000Y-88435883D01*
X133053000Y-88094117D01*
X132986325Y-87758919D01*
X132855537Y-87443169D01*
X132665663Y-87159002D01*
X132423998Y-86917337D01*
X132139831Y-86727463D01*
X131824081Y-86596675D01*
X131488883Y-86530000D01*
X131147117Y-86530000D01*
X130811919Y-86596675D01*
X130496169Y-86727463D01*
X130212002Y-86917337D01*
X129970337Y-87159002D01*
X129780463Y-87443169D01*
X129755680Y-87503000D01*
X129577423Y-87503000D01*
X129540000Y-87499314D01*
X129502577Y-87503000D01*
X129502574Y-87503000D01*
X129390622Y-87514026D01*
X129246985Y-87557598D01*
X129185364Y-87590535D01*
X129114607Y-87628355D01*
X129072219Y-87663143D01*
X128998578Y-87723578D01*
X128974716Y-87752654D01*
X127775514Y-88951856D01*
X127702569Y-88842685D01*
X127478315Y-88618431D01*
X127214621Y-88442237D01*
X126921620Y-88320871D01*
X126610571Y-88259000D01*
X126293429Y-88259000D01*
X125982380Y-88320871D01*
X125689379Y-88442237D01*
X125425685Y-88618431D01*
X125201431Y-88842685D01*
X125025237Y-89106379D01*
X124903871Y-89399380D01*
X124842000Y-89710429D01*
X111708000Y-89710429D01*
X111708000Y-87210429D01*
X122342000Y-87210429D01*
X122342000Y-87527571D01*
X122403871Y-87838620D01*
X122525237Y-88131621D01*
X122701431Y-88395315D01*
X122925685Y-88619569D01*
X123189379Y-88795763D01*
X123482380Y-88917129D01*
X123793429Y-88979000D01*
X124110571Y-88979000D01*
X124421620Y-88917129D01*
X124714621Y-88795763D01*
X124978315Y-88619569D01*
X125202569Y-88395315D01*
X125378763Y-88131621D01*
X125500129Y-87838620D01*
X125562000Y-87527571D01*
X125562000Y-87210429D01*
X125500129Y-86899380D01*
X125378763Y-86606379D01*
X125202569Y-86342685D01*
X124978315Y-86118431D01*
X124714621Y-85942237D01*
X124421620Y-85820871D01*
X124110571Y-85759000D01*
X123793429Y-85759000D01*
X123482380Y-85820871D01*
X123189379Y-85942237D01*
X122925685Y-86118431D01*
X122701431Y-86342685D01*
X122525237Y-86606379D01*
X122403871Y-86899380D01*
X122342000Y-87210429D01*
X111708000Y-87210429D01*
X111708000Y-85165000D01*
X148388001Y-85165000D01*
X148388000Y-125147000D01*
M02*
