G04 #@! TF.GenerationSoftware,KiCad,Pcbnew,5.1.5-52549c5~84~ubuntu18.04.1*
G04 #@! TF.CreationDate,2020-01-17T10:26:32-05:00*
G04 #@! TF.ProjectId,midi_io,6d696469-5f69-46f2-9e6b-696361645f70,1*
G04 #@! TF.SameCoordinates,Original*
G04 #@! TF.FileFunction,Legend,Top*
G04 #@! TF.FilePolarity,Positive*
%FSLAX46Y46*%
G04 Gerber Fmt 4.6, Leading zero omitted, Abs format (unit mm)*
G04 Created by KiCad (PCBNEW 5.1.5-52549c5~84~ubuntu18.04.1) date 2020-01-17 10:26:32*
%MOMM*%
%LPD*%
G04 APERTURE LIST*
%ADD10C,0.152400*%
%ADD11C,0.127000*%
%ADD12C,0.120000*%
%ADD13C,0.150000*%
G04 APERTURE END LIST*
D10*
X145859983Y-119613438D02*
X146411526Y-119613438D01*
X146135755Y-120578638D02*
X146135755Y-119613438D01*
X146641336Y-119613438D02*
X147284802Y-120578638D01*
X147284802Y-119613438D02*
X146641336Y-120578638D01*
X146549412Y-118038638D02*
X146227679Y-117579019D01*
X145997869Y-118038638D02*
X145997869Y-117073438D01*
X146365564Y-117073438D01*
X146457488Y-117119400D01*
X146503450Y-117165361D01*
X146549412Y-117257285D01*
X146549412Y-117395171D01*
X146503450Y-117487095D01*
X146457488Y-117533057D01*
X146365564Y-117579019D01*
X145997869Y-117579019D01*
X146871145Y-117073438D02*
X147514612Y-118038638D01*
X147514612Y-117073438D02*
X146871145Y-118038638D01*
X146503450Y-114579400D02*
X146411526Y-114533438D01*
X146273640Y-114533438D01*
X146135755Y-114579400D01*
X146043831Y-114671323D01*
X145997869Y-114763247D01*
X145951907Y-114947095D01*
X145951907Y-115084980D01*
X145997869Y-115268828D01*
X146043831Y-115360752D01*
X146135755Y-115452676D01*
X146273640Y-115498638D01*
X146365564Y-115498638D01*
X146503450Y-115452676D01*
X146549412Y-115406714D01*
X146549412Y-115084980D01*
X146365564Y-115084980D01*
X146963069Y-115498638D02*
X146963069Y-114533438D01*
X147514612Y-115498638D01*
X147514612Y-114533438D01*
X147974231Y-115498638D02*
X147974231Y-114533438D01*
X148204040Y-114533438D01*
X148341926Y-114579400D01*
X148433850Y-114671323D01*
X148479812Y-114763247D01*
X148525774Y-114947095D01*
X148525774Y-115084980D01*
X148479812Y-115268828D01*
X148433850Y-115360752D01*
X148341926Y-115452676D01*
X148204040Y-115498638D01*
X147974231Y-115498638D01*
X146457488Y-111993438D02*
X145997869Y-111993438D01*
X145951907Y-112453057D01*
X145997869Y-112407095D01*
X146089793Y-112361133D01*
X146319602Y-112361133D01*
X146411526Y-112407095D01*
X146457488Y-112453057D01*
X146503450Y-112544980D01*
X146503450Y-112774790D01*
X146457488Y-112866714D01*
X146411526Y-112912676D01*
X146319602Y-112958638D01*
X146089793Y-112958638D01*
X145997869Y-112912676D01*
X145951907Y-112866714D01*
X146779221Y-111993438D02*
X147100955Y-112958638D01*
X147422688Y-111993438D01*
D11*
X123952000Y-104869000D02*
X123952000Y-103569000D01*
X123952000Y-96069000D02*
X123952000Y-101169000D01*
X123952000Y-88569000D02*
X123952000Y-93669000D01*
X123952000Y-84869000D02*
X123952000Y-86169000D01*
X111452000Y-104869000D02*
X123952000Y-104869000D01*
X111452000Y-84869000D02*
X111452000Y-104869000D01*
X123952000Y-84869000D02*
X111452000Y-84869000D01*
X123952000Y-125443000D02*
X123952000Y-124143000D01*
X123952000Y-116643000D02*
X123952000Y-121743000D01*
X123952000Y-109143000D02*
X123952000Y-114243000D01*
X123952000Y-105443000D02*
X123952000Y-106743000D01*
X111452000Y-125443000D02*
X123952000Y-125443000D01*
X111452000Y-105443000D02*
X111452000Y-125443000D01*
X123952000Y-105443000D02*
X111452000Y-105443000D01*
D12*
X129445000Y-104548000D02*
X129445000Y-104878000D01*
X135985000Y-104548000D02*
X129445000Y-104548000D01*
X135985000Y-104878000D02*
X135985000Y-104548000D01*
X129445000Y-107288000D02*
X129445000Y-106958000D01*
X135985000Y-107288000D02*
X129445000Y-107288000D01*
X135985000Y-106958000D02*
X135985000Y-107288000D01*
X139859000Y-104548000D02*
X139859000Y-104878000D01*
X146399000Y-104548000D02*
X139859000Y-104548000D01*
X146399000Y-104878000D02*
X146399000Y-104548000D01*
X139859000Y-107288000D02*
X139859000Y-106958000D01*
X146399000Y-107288000D02*
X139859000Y-107288000D01*
X146399000Y-106958000D02*
X146399000Y-107288000D01*
X129948000Y-100552000D02*
X130278000Y-100552000D01*
X129948000Y-94012000D02*
X129948000Y-100552000D01*
X130278000Y-94012000D02*
X129948000Y-94012000D01*
X132688000Y-100552000D02*
X132358000Y-100552000D01*
X132688000Y-94012000D02*
X132688000Y-100552000D01*
X132358000Y-94012000D02*
X132688000Y-94012000D01*
X130842000Y-110771000D02*
X130842000Y-111101000D01*
X137382000Y-110771000D02*
X130842000Y-110771000D01*
X137382000Y-111101000D02*
X137382000Y-110771000D01*
X130842000Y-113511000D02*
X130842000Y-113181000D01*
X137382000Y-113511000D02*
X130842000Y-113511000D01*
X137382000Y-113181000D02*
X137382000Y-113511000D01*
X130842000Y-116994000D02*
X130842000Y-117324000D01*
X137382000Y-116994000D02*
X130842000Y-116994000D01*
X137382000Y-117324000D02*
X137382000Y-116994000D01*
X130842000Y-119734000D02*
X130842000Y-119404000D01*
X137382000Y-119734000D02*
X130842000Y-119734000D01*
X137382000Y-119404000D02*
X137382000Y-119734000D01*
X142561000Y-111065000D02*
X143891000Y-111065000D01*
X142561000Y-112395000D02*
X142561000Y-111065000D01*
X142561000Y-113665000D02*
X145221000Y-113665000D01*
X145221000Y-113665000D02*
X145221000Y-121345000D01*
X142561000Y-113665000D02*
X142561000Y-121345000D01*
X142561000Y-121345000D02*
X145221000Y-121345000D01*
X137068000Y-89735000D02*
X137068000Y-86795000D01*
X136828000Y-89735000D02*
X136828000Y-86795000D01*
X136948000Y-89735000D02*
X136948000Y-86795000D01*
X132408000Y-86795000D02*
X132408000Y-86925000D01*
X137848000Y-86795000D02*
X132408000Y-86795000D01*
X137848000Y-86925000D02*
X137848000Y-86795000D01*
X132408000Y-89735000D02*
X132408000Y-89605000D01*
X137848000Y-89735000D02*
X132408000Y-89735000D01*
X137848000Y-89605000D02*
X137848000Y-89735000D01*
X145729000Y-99932000D02*
X145729000Y-98282000D01*
X135449000Y-99932000D02*
X145729000Y-99932000D01*
X135449000Y-94632000D02*
X135449000Y-99932000D01*
X145729000Y-94632000D02*
X135449000Y-94632000D01*
X145729000Y-96282000D02*
X145729000Y-94632000D01*
X145729000Y-98282000D02*
G75*
G02X145729000Y-96282000I0J1000000D01*
G01*
D10*
X128444433Y-85176997D02*
X128444433Y-85891783D01*
X128396780Y-86034740D01*
X128301476Y-86130045D01*
X128158519Y-86177697D01*
X128063214Y-86177697D01*
X128873304Y-85272302D02*
X128920957Y-85224650D01*
X129016261Y-85176997D01*
X129254523Y-85176997D01*
X129349828Y-85224650D01*
X129397480Y-85272302D01*
X129445133Y-85367607D01*
X129445133Y-85462911D01*
X129397480Y-85605869D01*
X128825652Y-86177697D01*
X129445133Y-86177697D01*
D11*
X118418958Y-92484571D02*
X119420418Y-92484571D01*
X118705090Y-92818391D01*
X119420418Y-93152211D01*
X118418958Y-93152211D01*
X118418958Y-93629097D02*
X119420418Y-93629097D01*
X118418958Y-94105982D02*
X119420418Y-94105982D01*
X119420418Y-94344425D01*
X119372730Y-94487491D01*
X119277352Y-94582868D01*
X119181975Y-94630557D01*
X118991221Y-94678245D01*
X118848155Y-94678245D01*
X118657401Y-94630557D01*
X118562024Y-94582868D01*
X118466647Y-94487491D01*
X118418958Y-94344425D01*
X118418958Y-94105982D01*
X118418958Y-95107442D02*
X119420418Y-95107442D01*
X118418958Y-96347345D02*
X119420418Y-96347345D01*
X119086598Y-96824231D02*
X118418958Y-96824231D01*
X118991221Y-96824231D02*
X119038910Y-96871920D01*
X119086598Y-96967297D01*
X119086598Y-97110362D01*
X119038910Y-97205740D01*
X118943532Y-97253428D01*
X118418958Y-97253428D01*
D10*
X128444433Y-124038997D02*
X128444433Y-124753783D01*
X128396780Y-124896740D01*
X128301476Y-124992045D01*
X128158519Y-125039697D01*
X128063214Y-125039697D01*
X129445133Y-125039697D02*
X128873304Y-125039697D01*
X129159219Y-125039697D02*
X129159219Y-124038997D01*
X129063914Y-124181954D01*
X128968609Y-124277259D01*
X128873304Y-124324911D01*
X118418958Y-112486308D02*
X119420418Y-112486308D01*
X118705090Y-112820128D01*
X119420418Y-113153948D01*
X118418958Y-113153948D01*
X118418958Y-113630834D02*
X119420418Y-113630834D01*
X118418958Y-114107720D02*
X119420418Y-114107720D01*
X119420418Y-114346162D01*
X119372730Y-114489228D01*
X119277352Y-114584605D01*
X119181975Y-114632294D01*
X118991221Y-114679982D01*
X118848155Y-114679982D01*
X118657401Y-114632294D01*
X118562024Y-114584605D01*
X118466647Y-114489228D01*
X118418958Y-114346162D01*
X118418958Y-114107720D01*
X118418958Y-115109180D02*
X119420418Y-115109180D01*
X119420418Y-116539837D02*
X119420418Y-116730591D01*
X119372730Y-116825968D01*
X119277352Y-116921345D01*
X119086598Y-116969034D01*
X118752778Y-116969034D01*
X118562024Y-116921345D01*
X118466647Y-116825968D01*
X118418958Y-116730591D01*
X118418958Y-116539837D01*
X118466647Y-116444460D01*
X118562024Y-116349082D01*
X118752778Y-116301394D01*
X119086598Y-116301394D01*
X119277352Y-116349082D01*
X119372730Y-116444460D01*
X119420418Y-116539837D01*
X119086598Y-117827428D02*
X118418958Y-117827428D01*
X119086598Y-117398231D02*
X118562024Y-117398231D01*
X118466647Y-117445920D01*
X118418958Y-117541297D01*
X118418958Y-117684362D01*
X118466647Y-117779740D01*
X118514335Y-117827428D01*
X119086598Y-118161248D02*
X119086598Y-118542757D01*
X119420418Y-118304314D02*
X118562024Y-118304314D01*
X118466647Y-118352002D01*
X118418958Y-118447380D01*
X118418958Y-118542757D01*
D13*
X132675333Y-104211380D02*
X132342000Y-103735190D01*
X132103904Y-104211380D02*
X132103904Y-103211380D01*
X132484857Y-103211380D01*
X132580095Y-103259000D01*
X132627714Y-103306619D01*
X132675333Y-103401857D01*
X132675333Y-103544714D01*
X132627714Y-103639952D01*
X132580095Y-103687571D01*
X132484857Y-103735190D01*
X132103904Y-103735190D01*
X133580095Y-103211380D02*
X133103904Y-103211380D01*
X133056285Y-103687571D01*
X133103904Y-103639952D01*
X133199142Y-103592333D01*
X133437238Y-103592333D01*
X133532476Y-103639952D01*
X133580095Y-103687571D01*
X133627714Y-103782809D01*
X133627714Y-104020904D01*
X133580095Y-104116142D01*
X133532476Y-104163761D01*
X133437238Y-104211380D01*
X133199142Y-104211380D01*
X133103904Y-104163761D01*
X133056285Y-104116142D01*
X142835333Y-104084380D02*
X142502000Y-103608190D01*
X142263904Y-104084380D02*
X142263904Y-103084380D01*
X142644857Y-103084380D01*
X142740095Y-103132000D01*
X142787714Y-103179619D01*
X142835333Y-103274857D01*
X142835333Y-103417714D01*
X142787714Y-103512952D01*
X142740095Y-103560571D01*
X142644857Y-103608190D01*
X142263904Y-103608190D01*
X143692476Y-103417714D02*
X143692476Y-104084380D01*
X143454380Y-103036761D02*
X143216285Y-103751047D01*
X143835333Y-103751047D01*
X131151333Y-92146380D02*
X130818000Y-91670190D01*
X130579904Y-92146380D02*
X130579904Y-91146380D01*
X130960857Y-91146380D01*
X131056095Y-91194000D01*
X131103714Y-91241619D01*
X131151333Y-91336857D01*
X131151333Y-91479714D01*
X131103714Y-91574952D01*
X131056095Y-91622571D01*
X130960857Y-91670190D01*
X130579904Y-91670190D01*
X131484666Y-91146380D02*
X132103714Y-91146380D01*
X131770380Y-91527333D01*
X131913238Y-91527333D01*
X132008476Y-91574952D01*
X132056095Y-91622571D01*
X132103714Y-91717809D01*
X132103714Y-91955904D01*
X132056095Y-92051142D01*
X132008476Y-92098761D01*
X131913238Y-92146380D01*
X131627523Y-92146380D01*
X131532285Y-92098761D01*
X131484666Y-92051142D01*
X133945333Y-110434380D02*
X133612000Y-109958190D01*
X133373904Y-110434380D02*
X133373904Y-109434380D01*
X133754857Y-109434380D01*
X133850095Y-109482000D01*
X133897714Y-109529619D01*
X133945333Y-109624857D01*
X133945333Y-109767714D01*
X133897714Y-109862952D01*
X133850095Y-109910571D01*
X133754857Y-109958190D01*
X133373904Y-109958190D01*
X134326285Y-109529619D02*
X134373904Y-109482000D01*
X134469142Y-109434380D01*
X134707238Y-109434380D01*
X134802476Y-109482000D01*
X134850095Y-109529619D01*
X134897714Y-109624857D01*
X134897714Y-109720095D01*
X134850095Y-109862952D01*
X134278666Y-110434380D01*
X134897714Y-110434380D01*
X133945333Y-116657380D02*
X133612000Y-116181190D01*
X133373904Y-116657380D02*
X133373904Y-115657380D01*
X133754857Y-115657380D01*
X133850095Y-115705000D01*
X133897714Y-115752619D01*
X133945333Y-115847857D01*
X133945333Y-115990714D01*
X133897714Y-116085952D01*
X133850095Y-116133571D01*
X133754857Y-116181190D01*
X133373904Y-116181190D01*
X134897714Y-116657380D02*
X134326285Y-116657380D01*
X134612000Y-116657380D02*
X134612000Y-115657380D01*
X134516761Y-115800238D01*
X134421523Y-115895476D01*
X134326285Y-115943095D01*
X143430666Y-122007380D02*
X143430666Y-122721666D01*
X143383047Y-122864523D01*
X143287809Y-122959761D01*
X143144952Y-123007380D01*
X143049714Y-123007380D01*
X143811619Y-122007380D02*
X144430666Y-122007380D01*
X144097333Y-122388333D01*
X144240190Y-122388333D01*
X144335428Y-122435952D01*
X144383047Y-122483571D01*
X144430666Y-122578809D01*
X144430666Y-122816904D01*
X144383047Y-122912142D01*
X144335428Y-122959761D01*
X144240190Y-123007380D01*
X143954476Y-123007380D01*
X143859238Y-122959761D01*
X143811619Y-122912142D01*
X134008904Y-86431380D02*
X134008904Y-85431380D01*
X134247000Y-85431380D01*
X134389857Y-85479000D01*
X134485095Y-85574238D01*
X134532714Y-85669476D01*
X134580333Y-85859952D01*
X134580333Y-86002809D01*
X134532714Y-86193285D01*
X134485095Y-86288523D01*
X134389857Y-86383761D01*
X134247000Y-86431380D01*
X134008904Y-86431380D01*
X135532714Y-86431380D02*
X134961285Y-86431380D01*
X135247000Y-86431380D02*
X135247000Y-85431380D01*
X135151761Y-85574238D01*
X135056523Y-85669476D01*
X134961285Y-85717095D01*
X140454095Y-88717380D02*
X140454095Y-87717380D01*
X141025523Y-88717380D02*
X140596952Y-88145952D01*
X141025523Y-87717380D02*
X140454095Y-88288809D01*
X142748095Y-91019380D02*
X142748095Y-91828904D01*
X142795714Y-91924142D01*
X142843333Y-91971761D01*
X142938571Y-92019380D01*
X143129047Y-92019380D01*
X143224285Y-91971761D01*
X143271904Y-91924142D01*
X143319523Y-91828904D01*
X143319523Y-91019380D01*
X144319523Y-92019380D02*
X143748095Y-92019380D01*
X144033809Y-92019380D02*
X144033809Y-91019380D01*
X143938571Y-91162238D01*
X143843333Y-91257476D01*
X143748095Y-91305095D01*
M02*
