M48
; DRILL file {KiCad 5.1.5-52549c5~84~ubuntu18.04.1} date Fri 17 Jan 2020 10:31:10 AM EST
; FORMAT={-:-/ absolute / inch / decimal}
; #@! TF.CreationDate,2020-01-17T10:31:10-05:00
; #@! TF.GenerationSoftware,Kicad,Pcbnew,5.1.5-52549c5~84~ubuntu18.04.1
; #@! TF.FileFunction,Plated,1,2,PTH
FMAT,2
INCH
T1C0.0315
T2C0.0394
T3C0.0433
T4C0.0512
%
G90
G05
T1
X5.13Y-4.415
X5.43Y-4.415
X5.075Y-4.17
X5.375Y-4.17
X5.13Y-4.66
X5.43Y-4.66
X5.17Y-3.68
X5.17Y-3.98
X5.385Y-3.68
X5.385Y-3.98
X5.485Y-3.68
X5.485Y-3.98
X5.585Y-3.68
X5.585Y-3.98
X5.685Y-3.68
X5.685Y-3.98
X5.485Y-4.17
X5.785Y-4.17
T2
X5.665Y-4.425
X5.665Y-4.525
X5.665Y-4.625
X5.665Y-4.725
T3
X5.17Y-3.475
X5.47Y-3.475
T4
X4.4863Y-4.4466
X4.4863Y-4.6434
X4.88Y-4.2497
X4.88Y-4.545
X4.88Y-4.8403
X4.9784Y-4.3481
X4.9784Y-4.7419
X4.4863Y-3.6366
X4.4863Y-3.8334
X4.88Y-3.4397
X4.88Y-3.735
X4.88Y-4.0303
X4.9784Y-3.5381
X4.9784Y-3.9319
T0
M30
