G04 #@! TF.GenerationSoftware,KiCad,Pcbnew,5.1.5-52549c5~84~ubuntu18.04.1*
G04 #@! TF.CreationDate,2020-01-17T10:26:32-05:00*
G04 #@! TF.ProjectId,midi_io,6d696469-5f69-46f2-9e6b-696361645f70,1*
G04 #@! TF.SameCoordinates,Original*
G04 #@! TF.FileFunction,Soldermask,Top*
G04 #@! TF.FilePolarity,Negative*
%FSLAX46Y46*%
G04 Gerber Fmt 4.6, Leading zero omitted, Abs format (unit mm)*
G04 Created by KiCad (PCBNEW 5.1.5-52549c5~84~ubuntu18.04.1) date 2020-01-17 10:26:32*
%MOMM*%
%LPD*%
G04 APERTURE LIST*
%ADD10C,0.100000*%
G04 APERTURE END LIST*
D10*
G36*
X124251215Y-121956621D02*
G01*
X124437899Y-122033948D01*
X124605911Y-122146210D01*
X124748790Y-122289089D01*
X124861052Y-122457101D01*
X124938379Y-122643785D01*
X124977800Y-122841967D01*
X124977800Y-123044033D01*
X124938379Y-123242215D01*
X124861052Y-123428899D01*
X124748790Y-123596911D01*
X124605911Y-123739790D01*
X124437899Y-123852052D01*
X124251215Y-123929379D01*
X124053033Y-123968800D01*
X123850967Y-123968800D01*
X123652785Y-123929379D01*
X123466101Y-123852052D01*
X123298089Y-123739790D01*
X123155210Y-123596911D01*
X123042948Y-123428899D01*
X122965621Y-123242215D01*
X122926200Y-123044033D01*
X122926200Y-122841967D01*
X122965621Y-122643785D01*
X123042948Y-122457101D01*
X123155210Y-122289089D01*
X123298089Y-122146210D01*
X123466101Y-122033948D01*
X123652785Y-121956621D01*
X123850967Y-121917200D01*
X124053033Y-121917200D01*
X124251215Y-121956621D01*
G37*
G36*
X126751215Y-119456621D02*
G01*
X126937899Y-119533948D01*
X127105911Y-119646210D01*
X127248790Y-119789089D01*
X127361052Y-119957101D01*
X127438379Y-120143785D01*
X127477800Y-120341967D01*
X127477800Y-120544033D01*
X127438379Y-120742215D01*
X127361052Y-120928899D01*
X127248790Y-121096911D01*
X127105911Y-121239790D01*
X126937899Y-121352052D01*
X126751215Y-121429379D01*
X126553033Y-121468800D01*
X126350967Y-121468800D01*
X126152785Y-121429379D01*
X125966101Y-121352052D01*
X125798089Y-121239790D01*
X125655210Y-121096911D01*
X125542948Y-120928899D01*
X125465621Y-120742215D01*
X125426200Y-120544033D01*
X125426200Y-120341967D01*
X125465621Y-120143785D01*
X125542948Y-119957101D01*
X125655210Y-119789089D01*
X125798089Y-119646210D01*
X125966101Y-119533948D01*
X126152785Y-119456621D01*
X126350967Y-119417200D01*
X126553033Y-119417200D01*
X126751215Y-119456621D01*
G37*
G36*
X144153754Y-119148817D02*
G01*
X144317689Y-119216721D01*
X144465227Y-119315303D01*
X144590697Y-119440773D01*
X144689279Y-119588311D01*
X144757183Y-119752246D01*
X144791800Y-119926279D01*
X144791800Y-120103721D01*
X144757183Y-120277754D01*
X144689279Y-120441689D01*
X144590697Y-120589227D01*
X144465227Y-120714697D01*
X144317689Y-120813279D01*
X144153754Y-120881183D01*
X143979721Y-120915800D01*
X143802279Y-120915800D01*
X143628246Y-120881183D01*
X143464311Y-120813279D01*
X143316773Y-120714697D01*
X143191303Y-120589227D01*
X143092721Y-120441689D01*
X143024817Y-120277754D01*
X142990200Y-120103721D01*
X142990200Y-119926279D01*
X143024817Y-119752246D01*
X143092721Y-119588311D01*
X143191303Y-119440773D01*
X143316773Y-119315303D01*
X143464311Y-119216721D01*
X143628246Y-119148817D01*
X143802279Y-119114200D01*
X143979721Y-119114200D01*
X144153754Y-119148817D01*
G37*
G36*
X130550169Y-117545895D02*
G01*
X130705005Y-117610031D01*
X130844354Y-117703140D01*
X130962860Y-117821646D01*
X131055969Y-117960995D01*
X131120105Y-118115831D01*
X131152800Y-118280203D01*
X131152800Y-118447797D01*
X131120105Y-118612169D01*
X131055969Y-118767005D01*
X130962860Y-118906354D01*
X130844354Y-119024860D01*
X130705005Y-119117969D01*
X130550169Y-119182105D01*
X130385797Y-119214800D01*
X130218203Y-119214800D01*
X130053831Y-119182105D01*
X129898995Y-119117969D01*
X129759646Y-119024860D01*
X129641140Y-118906354D01*
X129548031Y-118767005D01*
X129483895Y-118612169D01*
X129451200Y-118447797D01*
X129451200Y-118280203D01*
X129483895Y-118115831D01*
X129548031Y-117960995D01*
X129641140Y-117821646D01*
X129759646Y-117703140D01*
X129898995Y-117610031D01*
X130053831Y-117545895D01*
X130218203Y-117513200D01*
X130385797Y-117513200D01*
X130550169Y-117545895D01*
G37*
G36*
X138170169Y-117545895D02*
G01*
X138325005Y-117610031D01*
X138464354Y-117703140D01*
X138582860Y-117821646D01*
X138675969Y-117960995D01*
X138740105Y-118115831D01*
X138772800Y-118280203D01*
X138772800Y-118447797D01*
X138740105Y-118612169D01*
X138675969Y-118767005D01*
X138582860Y-118906354D01*
X138464354Y-119024860D01*
X138325005Y-119117969D01*
X138170169Y-119182105D01*
X138005797Y-119214800D01*
X137838203Y-119214800D01*
X137673831Y-119182105D01*
X137518995Y-119117969D01*
X137379646Y-119024860D01*
X137261140Y-118906354D01*
X137168031Y-118767005D01*
X137103895Y-118612169D01*
X137071200Y-118447797D01*
X137071200Y-118280203D01*
X137103895Y-118115831D01*
X137168031Y-117960995D01*
X137261140Y-117821646D01*
X137379646Y-117703140D01*
X137518995Y-117610031D01*
X137673831Y-117545895D01*
X137838203Y-117513200D01*
X138005797Y-117513200D01*
X138170169Y-117545895D01*
G37*
G36*
X114251215Y-116956621D02*
G01*
X114437899Y-117033948D01*
X114605911Y-117146210D01*
X114748790Y-117289089D01*
X114861052Y-117457101D01*
X114938379Y-117643785D01*
X114977800Y-117841967D01*
X114977800Y-118044033D01*
X114938379Y-118242215D01*
X114861052Y-118428899D01*
X114748790Y-118596911D01*
X114605911Y-118739790D01*
X114437899Y-118852052D01*
X114251215Y-118929379D01*
X114053033Y-118968800D01*
X113850967Y-118968800D01*
X113652785Y-118929379D01*
X113466101Y-118852052D01*
X113298089Y-118739790D01*
X113155210Y-118596911D01*
X113042948Y-118428899D01*
X112965621Y-118242215D01*
X112926200Y-118044033D01*
X112926200Y-117841967D01*
X112965621Y-117643785D01*
X113042948Y-117457101D01*
X113155210Y-117289089D01*
X113298089Y-117146210D01*
X113466101Y-117033948D01*
X113652785Y-116956621D01*
X113850967Y-116917200D01*
X114053033Y-116917200D01*
X114251215Y-116956621D01*
G37*
G36*
X144153754Y-116608817D02*
G01*
X144317689Y-116676721D01*
X144465227Y-116775303D01*
X144590697Y-116900773D01*
X144689279Y-117048311D01*
X144757183Y-117212246D01*
X144791800Y-117386279D01*
X144791800Y-117563721D01*
X144757183Y-117737754D01*
X144689279Y-117901689D01*
X144590697Y-118049227D01*
X144465227Y-118174697D01*
X144317689Y-118273279D01*
X144153754Y-118341183D01*
X143979721Y-118375800D01*
X143802279Y-118375800D01*
X143628246Y-118341183D01*
X143464311Y-118273279D01*
X143316773Y-118174697D01*
X143191303Y-118049227D01*
X143092721Y-117901689D01*
X143024817Y-117737754D01*
X142990200Y-117563721D01*
X142990200Y-117386279D01*
X143024817Y-117212246D01*
X143092721Y-117048311D01*
X143191303Y-116900773D01*
X143316773Y-116775303D01*
X143464311Y-116676721D01*
X143628246Y-116608817D01*
X143802279Y-116574200D01*
X143979721Y-116574200D01*
X144153754Y-116608817D01*
G37*
G36*
X124251215Y-114456621D02*
G01*
X124437899Y-114533948D01*
X124605911Y-114646210D01*
X124748790Y-114789089D01*
X124861052Y-114957101D01*
X124938379Y-115143785D01*
X124977800Y-115341967D01*
X124977800Y-115544033D01*
X124938379Y-115742215D01*
X124861052Y-115928899D01*
X124748790Y-116096911D01*
X124605911Y-116239790D01*
X124437899Y-116352052D01*
X124251215Y-116429379D01*
X124053033Y-116468800D01*
X123850967Y-116468800D01*
X123652785Y-116429379D01*
X123466101Y-116352052D01*
X123298089Y-116239790D01*
X123155210Y-116096911D01*
X123042948Y-115928899D01*
X122965621Y-115742215D01*
X122926200Y-115544033D01*
X122926200Y-115341967D01*
X122965621Y-115143785D01*
X123042948Y-114957101D01*
X123155210Y-114789089D01*
X123298089Y-114646210D01*
X123466101Y-114533948D01*
X123652785Y-114456621D01*
X123850967Y-114417200D01*
X124053033Y-114417200D01*
X124251215Y-114456621D01*
G37*
G36*
X144153754Y-114068817D02*
G01*
X144317689Y-114136721D01*
X144465227Y-114235303D01*
X144590697Y-114360773D01*
X144689279Y-114508311D01*
X144757183Y-114672246D01*
X144791800Y-114846279D01*
X144791800Y-115023721D01*
X144757183Y-115197754D01*
X144689279Y-115361689D01*
X144590697Y-115509227D01*
X144465227Y-115634697D01*
X144317689Y-115733279D01*
X144153754Y-115801183D01*
X143979721Y-115835800D01*
X143802279Y-115835800D01*
X143628246Y-115801183D01*
X143464311Y-115733279D01*
X143316773Y-115634697D01*
X143191303Y-115509227D01*
X143092721Y-115361689D01*
X143024817Y-115197754D01*
X142990200Y-115023721D01*
X142990200Y-114846279D01*
X143024817Y-114672246D01*
X143092721Y-114508311D01*
X143191303Y-114360773D01*
X143316773Y-114235303D01*
X143464311Y-114136721D01*
X143628246Y-114068817D01*
X143802279Y-114034200D01*
X143979721Y-114034200D01*
X144153754Y-114068817D01*
G37*
G36*
X114251215Y-111956621D02*
G01*
X114437899Y-112033948D01*
X114605911Y-112146210D01*
X114748790Y-112289089D01*
X114861052Y-112457101D01*
X114938379Y-112643785D01*
X114977800Y-112841967D01*
X114977800Y-113044033D01*
X114938379Y-113242215D01*
X114861052Y-113428899D01*
X114748790Y-113596911D01*
X114605911Y-113739790D01*
X114437899Y-113852052D01*
X114251215Y-113929379D01*
X114053033Y-113968800D01*
X113850967Y-113968800D01*
X113652785Y-113929379D01*
X113466101Y-113852052D01*
X113298089Y-113739790D01*
X113155210Y-113596911D01*
X113042948Y-113428899D01*
X112965621Y-113242215D01*
X112926200Y-113044033D01*
X112926200Y-112841967D01*
X112965621Y-112643785D01*
X113042948Y-112457101D01*
X113155210Y-112289089D01*
X113298089Y-112146210D01*
X113466101Y-112033948D01*
X113652785Y-111956621D01*
X113850967Y-111917200D01*
X114053033Y-111917200D01*
X114251215Y-111956621D01*
G37*
G36*
X144791800Y-113295800D02*
G01*
X142990200Y-113295800D01*
X142990200Y-111494200D01*
X144791800Y-111494200D01*
X144791800Y-113295800D01*
G37*
G36*
X130550169Y-111322895D02*
G01*
X130705005Y-111387031D01*
X130844354Y-111480140D01*
X130962860Y-111598646D01*
X131055969Y-111737995D01*
X131120105Y-111892831D01*
X131152800Y-112057203D01*
X131152800Y-112224797D01*
X131120105Y-112389169D01*
X131055969Y-112544005D01*
X130962860Y-112683354D01*
X130844354Y-112801860D01*
X130705005Y-112894969D01*
X130550169Y-112959105D01*
X130385797Y-112991800D01*
X130218203Y-112991800D01*
X130053831Y-112959105D01*
X129898995Y-112894969D01*
X129759646Y-112801860D01*
X129641140Y-112683354D01*
X129548031Y-112544005D01*
X129483895Y-112389169D01*
X129451200Y-112224797D01*
X129451200Y-112057203D01*
X129483895Y-111892831D01*
X129548031Y-111737995D01*
X129641140Y-111598646D01*
X129759646Y-111480140D01*
X129898995Y-111387031D01*
X130053831Y-111322895D01*
X130218203Y-111290200D01*
X130385797Y-111290200D01*
X130550169Y-111322895D01*
G37*
G36*
X138170169Y-111322895D02*
G01*
X138325005Y-111387031D01*
X138464354Y-111480140D01*
X138582860Y-111598646D01*
X138675969Y-111737995D01*
X138740105Y-111892831D01*
X138772800Y-112057203D01*
X138772800Y-112224797D01*
X138740105Y-112389169D01*
X138675969Y-112544005D01*
X138582860Y-112683354D01*
X138464354Y-112801860D01*
X138325005Y-112894969D01*
X138170169Y-112959105D01*
X138005797Y-112991800D01*
X137838203Y-112991800D01*
X137673831Y-112959105D01*
X137518995Y-112894969D01*
X137379646Y-112801860D01*
X137261140Y-112683354D01*
X137168031Y-112544005D01*
X137103895Y-112389169D01*
X137071200Y-112224797D01*
X137071200Y-112057203D01*
X137103895Y-111892831D01*
X137168031Y-111737995D01*
X137261140Y-111598646D01*
X137379646Y-111480140D01*
X137518995Y-111387031D01*
X137673831Y-111322895D01*
X137838203Y-111290200D01*
X138005797Y-111290200D01*
X138170169Y-111322895D01*
G37*
G36*
X126751215Y-109456621D02*
G01*
X126937899Y-109533948D01*
X127105911Y-109646210D01*
X127248790Y-109789089D01*
X127361052Y-109957101D01*
X127438379Y-110143785D01*
X127477800Y-110341967D01*
X127477800Y-110544033D01*
X127438379Y-110742215D01*
X127361052Y-110928899D01*
X127248790Y-111096911D01*
X127105911Y-111239790D01*
X126937899Y-111352052D01*
X126751215Y-111429379D01*
X126553033Y-111468800D01*
X126350967Y-111468800D01*
X126152785Y-111429379D01*
X125966101Y-111352052D01*
X125798089Y-111239790D01*
X125655210Y-111096911D01*
X125542948Y-110928899D01*
X125465621Y-110742215D01*
X125426200Y-110544033D01*
X125426200Y-110341967D01*
X125465621Y-110143785D01*
X125542948Y-109957101D01*
X125655210Y-109789089D01*
X125798089Y-109646210D01*
X125966101Y-109533948D01*
X126152785Y-109456621D01*
X126350967Y-109417200D01*
X126553033Y-109417200D01*
X126751215Y-109456621D01*
G37*
G36*
X124251215Y-106956621D02*
G01*
X124437899Y-107033948D01*
X124605911Y-107146210D01*
X124748790Y-107289089D01*
X124861052Y-107457101D01*
X124938379Y-107643785D01*
X124977800Y-107841967D01*
X124977800Y-108044033D01*
X124938379Y-108242215D01*
X124861052Y-108428899D01*
X124748790Y-108596911D01*
X124605911Y-108739790D01*
X124437899Y-108852052D01*
X124251215Y-108929379D01*
X124053033Y-108968800D01*
X123850967Y-108968800D01*
X123652785Y-108929379D01*
X123466101Y-108852052D01*
X123298089Y-108739790D01*
X123155210Y-108596911D01*
X123042948Y-108428899D01*
X122965621Y-108242215D01*
X122926200Y-108044033D01*
X122926200Y-107841967D01*
X122965621Y-107643785D01*
X123042948Y-107457101D01*
X123155210Y-107289089D01*
X123298089Y-107146210D01*
X123466101Y-107033948D01*
X123652785Y-106956621D01*
X123850967Y-106917200D01*
X124053033Y-106917200D01*
X124251215Y-106956621D01*
G37*
G36*
X129153169Y-105099895D02*
G01*
X129308005Y-105164031D01*
X129447354Y-105257140D01*
X129565860Y-105375646D01*
X129658969Y-105514995D01*
X129723105Y-105669831D01*
X129755800Y-105834203D01*
X129755800Y-106001797D01*
X129723105Y-106166169D01*
X129658969Y-106321005D01*
X129565860Y-106460354D01*
X129447354Y-106578860D01*
X129308005Y-106671969D01*
X129153169Y-106736105D01*
X128988797Y-106768800D01*
X128821203Y-106768800D01*
X128656831Y-106736105D01*
X128501995Y-106671969D01*
X128362646Y-106578860D01*
X128244140Y-106460354D01*
X128151031Y-106321005D01*
X128086895Y-106166169D01*
X128054200Y-106001797D01*
X128054200Y-105834203D01*
X128086895Y-105669831D01*
X128151031Y-105514995D01*
X128244140Y-105375646D01*
X128362646Y-105257140D01*
X128501995Y-105164031D01*
X128656831Y-105099895D01*
X128821203Y-105067200D01*
X128988797Y-105067200D01*
X129153169Y-105099895D01*
G37*
G36*
X147187169Y-105099895D02*
G01*
X147342005Y-105164031D01*
X147481354Y-105257140D01*
X147599860Y-105375646D01*
X147692969Y-105514995D01*
X147757105Y-105669831D01*
X147789800Y-105834203D01*
X147789800Y-106001797D01*
X147757105Y-106166169D01*
X147692969Y-106321005D01*
X147599860Y-106460354D01*
X147481354Y-106578860D01*
X147342005Y-106671969D01*
X147187169Y-106736105D01*
X147022797Y-106768800D01*
X146855203Y-106768800D01*
X146690831Y-106736105D01*
X146535995Y-106671969D01*
X146396646Y-106578860D01*
X146278140Y-106460354D01*
X146185031Y-106321005D01*
X146120895Y-106166169D01*
X146088200Y-106001797D01*
X146088200Y-105834203D01*
X146120895Y-105669831D01*
X146185031Y-105514995D01*
X146278140Y-105375646D01*
X146396646Y-105257140D01*
X146535995Y-105164031D01*
X146690831Y-105099895D01*
X146855203Y-105067200D01*
X147022797Y-105067200D01*
X147187169Y-105099895D01*
G37*
G36*
X139567169Y-105099895D02*
G01*
X139722005Y-105164031D01*
X139861354Y-105257140D01*
X139979860Y-105375646D01*
X140072969Y-105514995D01*
X140137105Y-105669831D01*
X140169800Y-105834203D01*
X140169800Y-106001797D01*
X140137105Y-106166169D01*
X140072969Y-106321005D01*
X139979860Y-106460354D01*
X139861354Y-106578860D01*
X139722005Y-106671969D01*
X139567169Y-106736105D01*
X139402797Y-106768800D01*
X139235203Y-106768800D01*
X139070831Y-106736105D01*
X138915995Y-106671969D01*
X138776646Y-106578860D01*
X138658140Y-106460354D01*
X138565031Y-106321005D01*
X138500895Y-106166169D01*
X138468200Y-106001797D01*
X138468200Y-105834203D01*
X138500895Y-105669831D01*
X138565031Y-105514995D01*
X138658140Y-105375646D01*
X138776646Y-105257140D01*
X138915995Y-105164031D01*
X139070831Y-105099895D01*
X139235203Y-105067200D01*
X139402797Y-105067200D01*
X139567169Y-105099895D01*
G37*
G36*
X136773169Y-105099895D02*
G01*
X136928005Y-105164031D01*
X137067354Y-105257140D01*
X137185860Y-105375646D01*
X137278969Y-105514995D01*
X137343105Y-105669831D01*
X137375800Y-105834203D01*
X137375800Y-106001797D01*
X137343105Y-106166169D01*
X137278969Y-106321005D01*
X137185860Y-106460354D01*
X137067354Y-106578860D01*
X136928005Y-106671969D01*
X136773169Y-106736105D01*
X136608797Y-106768800D01*
X136441203Y-106768800D01*
X136276831Y-106736105D01*
X136121995Y-106671969D01*
X135982646Y-106578860D01*
X135864140Y-106460354D01*
X135771031Y-106321005D01*
X135706895Y-106166169D01*
X135674200Y-106001797D01*
X135674200Y-105834203D01*
X135706895Y-105669831D01*
X135771031Y-105514995D01*
X135864140Y-105375646D01*
X135982646Y-105257140D01*
X136121995Y-105164031D01*
X136276831Y-105099895D01*
X136441203Y-105067200D01*
X136608797Y-105067200D01*
X136773169Y-105099895D01*
G37*
G36*
X124251215Y-101382621D02*
G01*
X124437899Y-101459948D01*
X124605911Y-101572210D01*
X124748790Y-101715089D01*
X124861052Y-101883101D01*
X124938379Y-102069785D01*
X124977800Y-102267967D01*
X124977800Y-102470033D01*
X124938379Y-102668215D01*
X124861052Y-102854899D01*
X124748790Y-103022911D01*
X124605911Y-103165790D01*
X124437899Y-103278052D01*
X124251215Y-103355379D01*
X124053033Y-103394800D01*
X123850967Y-103394800D01*
X123652785Y-103355379D01*
X123466101Y-103278052D01*
X123298089Y-103165790D01*
X123155210Y-103022911D01*
X123042948Y-102854899D01*
X122965621Y-102668215D01*
X122926200Y-102470033D01*
X122926200Y-102267967D01*
X122965621Y-102069785D01*
X123042948Y-101883101D01*
X123155210Y-101715089D01*
X123298089Y-101572210D01*
X123466101Y-101459948D01*
X123652785Y-101382621D01*
X123850967Y-101343200D01*
X124053033Y-101343200D01*
X124251215Y-101382621D01*
G37*
G36*
X137027169Y-100273895D02*
G01*
X137182005Y-100338031D01*
X137321354Y-100431140D01*
X137439860Y-100549646D01*
X137532969Y-100688995D01*
X137597105Y-100843831D01*
X137629800Y-101008203D01*
X137629800Y-101175797D01*
X137597105Y-101340169D01*
X137532969Y-101495005D01*
X137439860Y-101634354D01*
X137321354Y-101752860D01*
X137182005Y-101845969D01*
X137027169Y-101910105D01*
X136862797Y-101942800D01*
X136695203Y-101942800D01*
X136530831Y-101910105D01*
X136375995Y-101845969D01*
X136236646Y-101752860D01*
X136118140Y-101634354D01*
X136025031Y-101495005D01*
X135960895Y-101340169D01*
X135928200Y-101175797D01*
X135928200Y-101008203D01*
X135960895Y-100843831D01*
X136025031Y-100688995D01*
X136118140Y-100549646D01*
X136236646Y-100431140D01*
X136375995Y-100338031D01*
X136530831Y-100273895D01*
X136695203Y-100241200D01*
X136862797Y-100241200D01*
X137027169Y-100273895D01*
G37*
G36*
X144647169Y-100273895D02*
G01*
X144802005Y-100338031D01*
X144941354Y-100431140D01*
X145059860Y-100549646D01*
X145152969Y-100688995D01*
X145217105Y-100843831D01*
X145249800Y-101008203D01*
X145249800Y-101175797D01*
X145217105Y-101340169D01*
X145152969Y-101495005D01*
X145059860Y-101634354D01*
X144941354Y-101752860D01*
X144802005Y-101845969D01*
X144647169Y-101910105D01*
X144482797Y-101942800D01*
X144315203Y-101942800D01*
X144150831Y-101910105D01*
X143995995Y-101845969D01*
X143856646Y-101752860D01*
X143738140Y-101634354D01*
X143645031Y-101495005D01*
X143580895Y-101340169D01*
X143548200Y-101175797D01*
X143548200Y-101008203D01*
X143580895Y-100843831D01*
X143645031Y-100688995D01*
X143738140Y-100549646D01*
X143856646Y-100431140D01*
X143995995Y-100338031D01*
X144150831Y-100273895D01*
X144315203Y-100241200D01*
X144482797Y-100241200D01*
X144647169Y-100273895D01*
G37*
G36*
X139567169Y-100273895D02*
G01*
X139722005Y-100338031D01*
X139861354Y-100431140D01*
X139979860Y-100549646D01*
X140072969Y-100688995D01*
X140137105Y-100843831D01*
X140169800Y-101008203D01*
X140169800Y-101175797D01*
X140137105Y-101340169D01*
X140072969Y-101495005D01*
X139979860Y-101634354D01*
X139861354Y-101752860D01*
X139722005Y-101845969D01*
X139567169Y-101910105D01*
X139402797Y-101942800D01*
X139235203Y-101942800D01*
X139070831Y-101910105D01*
X138915995Y-101845969D01*
X138776646Y-101752860D01*
X138658140Y-101634354D01*
X138565031Y-101495005D01*
X138500895Y-101340169D01*
X138468200Y-101175797D01*
X138468200Y-101008203D01*
X138500895Y-100843831D01*
X138565031Y-100688995D01*
X138658140Y-100549646D01*
X138776646Y-100431140D01*
X138915995Y-100338031D01*
X139070831Y-100273895D01*
X139235203Y-100241200D01*
X139402797Y-100241200D01*
X139567169Y-100273895D01*
G37*
G36*
X142107169Y-100273895D02*
G01*
X142262005Y-100338031D01*
X142401354Y-100431140D01*
X142519860Y-100549646D01*
X142612969Y-100688995D01*
X142677105Y-100843831D01*
X142709800Y-101008203D01*
X142709800Y-101175797D01*
X142677105Y-101340169D01*
X142612969Y-101495005D01*
X142519860Y-101634354D01*
X142401354Y-101752860D01*
X142262005Y-101845969D01*
X142107169Y-101910105D01*
X141942797Y-101942800D01*
X141775203Y-101942800D01*
X141610831Y-101910105D01*
X141455995Y-101845969D01*
X141316646Y-101752860D01*
X141198140Y-101634354D01*
X141105031Y-101495005D01*
X141040895Y-101340169D01*
X141008200Y-101175797D01*
X141008200Y-101008203D01*
X141040895Y-100843831D01*
X141105031Y-100688995D01*
X141198140Y-100549646D01*
X141316646Y-100431140D01*
X141455995Y-100338031D01*
X141610831Y-100273895D01*
X141775203Y-100241200D01*
X141942797Y-100241200D01*
X142107169Y-100273895D01*
G37*
G36*
X131566169Y-100273895D02*
G01*
X131721005Y-100338031D01*
X131860354Y-100431140D01*
X131978860Y-100549646D01*
X132071969Y-100688995D01*
X132136105Y-100843831D01*
X132168800Y-101008203D01*
X132168800Y-101175797D01*
X132136105Y-101340169D01*
X132071969Y-101495005D01*
X131978860Y-101634354D01*
X131860354Y-101752860D01*
X131721005Y-101845969D01*
X131566169Y-101910105D01*
X131401797Y-101942800D01*
X131234203Y-101942800D01*
X131069831Y-101910105D01*
X130914995Y-101845969D01*
X130775646Y-101752860D01*
X130657140Y-101634354D01*
X130564031Y-101495005D01*
X130499895Y-101340169D01*
X130467200Y-101175797D01*
X130467200Y-101008203D01*
X130499895Y-100843831D01*
X130564031Y-100688995D01*
X130657140Y-100549646D01*
X130775646Y-100431140D01*
X130914995Y-100338031D01*
X131069831Y-100273895D01*
X131234203Y-100241200D01*
X131401797Y-100241200D01*
X131566169Y-100273895D01*
G37*
G36*
X126751215Y-98882621D02*
G01*
X126937899Y-98959948D01*
X127105911Y-99072210D01*
X127248790Y-99215089D01*
X127361052Y-99383101D01*
X127438379Y-99569785D01*
X127477800Y-99767967D01*
X127477800Y-99970033D01*
X127438379Y-100168215D01*
X127361052Y-100354899D01*
X127248790Y-100522911D01*
X127105911Y-100665790D01*
X126937899Y-100778052D01*
X126751215Y-100855379D01*
X126553033Y-100894800D01*
X126350967Y-100894800D01*
X126152785Y-100855379D01*
X125966101Y-100778052D01*
X125798089Y-100665790D01*
X125655210Y-100522911D01*
X125542948Y-100354899D01*
X125465621Y-100168215D01*
X125426200Y-99970033D01*
X125426200Y-99767967D01*
X125465621Y-99569785D01*
X125542948Y-99383101D01*
X125655210Y-99215089D01*
X125798089Y-99072210D01*
X125966101Y-98959948D01*
X126152785Y-98882621D01*
X126350967Y-98843200D01*
X126553033Y-98843200D01*
X126751215Y-98882621D01*
G37*
G36*
X114251215Y-96382621D02*
G01*
X114437899Y-96459948D01*
X114605911Y-96572210D01*
X114748790Y-96715089D01*
X114861052Y-96883101D01*
X114938379Y-97069785D01*
X114977800Y-97267967D01*
X114977800Y-97470033D01*
X114938379Y-97668215D01*
X114861052Y-97854899D01*
X114748790Y-98022911D01*
X114605911Y-98165790D01*
X114437899Y-98278052D01*
X114251215Y-98355379D01*
X114053033Y-98394800D01*
X113850967Y-98394800D01*
X113652785Y-98355379D01*
X113466101Y-98278052D01*
X113298089Y-98165790D01*
X113155210Y-98022911D01*
X113042948Y-97854899D01*
X112965621Y-97668215D01*
X112926200Y-97470033D01*
X112926200Y-97267967D01*
X112965621Y-97069785D01*
X113042948Y-96883101D01*
X113155210Y-96715089D01*
X113298089Y-96572210D01*
X113466101Y-96459948D01*
X113652785Y-96382621D01*
X113850967Y-96343200D01*
X114053033Y-96343200D01*
X114251215Y-96382621D01*
G37*
G36*
X124251215Y-93882621D02*
G01*
X124437899Y-93959948D01*
X124605911Y-94072210D01*
X124748790Y-94215089D01*
X124861052Y-94383101D01*
X124938379Y-94569785D01*
X124977800Y-94767967D01*
X124977800Y-94970033D01*
X124938379Y-95168215D01*
X124861052Y-95354899D01*
X124748790Y-95522911D01*
X124605911Y-95665790D01*
X124437899Y-95778052D01*
X124251215Y-95855379D01*
X124053033Y-95894800D01*
X123850967Y-95894800D01*
X123652785Y-95855379D01*
X123466101Y-95778052D01*
X123298089Y-95665790D01*
X123155210Y-95522911D01*
X123042948Y-95354899D01*
X122965621Y-95168215D01*
X122926200Y-94970033D01*
X122926200Y-94767967D01*
X122965621Y-94569785D01*
X123042948Y-94383101D01*
X123155210Y-94215089D01*
X123298089Y-94072210D01*
X123466101Y-93959948D01*
X123652785Y-93882621D01*
X123850967Y-93843200D01*
X124053033Y-93843200D01*
X124251215Y-93882621D01*
G37*
G36*
X145249800Y-94322800D02*
G01*
X143548200Y-94322800D01*
X143548200Y-92621200D01*
X145249800Y-92621200D01*
X145249800Y-94322800D01*
G37*
G36*
X131566169Y-92653895D02*
G01*
X131721005Y-92718031D01*
X131860354Y-92811140D01*
X131978860Y-92929646D01*
X132071969Y-93068995D01*
X132136105Y-93223831D01*
X132168800Y-93388203D01*
X132168800Y-93555797D01*
X132136105Y-93720169D01*
X132071969Y-93875005D01*
X131978860Y-94014354D01*
X131860354Y-94132860D01*
X131721005Y-94225969D01*
X131566169Y-94290105D01*
X131401797Y-94322800D01*
X131234203Y-94322800D01*
X131069831Y-94290105D01*
X130914995Y-94225969D01*
X130775646Y-94132860D01*
X130657140Y-94014354D01*
X130564031Y-93875005D01*
X130499895Y-93720169D01*
X130467200Y-93555797D01*
X130467200Y-93388203D01*
X130499895Y-93223831D01*
X130564031Y-93068995D01*
X130657140Y-92929646D01*
X130775646Y-92811140D01*
X130914995Y-92718031D01*
X131069831Y-92653895D01*
X131234203Y-92621200D01*
X131401797Y-92621200D01*
X131566169Y-92653895D01*
G37*
G36*
X139567169Y-92653895D02*
G01*
X139722005Y-92718031D01*
X139861354Y-92811140D01*
X139979860Y-92929646D01*
X140072969Y-93068995D01*
X140137105Y-93223831D01*
X140169800Y-93388203D01*
X140169800Y-93555797D01*
X140137105Y-93720169D01*
X140072969Y-93875005D01*
X139979860Y-94014354D01*
X139861354Y-94132860D01*
X139722005Y-94225969D01*
X139567169Y-94290105D01*
X139402797Y-94322800D01*
X139235203Y-94322800D01*
X139070831Y-94290105D01*
X138915995Y-94225969D01*
X138776646Y-94132860D01*
X138658140Y-94014354D01*
X138565031Y-93875005D01*
X138500895Y-93720169D01*
X138468200Y-93555797D01*
X138468200Y-93388203D01*
X138500895Y-93223831D01*
X138565031Y-93068995D01*
X138658140Y-92929646D01*
X138776646Y-92811140D01*
X138915995Y-92718031D01*
X139070831Y-92653895D01*
X139235203Y-92621200D01*
X139402797Y-92621200D01*
X139567169Y-92653895D01*
G37*
G36*
X142107169Y-92653895D02*
G01*
X142262005Y-92718031D01*
X142401354Y-92811140D01*
X142519860Y-92929646D01*
X142612969Y-93068995D01*
X142677105Y-93223831D01*
X142709800Y-93388203D01*
X142709800Y-93555797D01*
X142677105Y-93720169D01*
X142612969Y-93875005D01*
X142519860Y-94014354D01*
X142401354Y-94132860D01*
X142262005Y-94225969D01*
X142107169Y-94290105D01*
X141942797Y-94322800D01*
X141775203Y-94322800D01*
X141610831Y-94290105D01*
X141455995Y-94225969D01*
X141316646Y-94132860D01*
X141198140Y-94014354D01*
X141105031Y-93875005D01*
X141040895Y-93720169D01*
X141008200Y-93555797D01*
X141008200Y-93388203D01*
X141040895Y-93223831D01*
X141105031Y-93068995D01*
X141198140Y-92929646D01*
X141316646Y-92811140D01*
X141455995Y-92718031D01*
X141610831Y-92653895D01*
X141775203Y-92621200D01*
X141942797Y-92621200D01*
X142107169Y-92653895D01*
G37*
G36*
X137027169Y-92653895D02*
G01*
X137182005Y-92718031D01*
X137321354Y-92811140D01*
X137439860Y-92929646D01*
X137532969Y-93068995D01*
X137597105Y-93223831D01*
X137629800Y-93388203D01*
X137629800Y-93555797D01*
X137597105Y-93720169D01*
X137532969Y-93875005D01*
X137439860Y-94014354D01*
X137321354Y-94132860D01*
X137182005Y-94225969D01*
X137027169Y-94290105D01*
X136862797Y-94322800D01*
X136695203Y-94322800D01*
X136530831Y-94290105D01*
X136375995Y-94225969D01*
X136236646Y-94132860D01*
X136118140Y-94014354D01*
X136025031Y-93875005D01*
X135960895Y-93720169D01*
X135928200Y-93555797D01*
X135928200Y-93388203D01*
X135960895Y-93223831D01*
X136025031Y-93068995D01*
X136118140Y-92929646D01*
X136236646Y-92811140D01*
X136375995Y-92718031D01*
X136530831Y-92653895D01*
X136695203Y-92621200D01*
X136862797Y-92621200D01*
X137027169Y-92653895D01*
G37*
G36*
X114251215Y-91382621D02*
G01*
X114437899Y-91459948D01*
X114605911Y-91572210D01*
X114748790Y-91715089D01*
X114861052Y-91883101D01*
X114938379Y-92069785D01*
X114977800Y-92267967D01*
X114977800Y-92470033D01*
X114938379Y-92668215D01*
X114861052Y-92854899D01*
X114748790Y-93022911D01*
X114605911Y-93165790D01*
X114437899Y-93278052D01*
X114251215Y-93355379D01*
X114053033Y-93394800D01*
X113850967Y-93394800D01*
X113652785Y-93355379D01*
X113466101Y-93278052D01*
X113298089Y-93165790D01*
X113155210Y-93022911D01*
X113042948Y-92854899D01*
X112965621Y-92668215D01*
X112926200Y-92470033D01*
X112926200Y-92267967D01*
X112965621Y-92069785D01*
X113042948Y-91883101D01*
X113155210Y-91715089D01*
X113298089Y-91572210D01*
X113466101Y-91459948D01*
X113652785Y-91382621D01*
X113850967Y-91343200D01*
X114053033Y-91343200D01*
X114251215Y-91382621D01*
G37*
G36*
X126751215Y-88882621D02*
G01*
X126937899Y-88959948D01*
X127105911Y-89072210D01*
X127248790Y-89215089D01*
X127361052Y-89383101D01*
X127438379Y-89569785D01*
X127477800Y-89767967D01*
X127477800Y-89970033D01*
X127438379Y-90168215D01*
X127361052Y-90354899D01*
X127248790Y-90522911D01*
X127105911Y-90665790D01*
X126937899Y-90778052D01*
X126751215Y-90855379D01*
X126553033Y-90894800D01*
X126350967Y-90894800D01*
X126152785Y-90855379D01*
X125966101Y-90778052D01*
X125798089Y-90665790D01*
X125655210Y-90522911D01*
X125542948Y-90354899D01*
X125465621Y-90168215D01*
X125426200Y-89970033D01*
X125426200Y-89767967D01*
X125465621Y-89569785D01*
X125542948Y-89383101D01*
X125655210Y-89215089D01*
X125798089Y-89072210D01*
X125966101Y-88959948D01*
X126152785Y-88882621D01*
X126350967Y-88843200D01*
X126553033Y-88843200D01*
X126751215Y-88882621D01*
G37*
G36*
X131653676Y-87158425D02*
G01*
X131863109Y-87245174D01*
X132051594Y-87371116D01*
X132211884Y-87531406D01*
X132337826Y-87719891D01*
X132424575Y-87929324D01*
X132468800Y-88151656D01*
X132468800Y-88378344D01*
X132424575Y-88600676D01*
X132337826Y-88810109D01*
X132211884Y-88998594D01*
X132051594Y-89158884D01*
X131863109Y-89284826D01*
X131653676Y-89371575D01*
X131431344Y-89415800D01*
X131204656Y-89415800D01*
X130982324Y-89371575D01*
X130772891Y-89284826D01*
X130584406Y-89158884D01*
X130424116Y-88998594D01*
X130298174Y-88810109D01*
X130211425Y-88600676D01*
X130167200Y-88378344D01*
X130167200Y-88151656D01*
X130211425Y-87929324D01*
X130298174Y-87719891D01*
X130424116Y-87531406D01*
X130584406Y-87371116D01*
X130772891Y-87245174D01*
X130982324Y-87158425D01*
X131204656Y-87114200D01*
X131431344Y-87114200D01*
X131653676Y-87158425D01*
G37*
G36*
X140088800Y-89415800D02*
G01*
X137787200Y-89415800D01*
X137787200Y-87114200D01*
X140088800Y-87114200D01*
X140088800Y-89415800D01*
G37*
G36*
X124251215Y-86382621D02*
G01*
X124437899Y-86459948D01*
X124605911Y-86572210D01*
X124748790Y-86715089D01*
X124861052Y-86883101D01*
X124938379Y-87069785D01*
X124977800Y-87267967D01*
X124977800Y-87470033D01*
X124938379Y-87668215D01*
X124861052Y-87854899D01*
X124748790Y-88022911D01*
X124605911Y-88165790D01*
X124437899Y-88278052D01*
X124251215Y-88355379D01*
X124053033Y-88394800D01*
X123850967Y-88394800D01*
X123652785Y-88355379D01*
X123466101Y-88278052D01*
X123298089Y-88165790D01*
X123155210Y-88022911D01*
X123042948Y-87854899D01*
X122965621Y-87668215D01*
X122926200Y-87470033D01*
X122926200Y-87267967D01*
X122965621Y-87069785D01*
X123042948Y-86883101D01*
X123155210Y-86715089D01*
X123298089Y-86572210D01*
X123466101Y-86459948D01*
X123652785Y-86382621D01*
X123850967Y-86343200D01*
X124053033Y-86343200D01*
X124251215Y-86382621D01*
G37*
M02*
